<svg xmlns="http://www.w3.org/2000/svg" viewBox="0 0 340.22 342" style="width:50px">
    <defs>
        <linearGradient id="gasket-logo-gradient" x1="788.14" y1="267.8" x2="618.71" y2="561.26" gradientUnits="userSpaceOnUse">
            <stop offset="0" stop-color="#3a8dde"/>
            <stop offset="1" stop-color="#00b451"/>
        </linearGradient>
    </defs>
    <g>
        <circle fill="#fff" cx="170" cy="190" r="120"/>
        <path style="fill:url(#gasket-logo-gradient)"
              d="M852.22,479.41,832.69,377l-.12,0c-.63-3.33-1.33-6.65-2.18-9.95a149.12,149.12,0,0,0-47.89-76.66l-76.34-68.81a29.82,29.82,0,0,0-21.07-8.67h0A30.15,30.15,0,0,0,663.64,222L589.86,288.5a149.64,149.64,0,0,0-52.64,88.16L514.86,474.2a29.77,29.77,0,0,0,1.76,22.45h0a30.17,30.17,0,0,0,18,15.2L636.5,547v-.09a148.34,148.34,0,0,0,90.1,2l0,.1,104-31.16a29.84,29.84,0,0,0,19.78-15.4h0A30.14,30.14,0,0,0,852.22,479.41ZM685,286.76m-9.91-49.64A11.56,11.56,0,1,1,695,248.86a11.44,11.44,0,0,1-9,5.57c-.32,0-.63,0-1,0v.14h0v-.14h0c-.29,0-.57,0-.86,0a11.33,11.33,0,0,1-4.95-1.49A11.55,11.55,0,0,1,675.12,237.12ZM532,482.42a11.49,11.49,0,0,1,21.32-5.2c.21.39.45.77.67,1.16a11.54,11.54,0,0,1-20.8,10A11.38,11.38,0,0,1,532,482.42Zm93.09,23.81a117.82,117.82,0,1,1,59.74,16.35A117.89,117.89,0,0,1,625.06,506.23Zm208.85-12.29a11.55,11.55,0,1,1-.47-11.47A11.47,11.47,0,0,1,833.91,493.94Z"
              transform="translate(-513.45 -212.94)"/>
        <path d="M722.86,459.35V446.67a43.39,43.39,0,0,1-17.79,14.69,59.48,59.48,0,0,1-25,5q-27,0-44.94-18.24t-18-46q0-27,19-45.6T683,338q21.25,0,36.84,8.91a53.91,53.91,0,0,1,23,25.36c1,2.29,1,4.12.16,5.48s-2.67,2.29-5.39,2.78L717.87,384a8.14,8.14,0,0,1-4.17-.08,8.6,8.6,0,0,1-3.68-3.11,35.35,35.35,0,0,0-11.86-10,31.48,31.48,0,0,0-14.56-3.48q-14.48,0-23.93,9.94t-9.44,25.07q0,15.38,9.69,25.2a32.21,32.21,0,0,0,23.85,9.81,35,35,0,0,0,15.17-3.19,30,30,0,0,0,11.33-9.32H692.92a4.34,4.34,0,0,1-4.41-4.42V404a4.38,4.38,0,0,1,1.27-3.19,4.2,4.2,0,0,1,3.14-1.31h52.6a4.23,4.23,0,0,1,3.15,1.31,4.42,4.42,0,0,1,1.27,3.19v55.37a4.12,4.12,0,0,1-1.31,3.07,4.3,4.3,0,0,1-3.11,1.27H727.28a4.26,4.26,0,0,1-3.15-1.27A4.16,4.16,0,0,1,722.86,459.35Z"
              transform="translate(-513.45 -212.94)"/>
    </g>
</svg>
