<svg width="48" height="48" viewBox="0 0 48 48" fill="none" xmlns="http://www.w3.org/2000/svg">
    <path d="M12.1002 11.8001H6.0002C5.6002 11.8001 5.2002 11.5001 5.2002 11.0001C5.2002 10.5001 5.5002 10.2001 6.0002 10.2001H12.1002C12.5002 10.2001 12.9002 10.5001 12.9002 11.0001C12.9002 11.5001 12.6002 11.8001 12.1002 11.8001Z" fill="#3F51B5"/>
    <path d="M17.0998 16.8C13.8998 16.8 11.2998 14.2 11.2998 11.1C11.2998 8.00005 13.8998 5.30005 17.0998 5.30005C20.2998 5.30005 22.8998 7.90005 22.8998 11.1C22.8998 14.3 20.2998 16.8 17.0998 16.8ZM17.0998 6.80005C14.7998 6.80005 12.8998 8.70005 12.8998 11C12.8998 13.3 14.7998 15.2 17.0998 15.2C19.3998 15.2 21.2998 13.3 21.2998 11C21.2998 8.70005 19.4998 6.80005 17.0998 6.80005Z" fill="#3F51B5"/>
    <path d="M41.9998 11.8001H22.0998C21.6998 11.8001 21.2998 11.5001 21.2998 11.0001C21.2998 10.5001 21.5998 10.2001 22.0998 10.2001H41.9998C42.3998 10.2001 42.7998 10.5001 42.7998 11.0001C42.7998 11.5001 42.3998 11.8001 41.9998 11.8001Z" fill="#3F51B5"/>
    <path d="M17.0996 16C19.861 16 22.0996 13.7614 22.0996 11C22.0996 8.23858 19.861 6 17.0996 6C14.3382 6 12.0996 8.23858 12.0996 11C12.0996 13.7614 14.3382 16 17.0996 16Z" fill="#FCFAFA" fill-opacity="0.9"/>
    <path d="M17.0998 16.8C13.8998 16.8 11.2998 14.2 11.2998 11.1C11.2998 8.00005 13.8998 5.30005 17.0998 5.30005C20.2998 5.30005 22.8998 7.90005 22.8998 11.1C22.8998 14.3 20.2998 16.8 17.0998 16.8ZM17.0998 6.80005C14.7998 6.80005 12.8998 8.70005 12.8998 11C12.8998 13.3 14.7998 15.2 17.0998 15.2C19.3998 15.2 21.2998 13.3 21.2998 11C21.2998 8.70005 19.4998 6.80005 17.0998 6.80005Z" fill="#3F51B5"/>
    <path d="M42.0006 24.8001H35.9006C35.5006 24.8001 35.1006 24.5001 35.1006 24.0001C35.1006 23.5001 35.4006 23.2001 35.9006 23.2001H42.0006C42.4006 23.2001 42.8006 23.5001 42.8006 24.0001C42.8006 24.5001 42.4006 24.8001 42.0006 24.8001Z" fill="#3F51B5"/>
    <path d="M25.9002 24.8001H6.0002C5.6002 24.8001 5.2002 24.5001 5.2002 24.0001C5.2002 23.5001 5.5002 23.2001 6.0002 23.2001H25.9002C26.3002 23.2001 26.7002 23.5001 26.7002 24.0001C26.7002 24.5001 26.3002 24.8001 25.9002 24.8001Z" fill="#3F51B5"/>
    <path d="M30.9004 29.0001C33.6618 29.0001 35.9004 26.7615 35.9004 24.0001C35.9004 21.2387 33.6618 19.0001 30.9004 19.0001C28.139 19.0001 25.9004 21.2387 25.9004 24.0001C25.9004 26.7615 28.139 29.0001 30.9004 29.0001Z" fill="#FCFAFA"/>
    <path d="M30.9006 29.8001C27.7006 29.8001 25.1006 27.2001 25.1006 24.0001C25.1006 20.8001 27.7006 18.2001 30.9006 18.2001C34.1006 18.2001 36.7006 20.8001 36.7006 24.0001C36.7006 27.2001 34.1006 29.8001 30.9006 29.8001ZM30.9006 19.8001C28.6006 19.8001 26.7006 21.7001 26.7006 24.0001C26.7006 26.3001 28.6006 28.2001 30.9006 28.2001C33.2006 28.2001 35.1006 26.3001 35.1006 24.0001C35.1006 21.7001 33.2006 19.8001 30.9006 19.8001Z" fill="#3F51B5"/>
    <path d="M41.9998 37.8001H22.0998C21.6998 37.8001 21.2998 37.5001 21.2998 37.0001C21.2998 36.5001 21.5998 36.2001 22.0998 36.2001H41.9998C42.3998 36.2001 42.7998 36.5001 42.7998 37.0001C42.7998 37.5001 42.3998 37.8001 41.9998 37.8001Z" fill="#3F51B5"/>
    <path d="M12.1002 37.8001H6.0002C5.6002 37.8001 5.2002 37.5001 5.2002 37.0001C5.2002 36.5001 5.5002 36.2001 6.0002 36.2001H12.1002C12.5002 36.2001 12.9002 36.5001 12.9002 37.0001C12.9002 37.5001 12.5002 37.8001 12.1002 37.8001Z" fill="#3F51B5"/>
    <path d="M17.0996 42.0001C19.861 42.0001 22.0996 39.7615 22.0996 37.0001C22.0996 34.2387 19.861 32.0001 17.0996 32.0001C14.3382 32.0001 12.0996 34.2387 12.0996 37.0001C12.0996 39.7615 14.3382 42.0001 17.0996 42.0001Z" fill="#FCFAFA"/>
    <path d="M17.0998 42.8001C13.8998 42.8001 11.2998 40.2001 11.2998 37.0001C11.2998 33.8001 13.8998 31.2001 17.0998 31.2001C20.2998 31.2001 22.8998 33.8001 22.8998 37.0001C22.8998 40.2001 20.2998 42.8001 17.0998 42.8001ZM17.0998 32.8001C14.7998 32.8001 12.8998 34.7001 12.8998 37.0001C12.8998 39.3001 14.7998 41.2001 17.0998 41.2001C19.3998 41.2001 21.2998 39.3001 21.2998 37.0001C21.2998 34.7001 19.4998 32.8001 17.0998 32.8001Z" fill="#3F51B5"/>
</svg>
