<svg width="48" height="48" viewBox="0 0 48 48" fill="none" xmlns="http://www.w3.org/2000/svg">
    <path d="M24.0002 42.7C13.7002 42.7 5.2002 34.3 5.2002 23.9C5.2002 13.5 13.6002 5.09998 24.0002 5.09998C34.4002 5.09998 42.8002 13.5 42.8002 23.9C42.8002 34.3 34.3002 42.7 24.0002 42.7ZM24.0002 6.69997C14.5002 6.69997 6.8002 14.4 6.8002 23.9C6.8002 33.4 14.5002 41.1 24.0002 41.1C33.5002 41.1 41.2002 33.4 41.2002 23.9C41.2002 14.4 33.5002 6.69997 24.0002 6.69997Z" fill="#3F51B5"/>
    <path d="M32.0002 30.7H26.0002C25.6002 30.7 25.2002 30.4 25.2002 29.9C25.2002 29.4 25.5002 29.1 26.0002 29.1H32.0002C32.4002 29.1 32.8002 29.4 32.8002 29.9C32.8002 30.4 32.4002 30.7 32.0002 30.7Z" fill="#3F51B5"/>
    <path d="M15.9999 29.5999C15.7999 29.5999 15.5999 29.4999 15.3999 29.2999C15.0999 28.9999 15.1999 28.4999 15.4999 28.1999L20.9999 23.2999L15.4999 18.3999C15.1999 18.0999 15.1999 17.6999 15.3999 17.2999C15.6999 16.9999 16.0999 16.9999 16.4999 17.1999L22.6999 22.5999C22.8999 22.6999 22.9999 22.8999 22.9999 23.1999C22.9999 23.4999 22.8999 23.5999 22.6999 23.7999L16.4999 29.1999C16.3999 29.4999 16.1999 29.5999 15.9999 29.5999Z" fill="#3F51B5"/>
</svg>
