<svg width="50" height="48" viewBox="0 0 50 48" fill="none" xmlns="http://www.w3.org/2000/svg">
    <path d="M4.15039 9C4.15039 6.2 6.43289 4 9.33789 4C12.2429 4 14.5254 6.2 14.5254 9C14.5254 11.8 12.2429 14 9.33789 14C6.43289 14 4.15039 11.8 4.15039 9Z" fill="#FCFAFA"/>
    <path d="M9.33781 14.7C6.01781 14.7 3.32031 12.1 3.32031 8.89995C3.32031 5.69995 6.01781 3.19995 9.33781 3.19995C12.6578 3.19995 15.3553 5.79995 15.3553 8.99995C15.3553 12.2 12.6578 14.7 9.33781 14.7ZM9.33781 4.69995C6.95156 4.69995 4.98031 6.69995 4.98031 8.99995C4.98031 11.3 6.95156 13.2 9.33781 13.2C11.7241 13.2 13.6953 11.3 13.6953 8.99995C13.6953 6.69995 11.7241 4.69995 9.33781 4.69995Z" fill="#3F51B5"/>
    <path d="M22.7216 14.6999C22.5141 14.6999 22.4103 14.5999 22.2028 14.4999C21.8916 14.1999 21.7878 13.7999 22.0991 13.3999L25.9378 8.99989L22.0991 4.49989C21.7878 4.19989 21.8916 3.69989 22.2028 3.39989C22.5141 3.09989 23.0328 3.19989 23.3441 3.49989L27.5978 8.49989C27.8053 8.79989 27.8053 9.19989 27.5978 9.49989L23.3441 14.4999C23.1366 14.6999 22.9291 14.6999 22.7216 14.6999Z" fill="#3F51B5"/>
    <path d="M26.9753 9.7001H14.5253C14.1103 9.7001 13.6953 9.4001 13.6953 8.9001C13.6953 8.4001 14.0066 8.1001 14.5253 8.1001H26.9753C27.3903 8.1001 27.8053 8.4001 27.8053 8.9001C27.8053 9.4001 27.3903 9.7001 26.9753 9.7001Z" fill="#3F51B5"/>
    <path d="M40.4629 4C43.3679 4 45.6504 6.2 45.6504 9C45.6504 11.8 43.3679 14 40.4629 14C37.5579 14 35.2754 11.8 35.2754 9C35.2754 6.2 37.5579 4 40.4629 4Z" fill="#FCFAFA"/>
    <path d="M40.4628 14.7001C37.1428 14.7001 34.4453 12.1001 34.4453 8.9001C34.4453 5.7001 37.1428 3.1001 40.4628 3.1001C43.7828 3.1001 46.4803 5.7001 46.4803 8.9001C46.4803 12.1001 43.7828 14.7001 40.4628 14.7001ZM40.4628 4.7001C38.0766 4.7001 36.1053 6.6001 36.1053 8.9001C36.1053 11.2001 38.0766 13.1001 40.4628 13.1001C42.8491 13.1001 44.8203 11.2001 44.8203 8.9001C44.8203 6.6001 42.8491 4.7001 40.4628 4.7001Z" fill="#3F51B5"/>
    <path d="M40.4628 26.6999C40.2553 26.6999 40.1515 26.5999 39.944 26.4999L34.7565 22.3999C34.4453 22.0999 34.3415 21.6999 34.6528 21.2999C34.964 20.8999 35.379 20.8999 35.794 21.1999L40.4628 24.9999L45.1315 21.2999C45.4428 20.9999 45.9615 21.0999 46.2728 21.3999C46.584 21.6999 46.4803 22.1999 46.169 22.4999L40.9815 26.5999C40.774 26.6999 40.6703 26.6999 40.4628 26.6999Z" fill="#3F51B5"/>
    <path d="M40.4628 26.7C40.0478 26.7 39.6328 26.4 39.6328 25.9V14C39.6328 13.6 39.9441 13.2 40.4628 13.2C40.9816 13.2 41.2928 13.5 41.2928 14V26C41.2928 26.4 40.8778 26.7 40.4628 26.7Z" fill="#3F51B5"/>
    <path d="M45.6504 39C45.6504 41.8 43.3679 44 40.4629 44C37.5579 44 35.2754 41.8 35.2754 39C35.2754 36.2 37.5579 34 40.4629 34C43.3679 34 45.6504 36.2 45.6504 39Z" fill="#FCFAFA"/>
    <path d="M40.4628 44.7001C37.1428 44.7001 34.4453 42.1001 34.4453 38.9001C34.4453 35.7001 37.1428 33.1001 40.4628 33.1001C43.7828 33.1001 46.4803 35.7001 46.4803 38.9001C46.4803 42.1001 43.7828 44.7001 40.4628 44.7001ZM40.4628 34.7001C38.0766 34.7001 36.1053 36.6001 36.1053 38.9001C36.1053 41.2001 38.0766 43.1001 40.4628 43.1001C42.8491 43.1001 44.8203 41.2001 44.8203 38.9001C44.8203 36.6001 42.8491 34.7001 40.4628 34.7001Z" fill="#3F51B5"/>
    <path d="M27.0788 44.7C26.8713 44.7 26.6638 44.6 26.4563 44.4L22.2025 39.4C21.995 39.1 21.995 38.7 22.2025 38.4L26.4563 33.4C26.7675 33.1 27.1825 33 27.5975 33.3C27.9088 33.6 28.0125 34 27.7013 34.4L23.8625 39L27.7013 43.5C28.0125 43.8 27.9088 44.3 27.5975 44.6C27.4938 44.7 27.2863 44.7 27.0788 44.7Z" fill="#3F51B5"/>
    <path d="M35.2751 39.7001H22.8251C22.4101 39.7001 21.9951 39.4001 21.9951 38.9001C21.9951 38.4001 22.3064 38.1001 22.8251 38.1001H35.2751C35.6901 38.1001 36.1051 38.4001 36.1051 38.9001C36.1051 39.4001 35.6901 39.7001 35.2751 39.7001Z" fill="#3F51B5"/>
    <path d="M9.33789 44C6.43289 44 4.15039 41.8 4.15039 39C4.15039 36.2 6.43289 34 9.33789 34C12.2429 34 14.5254 36.2 14.5254 39C14.5254 41.8 12.2429 44 9.33789 44Z" fill="#FCFAFA"/>
    <path d="M9.33781 44.7001C6.01781 44.7001 3.32031 42.1001 3.32031 38.9001C3.32031 35.7001 6.01781 33.1001 9.33781 33.1001C12.6578 33.1001 15.3553 35.7001 15.3553 38.9001C15.3553 42.1001 12.6578 44.7001 9.33781 44.7001ZM9.33781 34.7001C6.95156 34.7001 4.98031 36.6001 4.98031 38.9001C4.98031 41.2001 6.95156 43.1001 9.33781 43.1001C11.7241 43.1001 13.6953 41.2001 13.6953 38.9001C13.6953 36.6001 11.7241 34.7001 9.33781 34.7001Z" fill="#3F51B5"/>
    <path d="M14.5253 26.9C14.3178 26.9 14.214 26.8 14.0065 26.7L9.33778 23L4.66903 26.7C4.35778 27 3.83903 26.9 3.52778 26.6C3.21653 26.3 3.32028 25.8 3.63153 25.5L8.81903 21.4C9.13028 21.2 9.54528 21.2 9.85653 21.4L15.044 25.5C15.3553 25.8 15.459 26.2 15.1478 26.6C14.9403 26.8 14.7328 26.9 14.5253 26.9Z" fill="#3F51B5"/>
    <path d="M9.33781 34.7C8.92281 34.7 8.50781 34.4 8.50781 33.9V22C8.50781 21.6 8.81906 21.2 9.33781 21.2C9.85656 21.2 10.1678 21.5 10.1678 22V34C10.1678 34.4 9.75281 34.7 9.33781 34.7Z" fill="#3F51B5"/>
</svg>
