<svg width="48" height="48" viewBox="0 0 48 48" fill="none" xmlns="http://www.w3.org/2000/svg">
    <path d="M39.9004 42.2V32.2H40.0004C43.3004 32.2 46.0004 29.5 46.0004 26.2C46.0004 22.9 43.3004 20.2 40.0004 20.2H39.8004V10.2H28.0004V10C28.0004 6.7 25.3004 4 22.0004 4C18.7004 4 16.0004 6.7 16.0004 10V10.2H3.90039V21.5H8.00039C10.5004 21.5 12.5004 23.5 12.5004 26C12.5004 28.5 10.5004 30.5 8.00039 30.5H3.90039V42.2H17.5004V38C17.5004 35.5 19.5004 33.5 22.0004 33.5C24.5004 33.5 26.5004 35.5 26.5004 38V42.2H39.9004Z" fill="#3F51B5"/>
    <path d="M40.0004 30.7H38.3004V40.7H28.0004V38C28.0004 34.7 25.3004 32 22.0004 32C18.7004 32 16.0004 34.7 16.0004 38V40.7H5.40039V32H8.00039C11.3004 32 14.0004 29.3 14.0004 26C14.0004 22.7 11.3004 20 8.00039 20H5.40039V11.7H6.00039H16.0004H17.5004V10.2V10C17.5004 7.5 19.5004 5.5 22.0004 5.5C24.5004 5.5 26.5004 7.5 26.5004 10V10.2V11.7H38.4004V21.7H40.0004C42.5004 21.7 44.5004 23.7 44.5004 26.2C44.5004 28.7 42.5004 30.7 40.0004 30.7Z" fill="#FCFAFA"/>
</svg>
