<svg width="48" height="48" viewBox="0 0 48 48" fill="none" xmlns="http://www.w3.org/2000/svg">
    <path d="M43.5996 6H3.59961V16H43.5996V6Z" fill="#FCFAFA"/>
    <path d="M41.6004 5.30005H5.60039C4.10039 5.30005 2.90039 6.50005 2.90039 8.00005V40C2.90039 41.5 4.10039 42.8 5.70039 42.8H41.7004C43.2004 42.8 44.5004 41.6 44.5004 40V8.00005C44.4004 6.50005 43.1004 5.30005 41.6004 5.30005ZM5.60039 6.80005H41.6004C42.3004 6.80005 42.8004 7.40005 42.8004 8.00005V15.2H4.40039V8.00005C4.40039 7.30005 4.90039 6.80005 5.60039 6.80005ZM41.6004 41.3H5.60039C4.90039 41.3 4.40039 40.7 4.40039 40.1V16.8H42.9004V40C42.9004 40.7001 42.3004 41.3 41.6004 41.3Z" fill="#3F51B5"/>
    <path d="M18.4002 25C18.1002 24.7 17.6002 24.7 17.3002 25C17.0002 25.3 17.0002 25.8 17.3002 26.1L20.3002 29.1L17.3002 32.1C17.0002 32.4 17.0002 32.9 17.3002 33.2C17.4002 33.3 17.6002 33.4 17.8002 33.4C18.0002 33.4 18.2002 33.3 18.3002 33.2L21.8002 29.7C22.1002 29.4 22.1002 28.9 21.8002 28.6L18.4002 25Z" fill="#3F51B5"/>
    <path d="M29.4006 31.7001H23.4006C23.0006 31.7001 22.6006 32.0001 22.6006 32.4001C22.6006 32.8001 22.9006 33.2001 23.4006 33.2001H29.4006C29.8006 33.2001 30.2006 32.9001 30.2006 32.4001C30.2006 31.9001 29.8006 31.7001 29.4006 31.7001Z" fill="#3F51B5"/>
    <circle cx="9" cy="11" r="1" fill="#3F51B5"/>
    <circle cx="14" cy="11" r="1" fill="#3F51B5"/>
    <circle cx="19" cy="11" r="1" fill="#3F51B5"/>
</svg>
