<svg width="50" height="48" viewBox="0 0 50 48" fill="none" xmlns="http://www.w3.org/2000/svg">
    <path d="M45.5461 31.0001L31.0211 7.7001C30.7098 7.2001 29.9836 7.2001 29.6723 7.7001L24.8998 15.2001L20.1273 7.6001C19.8161 7.1001 19.0898 7.1001 18.7786 7.6001L4.25359 31.0001C4.14984 31.2001 4.14984 31.5001 4.25359 31.8001C4.35734 32.0001 4.66859 32.2001 4.97984 32.2001H14.4211L9.75234 39.7001C9.64859 39.9001 9.64859 40.2001 9.75234 40.5001C9.85609 40.7001 10.1673 40.9001 10.4786 40.9001H39.4248C39.7361 40.9001 39.9436 40.8001 40.1511 40.5001C40.2548 40.3001 40.2548 40.0001 40.1511 39.7001L35.4823 32.2001H44.9236C45.2348 32.2001 45.4423 32.1001 45.6498 31.8001C45.6498 31.5001 45.6498 31.2001 45.5461 31.0001ZM6.32859 30.6001L19.5048 9.5001L23.9661 16.7001L15.2511 30.6001H6.32859ZM38.0761 39.3001H11.7236L16.1848 32.1001H33.6148L38.0761 39.3001ZM34.5486 30.6001L25.8336 16.7001L30.2948 9.5001L43.4711 30.6001H34.5486Z" fill="#3F51B5"/>
    <path d="M32.6816 30.6001H17.1191L24.9004 18.1001L32.6816 30.6001Z" fill="#FCFAFA"/>
</svg>
