<svg width="110" height="40" viewBox="0 0 110 40" fill="none" xmlns="http://www.w3.org/2000/svg">
    <path d="M34.5789 37.4352L39.4 26.1593H39.3864C39.5499 25.7986 39.6997 25.4245 39.8222 25.0505C41.0479 21.5768 41.1296 17.9162 40.1082 14.4559L37.044 2.7926C36.9895 2.51204 36.8942 2.24484 36.758 1.97764C36.472 1.41652 36.0498 0.935554 35.5186 0.588193C34.7151 0.0671504 33.7209 -0.10653 32.7812 0.0805104L21.0417 1.80396C18.958 2.00436 16.9152 2.55212 14.9813 3.47396C13.0883 4.38245 11.3995 5.57149 9.98316 7.00102L1.33514 15.0705C1.11724 15.2442 0.912956 15.4446 0.749529 15.6583C0.35458 16.1527 0.109439 16.7539 0.0413444 17.3684C-0.0812259 18.3303 0.21839 19.2789 0.831242 20.0137L8.63489 30.0605V30.0471C9.83335 31.5702 11.277 32.8928 12.9112 33.9616C14.3412 34.8835 15.8802 35.5915 17.4736 36.0725L17.4599 36.0859L29.8668 39.7732C30.2345 39.9068 30.6158 39.987 31.0244 39.987C31.6645 40.0004 32.3046 39.8534 32.863 39.5461C33.7073 39.1052 34.3202 38.3303 34.5789 37.4352ZM32.9447 2.29828C33.3941 2.08452 33.9252 2.13796 34.3066 2.3918C34.5108 2.5254 34.6743 2.69908 34.7832 2.9262C35.1101 3.5942 34.8377 4.40917 34.1431 4.72981C33.7209 4.93021 33.2579 4.89013 32.8766 4.68973C32.8493 4.66301 32.8221 4.64965 32.7812 4.62293L32.7676 4.63629L32.7812 4.62293C32.754 4.60957 32.7268 4.58285 32.6995 4.56949C32.5361 4.44925 32.3999 4.28893 32.3046 4.10189C31.9641 3.43388 32.2501 2.63228 32.9447 2.29828ZM2.49275 16.981C2.95579 16.3931 3.82741 16.2729 4.42664 16.7271C4.79435 17.0077 4.9714 17.4219 4.95778 17.8494C4.95778 17.9028 4.95778 17.9563 4.94416 18.0097C4.91692 18.2235 4.82159 18.4372 4.6854 18.6243C4.22235 19.2121 3.35074 19.3323 2.75151 18.8781C2.34294 18.5708 2.1659 18.1032 2.22037 17.6356C2.24761 17.4085 2.34294 17.1814 2.49275 16.981ZM10.1874 25.3444C6.78271 18.4773 9.69716 10.2208 16.6973 6.88078C21.3413 4.66301 26.6391 5.18405 30.6567 7.78926C32.6859 9.11191 34.3883 10.9556 35.5323 13.2535C38.937 20.1206 36.0225 28.3771 29.0224 31.7171C24.3784 33.9349 19.0806 33.4138 15.063 30.8086C13.0338 29.486 11.3314 27.6423 10.1874 25.3444ZM31.8007 37.6623C31.5964 37.7826 31.3513 37.836 31.0925 37.836C30.3298 37.8227 29.7306 37.1947 29.7442 36.4466C29.7578 35.9523 30.0438 35.5247 30.4524 35.2976C30.6567 35.1774 30.9018 35.1239 31.1606 35.1239C31.9232 35.1373 32.5225 35.7652 32.5089 36.5134C32.4952 37.0077 32.2092 37.4352 31.8007 37.6623ZM55.2933 25.1707V19.6931C55.2933 16.0859 53.1824 14.0952 49.3419 14.0952C45.9371 14.0952 43.7717 15.7652 43.69 15.832L43.5538 15.9389L45.0247 18.651L45.2153 18.5174C45.2289 18.504 47.0539 17.2348 49.0422 17.2348C50.6084 17.2348 51.4119 17.9563 51.4119 19.3991V19.653H50.7446C49.6823 19.653 47.6531 19.7465 45.9099 20.4012C43.7717 21.2028 42.6958 22.5655 42.6958 24.4626C42.6958 25.8253 43.2133 26.9609 44.1939 27.7492C45.0519 28.4439 46.2367 28.8313 47.5305 28.8313C49.7913 28.8313 51.0987 27.5755 51.6979 26.7605V26.8674C51.6979 27.8961 52.4334 28.5107 53.6863 28.5107H57.1727V25.5581H55.7019C55.4159 25.5581 55.2933 25.4379 55.2933 25.1707ZM48.4158 25.8788C47.1628 25.8788 46.5908 25.0371 46.5908 24.1954C46.5908 23.5675 47.0266 22.1112 51.0715 22.1112H51.4392V22.3651C51.4392 24.0217 50.1454 25.8788 48.4158 25.8788ZM69.743 24.4626C69.743 27.1079 67.3597 28.818 63.6553 28.818C60.809 28.818 57.7856 27.5889 57.7856 25.3177V23.5274H61.1495V24.5294C61.1495 25.3711 62.4569 25.7452 63.6826 25.7452C64.7312 25.7452 65.8616 25.4245 65.8616 24.5561C65.8616 23.7278 65.0853 23.4205 63.4919 22.8594C63.274 22.7792 63.0561 22.7124 62.8246 22.6189C61.1358 22.0444 58.2895 21.0692 58.2895 18.1834C58.2895 15.1373 61.3674 14.0685 63.9958 14.0685C66.1068 14.0685 69.2391 14.8835 69.2391 17.1146V19.0651H65.848V18.0899C65.848 17.5287 65.1262 17.168 63.9958 17.168C63.5736 17.168 62.1709 17.2482 62.1709 18.1967C62.1709 19.1587 63.383 19.5862 64.9491 20.0404C66.9784 20.6951 69.743 21.5635 69.743 24.4626ZM84.8055 25.5581H85.7997V28.5107H82.9942C81.823 28.5107 81.2374 28.337 80.6245 27.2281L78.105 22.9128C77.8871 22.5388 77.5603 22.4987 77.0836 22.4987H76.4708V25.5581H77.9825V28.5107H70.5738V25.5581H72.5894V11.9977H70.424V9.04511H76.4708V19.5996H78.0097L79.93 17.3684H78.5545V14.4158H85.6635V17.3684H83.7569L80.9105 20.6684C81.1557 20.842 81.5234 21.2028 81.8775 21.7906L83.8522 25.1707C84.0156 25.478 84.1655 25.5581 84.8055 25.5581ZM93.5353 14.0952C89.2453 14.0952 86.2491 17.1279 86.2491 21.4566C86.2491 25.7318 89.4904 28.818 93.9575 28.818C97.4984 28.818 99.6365 26.9342 99.7319 26.8541L99.8545 26.7472L98.3155 23.9816L98.1248 24.142C98.1112 24.1553 96.3816 25.5448 94.2026 25.5448C92.0508 25.5448 90.5119 24.2088 90.2395 22.138H99.8545L99.8681 21.9643C99.8681 21.9376 99.9498 21.2028 99.9498 20.7886C99.9498 18.9182 99.3642 17.2348 98.3019 16.0458C97.1579 14.7766 95.51 14.0952 93.5353 14.0952ZM93.4536 17.1279C94.8427 17.1279 95.8232 18.17 95.9458 19.7332H90.3348C90.7161 18.1166 91.901 17.1279 93.4536 17.1279ZM110.001 28.5241L109.837 28.5508C109.824 28.5508 109.374 28.6309 108.734 28.6309C107.699 28.6309 106.214 28.484 104.975 27.7492C103.463 26.8541 102.701 25.3577 102.701 23.2736V17.3684H100.563V14.4158H102.81V10.6884H106.582V14.4158H109.755V17.3684H106.582V22.9396C106.582 25.0772 108.203 25.3978 109.17 25.3978C109.537 25.3978 109.769 25.3711 109.783 25.3711L110.014 25.3444L110.001 28.5241ZM31.1334 28.4038L27.4018 28.4439L27.3881 27.335C26.5029 27.9362 24.8959 28.7645 22.6488 28.7913C22.6079 28.7913 22.567 28.7913 22.5262 28.7913C17.2965 28.7913 13.3062 24.7298 13.2517 19.2923C13.2108 16.7004 14.1642 14.2822 15.9346 12.492C17.7051 10.6884 20.1701 9.67303 22.8667 9.64631C22.9211 9.64631 22.9756 9.64631 23.0301 9.64631C27.4699 9.64631 29.8123 11.8374 29.9213 11.9309L30.2073 12.1981L28.1099 15.3778L27.7014 15.0171C27.6878 15.0037 25.8901 13.494 23.3025 13.494C23.2752 13.494 23.248 13.494 23.2208 13.494C19.7615 13.5341 17.5553 15.7519 17.5961 19.1453C17.637 22.5521 19.9114 24.9169 23.139 24.9169C23.1663 24.9169 23.1935 24.9169 23.2208 24.9169C25.2908 24.8901 26.7889 23.6877 27.2247 23.3003L27.2111 21.9108L24.4601 21.9376L24.4192 18.2502L31.0653 18.17L31.1334 28.4038Z" fill="#224c8c"/>
</svg>
