<svg width="511" height="140" viewBox="0 0 511 140" fill="none" xmlns="http://www.w3.org/2000/svg">
    <path d="M59.7316 136V104.626H61.4049V109.561C61.6025 109.342 61.785 109.11 61.9511 108.865C63.3486 105.917 66.2962 104.056 69.5143 104.092C73.3294 103.977 76.4297 105.413 78.2515 108.865C79.4109 111.01 80.0489 113.406 80.1122 115.853C80.1755 118.3 79.6624 120.726 78.6156 122.93C76.9183 126.799 72.7257 128.723 68.2373 128.017C66.8404 127.896 65.4956 127.421 64.3255 126.636C63.1554 125.851 62.1973 124.78 61.5388 123.521V135.999L59.7316 136ZM61.4049 115.724L61.7797 119.408C62.441 123.602 64.8786 126.079 68.7058 126.545C70.503 126.845 72.3471 126.503 73.9238 125.575C75.5004 124.648 76.712 123.193 77.352 121.459C78.8405 117.851 78.7308 113.767 77.0575 110.243C76.3744 108.689 75.2124 107.402 73.747 106.579C72.2815 105.755 70.5924 105.439 68.9347 105.678C67.3787 105.793 65.8966 106.399 64.6943 107.41C63.4919 108.421 62.629 109.787 62.2255 111.32C61.8691 112.77 61.5952 114.241 61.4049 115.723V115.724ZM114.278 119.988C114.024 122.197 112.99 124.237 111.368 125.729C109.746 127.221 107.647 128.063 105.46 128.098C98.4434 128.458 95.1504 123.719 94.627 118.25C94.263 115.28 94.737 112.266 95.9937 109.56C96.8683 107.703 98.3014 106.178 100.085 105.206C101.869 104.233 103.911 103.863 105.916 104.149C107.821 104.314 109.627 105.084 111.079 106.351C112.53 107.617 113.554 109.315 114.004 111.206C114.36 112.928 114.622 114.668 114.789 116.42H96.3605C96.0191 121.378 98.6388 125.365 102.352 126.326C106.977 127.483 110.93 125.445 112.365 120.973C112.684 119.825 113.265 119.663 114.29 119.988H114.278ZM96.3471 114.833H112.831C112.728 109.55 109.494 105.711 105.107 105.667C100.154 105.586 96.5626 109.271 96.3471 114.833ZM117.685 120.104H119.301C119.36 121.315 119.746 122.485 120.418 123.487C121.089 124.488 122.019 125.282 123.105 125.781C124.469 126.405 125.954 126.709 127.449 126.669C128.944 126.629 130.411 126.246 131.74 125.55C132.465 125.218 133.072 124.668 133.48 123.973C133.887 123.279 134.075 122.475 134.019 121.668C134.06 120.891 133.852 120.12 133.424 119.474C132.997 118.828 132.373 118.341 131.649 118.088C129.872 117.415 127.982 117.045 126.17 116.454C124.286 115.908 122.443 115.223 120.657 114.404C117.738 112.955 117.558 107.313 120.861 105.527C122.553 104.556 124.457 104.032 126.399 104.001C128.341 103.971 130.26 104.436 131.98 105.353C134.114 106.551 135.293 108.97 134.942 111.425H133.557C133.557 111.357 133.431 111.297 133.431 111.228C133.26 106.735 129.546 105.33 125.56 105.725C124.355 105.861 123.213 106.231 122.142 106.778C121.499 107.077 120.962 107.572 120.607 108.195C120.252 108.818 120.096 109.537 120.161 110.254C120.163 110.971 120.382 111.671 120.79 112.256C121.198 112.841 121.774 113.283 122.44 113.522C124.18 114.171 126.027 114.588 127.828 115.097L132.178 116.254C133.167 116.584 134.034 117.212 134.665 118.054C135.295 118.896 135.659 119.913 135.709 120.97C136.057 123.346 134.866 125.68 132.759 126.763C128.955 128.952 122.689 128.373 119.898 125.606C118.469 124.145 117.673 122.161 117.689 120.103L117.685 120.104ZM156.211 111.426H154.695C154.695 111.218 154.615 111.018 154.592 110.859C154.568 109.703 154.154 108.592 153.42 107.71C152.685 106.828 151.675 106.23 150.559 106.016C148.453 105.402 146.206 105.512 144.168 106.329C143.362 106.564 142.653 107.057 142.146 107.736C141.638 108.415 141.361 109.242 141.354 110.095C141.326 110.932 141.582 111.753 142.08 112.42C142.578 113.088 143.287 113.559 144.088 113.756L151.014 115.564C151.763 115.746 152.501 115.975 153.223 116.247C155.431 117.064 156.931 119.15 156.998 121.534C157.031 122.7 156.716 123.85 156.095 124.832C155.474 125.813 154.575 126.581 153.517 127.034C151.91 127.776 150.167 128.169 148.402 128.187C146.636 128.205 144.887 127.848 143.265 127.138C141.931 126.554 140.805 125.567 140.039 124.312C139.274 123.057 138.904 121.593 138.981 120.118H140.462C141.018 122.847 142.862 125.121 145.39 126.196C147.919 127.272 150.806 127.008 153.106 125.494C153.796 125.129 154.369 124.571 154.757 123.885C155.144 123.199 155.331 122.415 155.294 121.625C155.328 120.846 155.112 120.078 154.678 119.436C154.244 118.794 153.616 118.314 152.889 118.067C151.112 117.395 149.222 117.037 147.41 116.434C145.515 115.896 143.661 115.219 141.863 114.406C139.015 112.981 138.787 107.386 142.034 105.601C143.747 104.589 145.688 104.046 147.668 104.023C149.649 104.001 151.601 104.5 153.335 105.473C154.327 106.075 155.126 106.957 155.633 108.013C156.141 109.068 156.336 110.251 156.194 111.417L156.211 111.426ZM56.9781 127.532C56.3816 127.761 55.7232 127.761 55.1271 127.53C54.531 127.3 54.0385 126.855 53.7426 126.281L47.8526 117.997L46.9986 116.839L40.1636 126.293C39.885 126.843 39.4191 127.271 38.853 127.497C38.2869 127.723 37.6593 127.731 37.0874 127.521L45.8929 115.506L37.7005 104.65C38.916 104.204 40.2707 104.689 40.9467 105.808L47.0508 114.194L53.1911 105.84C53.4717 105.3 53.9379 104.883 54.5009 104.67C55.0639 104.456 55.6844 104.46 56.2445 104.682L53.0653 108.972L48.7589 114.672C48.6394 114.78 48.5437 114.913 48.4783 115.062C48.4128 115.211 48.3789 115.372 48.3789 115.535C48.3789 115.698 48.4128 115.859 48.4783 116.008C48.5437 116.157 48.6394 116.29 48.7589 116.398L56.9607 127.532H56.9781ZM94.3659 104.535V106.168C93.2137 106.092 92.0585 106.261 90.9748 106.667C89.8911 107.072 88.903 107.704 88.0742 108.522C87.2455 109.339 86.5945 110.325 86.1634 111.414C85.7322 112.503 85.5305 113.673 85.5711 114.846C85.5711 118.662 85.5711 122.477 85.5711 126.293V127.59H83.942V104.637H85.5484V109.341C87.5188 105.91 90.5602 104.637 94.3766 104.544L94.3659 104.535ZM16.0027 115.357L16.7202 111.753C18.6906 104.627 26.7224 101.662 32.2483 106.076C35.4837 108.66 36.2909 112.321 36.133 116.446H17.9049C17.6104 123.814 22.8377 128.263 29.5242 125.992C31.7275 125.175 33.3861 123.313 33.9323 120.998C34.2857 119.841 34.8693 119.642 35.9375 119.977C35.7594 121.388 35.269 122.739 34.5034 123.929C33.7379 125.119 32.7169 126.118 31.5174 126.849C29.5356 127.951 27.2619 128.388 25.0214 128.096C22.7808 127.805 20.6882 126.801 19.0427 125.227C17.4149 123.366 16.4324 121.013 16.241 118.529C16.241 118.12 16.1071 117.739 16.0134 117.372C16.0045 116.685 16 116.013 16 115.357H16.0027ZM17.9276 114.858H34.4115C34.3084 109.518 30.994 105.729 26.5738 105.693C21.653 105.625 18.1324 109.331 17.9156 114.835L17.9276 114.858Z" fill="#FCFAFA"/>
    <path d="M21.5156 14.4691H38.6425V15.8355H23.0856V26.1195H37.7148V27.4859H23.0856V38.7767H38.8209V40.1431H21.5156V14.4691ZM40.1768 14.4691H41.9965L50.0604 25.7599L58.3027 14.4691L69.5136 0.127197L51.0952 26.9465L60.5863 40.1431H58.6952L50.0604 28.1331L41.3899 40.1431H39.5345L49.097 26.9465L40.1768 14.4691ZM61.2643 15.8355V14.4691H80.7818V15.8355H71.7902V40.1431H70.2202V15.8355H61.2643Z" fill="#FCFAFA"/>
    <path d="M0.0888672 14.469H2.05132L29.1124 55.1161L17.9294 40.143L1.73019 16.4107L1.65883 40.143H0.0888672V14.469Z" fill="#FCFAFA"/>
    <path d="M80.6228 38.3644C80.9474 38.3644 81.1842 38.1149 81.1842 37.7926C81.1842 37.4702 80.9474 37.2207 80.6228 37.2207C80.3021 37.2207 80.0615 37.4702 80.0615 37.7926C80.0615 38.1149 80.3021 38.3644 80.6228 38.3644ZM82.1655 36.8599C82.1655 37.8117 82.849 38.4335 83.8457 38.4335C84.9072 38.4335 85.5487 37.7926 85.5487 36.6796V32.761H84.6934V36.6757C84.6934 37.2936 84.3841 37.6237 83.838 37.6237C83.3493 37.6237 83.0171 37.3166 83.0056 36.8599H82.1655ZM86.6676 36.81C86.7286 37.8002 87.5496 38.4335 88.7716 38.4335C90.0775 38.4335 90.8946 37.7695 90.8946 36.7103C90.8946 35.8774 90.4288 35.4169 89.2985 35.1521L88.6914 35.0024C87.9735 34.8335 87.6833 34.6071 87.6833 34.2118C87.6833 33.7128 88.1339 33.3866 88.8097 33.3866C89.4512 33.3866 89.8942 33.7052 89.9744 34.2156H90.8068C90.7572 33.283 89.94 32.6267 88.8212 32.6267C87.6184 32.6267 86.8165 33.283 86.8165 34.2693C86.8165 35.083 87.2709 35.5666 88.2675 35.8007L88.9777 35.9734C89.7071 36.1461 90.0278 36.3994 90.0278 36.8216C90.0278 37.3128 89.5238 37.6697 88.8365 37.6697C88.0995 37.6697 87.5878 37.3358 87.5153 36.81H86.6676Z" fill="#FCFAFA"/>
    <path d="M250.794 123.936C252.381 123.775 253.585 122.434 253.53 120.826C253.476 119.217 252.108 117.93 250.466 117.93H250.357C248.66 117.984 247.347 119.378 247.402 121.04C247.457 121.845 247.785 122.542 248.277 123.024C246.417 126.617 243.572 129.244 239.303 131.443C236.403 132.944 233.394 133.48 230.384 133.105C227.922 132.783 226.007 131.711 224.803 129.941C223.052 127.314 222.888 124.472 224.365 121.63C225.405 119.593 227.046 118.091 228.086 117.341C227.867 116.644 227.539 115.464 227.375 114.606C219.44 120.236 220.261 127.85 222.669 131.443C224.474 134.123 228.141 135.786 232.19 135.786C233.284 135.786 234.379 135.678 235.473 135.41C242.477 134.07 247.785 129.995 250.794 123.936Z" fill="#FCFAFA"/>
    <path d="M260.425 117.287C256.266 112.515 250.138 109.887 243.133 109.887H242.258C241.765 108.922 240.726 108.279 239.577 108.279H239.467C237.771 108.332 236.458 109.727 236.512 111.389C236.567 112.997 237.935 114.284 239.577 114.284H239.686C240.89 114.231 241.93 113.48 242.367 112.461H243.352C247.511 112.461 251.451 113.641 255.008 115.946C257.743 117.716 259.713 120.021 260.808 122.81C261.738 125.062 261.683 127.26 260.698 129.137C259.166 131.979 256.594 133.534 253.202 133.534C251.013 133.534 248.934 132.89 247.839 132.408C247.237 132.944 246.143 133.802 245.377 134.338C247.73 135.41 250.138 136 252.436 136C257.689 136 261.574 133.158 263.051 130.316C264.638 127.207 264.529 121.845 260.425 117.287Z" fill="#FCFAFA"/>
    <path d="M232.627 124.847C232.682 126.456 234.05 127.743 235.692 127.743H235.801C237.497 127.689 238.811 126.295 238.756 124.633C238.701 123.024 237.333 121.737 235.692 121.737H235.582C235.473 121.737 235.309 121.737 235.199 121.791C232.956 118.145 232.025 114.177 232.354 109.887C232.573 106.67 233.667 103.882 235.582 101.576C237.169 99.5925 240.233 98.6274 242.313 98.5737C248.113 98.4665 250.575 105.544 250.739 108.386C251.451 108.547 252.655 108.922 253.475 109.19C252.819 100.504 247.347 96 242.094 96C237.169 96 232.627 99.4853 230.822 104.633C228.305 111.496 229.946 118.091 233.01 123.292C232.737 123.668 232.573 124.258 232.627 124.847Z" fill="#FCFAFA"/>
    <path d="M401.88 27.6989C401.88 25.2901 400.196 23.2635 397.934 22.6844L402.999 8H377.897L382.974 22.7307C380.783 23.3561 379.169 25.348 379.169 27.7105C379.169 29.4476 380.053 30.9878 381.396 31.9375C380.865 32.6786 380.253 33.3619 379.558 34.0104C378.25 35.2148 376.801 36.1413 375.235 36.7551C373.821 35.817 373.209 34.161 373.762 32.6786C375.918 32.0301 377.485 30.0498 377.485 27.7221C377.485 24.8616 375.117 22.5455 372.219 22.5455C369.31 22.5455 366.942 24.8732 366.942 27.7336C366.942 29.1465 367.531 30.4435 368.473 31.37C368.391 31.5321 368.308 31.6943 368.226 31.868C367.437 33.4661 366.541 35.2727 366.2 37.2994C365.516 41.3526 366.636 44.6068 369.333 46.4482C370.853 47.4789 372.525 48 374.328 48C377.426 48 380.571 46.4713 383.61 44.989C385.778 43.9352 388.016 42.835 390.218 42.3023C391.031 42.1054 391.879 41.9896 392.775 41.8622C394.589 41.6074 396.462 41.3411 398.146 40.3799C400.113 39.2565 401.456 37.3804 401.845 35.2264C402.14 33.5704 401.845 31.9027 401.091 30.4435C401.598 29.6445 401.88 28.7064 401.88 27.6989ZM399.583 27.6989C399.583 29.3086 398.252 30.6173 396.615 30.6173C394.977 30.6173 393.646 29.3086 393.646 27.6989C393.646 27.1778 393.788 26.6798 394.035 26.2513C394.129 26.0892 394.247 25.927 394.365 25.7881C394.483 25.6491 394.624 25.5217 394.777 25.4059L394.789 25.3943C394.883 25.3248 394.989 25.2554 395.095 25.1859C395.095 25.1859 395.107 25.1859 395.107 25.1743C395.154 25.1511 395.201 25.1164 395.248 25.0932C395.26 25.0932 395.272 25.0816 395.284 25.0816C395.331 25.0585 395.39 25.0353 395.449 25.0122C395.508 24.989 395.566 24.9658 395.614 24.9427C395.625 24.9427 395.637 24.9311 395.649 24.9311C395.696 24.9195 395.743 24.8964 395.79 24.8848C395.802 24.8848 395.826 24.8732 395.837 24.8732C395.896 24.8616 395.943 24.85 396.002 24.8384H396.014L396.191 24.8037C396.203 24.8037 396.226 24.8037 396.238 24.7921C396.285 24.7921 396.332 24.7805 396.379 24.7805H396.438C396.497 24.7805 396.556 24.769 396.627 24.769H396.78C396.827 24.769 396.862 24.769 396.909 24.7805H396.933C397.027 24.7921 397.121 24.8037 397.216 24.8269C398.559 25.1048 399.583 26.286 399.583 27.6989ZM381.183 10.3162H399.713L395.46 22.6497C395.284 22.6844 395.107 22.7423 394.93 22.8002L390.454 13.8251L385.966 22.7423C385.789 22.6844 385.601 22.6497 385.412 22.6149L381.183 10.3162ZM389.606 26.6914C389.382 25.6028 388.817 24.63 388.016 23.912L390.454 19.0712L392.916 24.0162C392.186 24.7342 391.656 25.6491 391.444 26.6914H389.606ZM383.704 24.8616C383.763 24.85 383.81 24.8384 383.869 24.8269H383.905C383.952 24.8153 383.999 24.8153 384.046 24.8037H384.093C384.14 24.8037 384.176 24.7921 384.223 24.7921H384.682C384.729 24.7921 384.764 24.8037 384.8 24.8037C384.823 24.8037 384.835 24.8037 384.859 24.8153C384.906 24.8269 384.941 24.8269 384.988 24.8384C385 24.8384 385.012 24.8384 385.035 24.85C385.094 24.8616 385.153 24.8732 385.2 24.8848H385.212C385.259 24.8964 385.306 24.9079 385.353 24.9311C385.365 24.9311 385.377 24.9427 385.401 24.9427C385.436 24.9543 385.483 24.9658 385.518 24.989C385.53 24.989 385.542 25.0006 385.554 25.0006C385.601 25.0237 385.648 25.0353 385.695 25.0585H385.707C385.766 25.0816 385.813 25.1048 385.86 25.1395H385.872C385.919 25.1627 385.966 25.1975 386.013 25.2206C386.025 25.2206 386.025 25.2322 386.037 25.2322C386.084 25.2554 386.119 25.2901 386.166 25.3133L386.178 25.3248C386.319 25.4291 386.449 25.5449 386.579 25.6607L386.59 25.6723C386.708 25.7997 386.826 25.9386 386.92 26.0892C387.226 26.5524 387.403 27.0967 387.403 27.6873C387.403 29.297 386.072 30.6057 384.435 30.6057C382.797 30.6057 381.466 29.297 381.466 27.6873C381.454 26.3324 382.409 25.1859 383.704 24.8616ZM372.113 24.7805C373.75 24.7805 375.082 26.0892 375.082 27.6989C375.082 29.3086 373.75 30.6173 372.113 30.6173C370.476 30.6173 369.145 29.3086 369.145 27.6989C369.145 26.0892 370.476 24.7805 372.113 24.7805ZM399.513 34.8211C399.254 36.3034 398.323 37.6005 396.956 38.3764C395.672 39.106 394.094 39.3376 392.433 39.5692C391.526 39.6966 390.572 39.8356 389.653 40.0556C387.203 40.6462 384.847 41.8043 382.562 42.916C379.64 44.3405 376.884 45.6838 374.328 45.6838C372.997 45.6838 371.807 45.3133 370.676 44.5374C368.084 42.7771 368.214 39.4766 368.52 37.67C368.803 35.9792 369.592 34.3926 370.346 32.8755C370.393 32.7829 370.429 32.7018 370.476 32.6091C370.735 32.7018 371.006 32.7713 371.289 32.8176C370.841 35.2727 372.113 37.8089 374.587 39.0596L375.034 39.2913L375.517 39.1175C377.579 38.3995 379.487 37.2299 381.172 35.6665C382.126 34.7863 382.939 33.8367 383.622 32.806C383.893 32.8523 384.164 32.8639 384.435 32.8639C386.885 32.8639 388.946 31.2079 389.535 28.9844H391.514C392.103 31.2195 394.165 32.8639 396.615 32.8639C397.593 32.8639 398.5 32.5976 399.277 32.1459C399.583 33.0145 399.678 33.9178 399.513 34.8211Z" fill="#FCFAFA"/>
    <path d="M488.969 4.95035C489.278 4.95035 489.556 5.03957 489.834 5.18828L509.036 15.8655C509.56 16.1629 509.9 16.728 509.9 17.3228V38.6772C509.9 39.272 509.56 39.8371 509.036 40.1345L489.834 50.8117C489.556 50.9604 489.278 51.0497 488.969 51.0497C488.661 51.0497 488.352 50.9604 488.105 50.8117L468.903 40.1345C468.378 39.8371 468.038 39.272 468.038 38.6772V17.3228C468.038 16.728 468.378 16.1629 468.903 15.8655L488.105 5.18828C488.383 5.03957 488.691 4.95035 488.969 4.95035ZM488.969 4.05811C488.506 4.05811 488.043 4.17707 487.642 4.415L468.44 15.0922C467.606 15.5383 467.112 16.4008 467.112 17.2931V38.6475C467.112 39.5694 467.606 40.4022 468.44 40.8483L487.642 51.5255C488.043 51.7635 488.506 51.8824 488.969 51.8824C489.432 51.8824 489.895 51.7635 490.297 51.5255L509.499 40.8483C510.332 40.4022 510.826 39.5397 510.826 38.6475V17.2931C510.826 16.3711 510.332 15.5383 509.499 15.0922L490.297 4.415C489.895 4.17707 489.432 4.05811 488.969 4.05811Z" fill="#FCFAFA"/>
    <path d="M491.702 17.2933C491.702 17.1446 491.578 16.9958 491.393 16.9958H488.491H485.589C485.435 16.9958 485.28 17.1148 485.28 17.2933C485.28 18.3045 485.435 21.7842 486.978 23.4795C487.04 23.539 487.102 23.5687 487.194 23.5687H489.787C489.88 23.5687 489.942 23.539 490.004 23.4795C491.547 21.814 491.702 18.3342 491.702 17.2933ZM489.417 22.7062H487.596C487.503 22.7062 487.441 22.6765 487.38 22.617C486.33 21.4273 486.206 19.048 486.176 18.2153C486.176 18.0665 486.299 17.9178 486.484 17.9178H488.522H490.559C490.714 17.9178 490.868 18.0368 490.868 18.2153C490.868 19.048 490.714 21.3976 489.664 22.617C489.571 22.6765 489.51 22.7062 489.417 22.7062Z" fill="#FCFAFA"/>
    <path d="M489.078 16.401C489.078 16.401 490.189 15.7764 489.51 14.6463C489.108 14.0514 488.923 13.5458 489.078 13.3376C488.676 13.8135 487.997 14.3191 488.738 15.3898C488.985 15.6575 489.108 16.2226 489.078 16.401Z" fill="#FCFAFA"/>
    <path d="M487.843 16.4904C487.843 16.4904 488.584 16.074 488.121 15.3007C487.843 14.9141 487.719 14.5572 487.843 14.4382C487.565 14.7654 487.133 15.0925 487.627 15.8361C487.781 15.9848 487.843 16.3714 487.843 16.4904Z" fill="#FCFAFA"/>
    <path d="M490.374 19.9402C490.251 20.7432 490.004 21.6652 489.479 22.26C489.417 22.3195 489.355 22.3492 489.294 22.3492H487.75C487.688 22.3492 487.596 22.3195 487.565 22.26C487.194 21.8139 486.947 21.2191 486.793 20.5945C486.793 20.5945 488.584 20.8324 489.602 20.4755C490.343 20.2079 490.374 19.9402 490.374 19.9402Z" fill="#FCFAFA"/>
    <path d="M470.091 24.7581H471.233L473.116 27.5538L474.999 24.7581H476.142V30.7064H475.061V26.4533L473.116 29.249H473.085L471.171 26.4831V30.7361H470.091V24.7581Z" fill="#FCFAFA"/>
    <path d="M481.729 30.7957C481.266 30.7957 480.834 30.7064 480.433 30.5577C480.031 30.409 479.692 30.1711 479.414 29.9034C479.136 29.6357 478.92 29.3086 478.766 28.9219C478.611 28.565 478.519 28.1487 478.519 27.7323V27.7025C478.519 27.2862 478.611 26.8995 478.766 26.5129C478.92 26.156 479.136 25.8288 479.445 25.5314C479.723 25.2637 480.062 25.0258 480.463 24.8771C480.865 24.6986 481.297 24.6392 481.76 24.6392C482.223 24.6392 482.655 24.7284 483.057 24.8771C483.458 25.0258 483.798 25.2637 484.075 25.5314C484.353 25.7991 484.569 26.1262 484.724 26.5129C484.878 26.8698 484.971 27.2862 484.971 27.7025V27.7323C484.971 28.1487 484.878 28.5353 484.724 28.9219C484.569 29.2788 484.353 29.606 484.045 29.9034C483.767 30.1711 483.427 30.409 483.026 30.5577C482.624 30.7362 482.192 30.7957 481.729 30.7957ZM481.729 29.8439C482.038 29.8439 482.316 29.7844 482.563 29.6655C482.81 29.5465 483.026 29.3978 483.211 29.2193C483.396 29.0409 483.52 28.803 483.643 28.565C483.736 28.2974 483.798 28.0297 483.798 27.762V27.7323C483.798 27.4349 483.736 27.1672 483.643 26.8995C483.551 26.6318 483.396 26.4236 483.211 26.2155C483.026 26.037 482.81 25.8883 482.563 25.7693C482.316 25.6504 482.038 25.5909 481.729 25.5909C481.42 25.5909 481.143 25.6504 480.896 25.7693C480.649 25.8883 480.433 26.037 480.247 26.2155C480.062 26.3939 479.939 26.6318 479.815 26.8698C479.723 27.1374 479.661 27.4051 479.661 27.6728V27.7025C479.661 27.9999 479.723 28.2676 479.815 28.5353C479.908 28.803 480.062 29.0112 480.247 29.2193C480.433 29.3978 480.649 29.5465 480.896 29.6655C481.143 29.7844 481.451 29.8439 481.729 29.8439Z" fill="#FCFAFA"/>
    <path d="M490.188 30.7957C489.725 30.7957 489.324 30.7064 488.953 30.5577C488.583 30.409 488.243 30.1711 487.966 29.9034C487.688 29.6357 487.472 29.3086 487.317 28.9219C487.163 28.5353 487.07 28.1487 487.07 27.7323V27.7025C487.07 27.2862 487.163 26.8698 487.317 26.5129C487.472 26.156 487.688 25.8288 487.966 25.5314C488.243 25.2637 488.583 25.0258 488.984 24.8771C489.386 24.7284 489.787 24.6392 490.281 24.6392C490.559 24.6392 490.806 24.6689 491.053 24.6986C491.3 24.7581 491.485 24.8176 491.701 24.8771C491.886 24.9663 492.071 25.0555 492.226 25.1745C492.38 25.2935 492.535 25.4124 492.689 25.5611L491.979 26.3344C491.732 26.1262 491.485 25.9478 491.207 25.7991C490.929 25.6504 490.621 25.5909 490.25 25.5909C489.941 25.5909 489.694 25.6504 489.447 25.7693C489.2 25.8883 488.984 26.037 488.799 26.2155C488.614 26.3939 488.49 26.6318 488.367 26.8698C488.274 27.1374 488.213 27.4051 488.213 27.6728V27.7025C488.213 27.9999 488.274 28.2676 488.367 28.5353C488.46 28.803 488.614 29.0112 488.799 29.2193C488.984 29.3978 489.2 29.5762 489.447 29.6655C489.694 29.7547 489.972 29.8439 490.25 29.8439C490.621 29.8439 490.96 29.7844 491.207 29.6357C491.454 29.487 491.732 29.3086 492.01 29.0706L492.72 29.7547C492.565 29.9331 492.411 30.0521 492.226 30.2008C492.041 30.3495 491.855 30.4388 491.67 30.528C491.485 30.6172 491.238 30.7064 491.022 30.7362C490.744 30.7957 490.466 30.7957 490.188 30.7957Z" fill="#FCFAFA"/>
    <path d="M494.881 24.7581H495.961V27.2266H498.925V24.7581H500.006V30.7064H498.925V28.2081H495.961V30.7064H494.881V24.7581Z" fill="#FCFAFA"/>
    <path d="M504.79 24.7283H505.778L508.494 30.7063H507.352L506.735 29.2787H503.833L503.185 30.7063H502.073L504.79 24.7283ZM506.333 28.3567L505.284 25.9774L504.234 28.3567H506.333Z" fill="#FCFAFA"/>
    <path d="M508.68 32.5801H469.319V32.9072H508.68V32.5801Z" fill="#FCFAFA"/>
    <path d="M508.68 21.3975H491.948C491.948 21.5164 491.917 21.6057 491.917 21.7246H508.68V21.3975Z" fill="#FCFAFA"/>
    <path d="M469.319 21.3975V21.7246H485.095C485.095 21.6057 485.064 21.5164 485.064 21.3975H469.319Z" fill="#FCFAFA"/>
    <path d="M342.627 126L340.52 125.36L340.413 99.8667L335.56 102.187L335.293 123.867L333.56 123.333L333.427 103.2L329.267 105.2V126.533L348.387 135.733V96L342.84 98.6667L342.627 126Z" fill="#FCFAFA"/>
    <path d="M350.786 96.7466V114.56L375.453 114.987V104.347L350.786 96.7466ZM356.306 105.547L371.426 108.453V110.16L356.306 108.293V105.547Z" fill="#FCFAFA"/>
    <path d="M350.786 117.173V135.013L375.453 127.387V116.747L350.786 117.173ZM356.306 123.307L371.426 121.547V123.253L356.306 126.053V123.307Z" fill="#FCFAFA"/>
    <path d="M425.561 111.573C424.841 110.88 423.667 110.533 422.014 110.533H417.801C416.147 110.533 414.974 110.88 414.281 111.573C413.561 112.267 413.214 113.253 413.214 114.56V122.693C413.214 124 413.561 124.987 414.281 125.68C415.001 126.373 416.174 126.72 417.801 126.72H422.041C423.694 126.72 424.867 126.373 425.587 125.68C426.307 124.987 426.654 124 426.654 122.693V114.56C426.627 113.253 426.281 112.267 425.561 111.573ZM421.214 122.16C421.214 122.64 420.947 122.88 420.414 122.88H419.401C418.867 122.88 418.601 122.64 418.601 122.16V115.067C418.601 114.587 418.867 114.347 419.401 114.347H420.387C420.921 114.347 421.187 114.587 421.187 115.067V122.16H421.214Z" fill="#FCFAFA"/>
    <path d="M437.987 110.373H438.467V115.173H436.627C435.267 115.173 434.574 115.92 434.574 117.386V126.72H429.054V110.533H434.467V113.04C434.654 112.213 435.027 111.573 435.64 111.093C436.254 110.613 437.054 110.373 437.987 110.373Z" fill="#FCFAFA"/>
    <path d="M445.64 126.72H440.12V105.013H445.64V117.893L448.68 110.533H454.387L450.92 118.507L454.387 126.72H448.653L445.64 119.173V126.72Z" fill="#FCFAFA"/>
    <path d="M464.067 110.533H464.947C467.827 110.533 469.267 111.867 469.267 114.56V122.693C469.267 125.36 467.827 126.72 464.947 126.72H464.067C462.413 126.72 461.427 126.027 461.107 124.64V126.72H455.693V105.013H461.213V112.267C461.64 111.12 462.573 110.533 464.067 110.533ZM463.747 121.947V115.307C463.747 114.827 463.48 114.587 462.947 114.587H462.12C461.533 114.587 461.24 114.907 461.24 115.573V121.707C461.24 122.347 461.533 122.693 462.12 122.693H462.947C463.48 122.667 463.747 122.427 463.747 121.947Z" fill="#FCFAFA"/>
    <path d="M476.147 110.533H480.361C482.014 110.533 483.187 110.88 483.907 111.573C484.627 112.267 484.974 113.253 484.974 114.56V122.693C484.974 124 484.627 124.987 483.907 125.68C483.187 126.373 482.014 126.72 480.361 126.72H476.147C474.494 126.72 473.321 126.373 472.627 125.68C471.907 124.987 471.561 124 471.561 122.693V114.56C471.561 113.253 471.907 112.267 472.627 111.573C473.347 110.88 474.521 110.533 476.147 110.533ZM479.561 122.16V115.067C479.561 114.587 479.294 114.347 478.761 114.347H477.801C477.267 114.347 477.001 114.587 477.001 115.067V122.16C477.001 122.64 477.267 122.88 477.801 122.88H478.761C479.294 122.88 479.561 122.64 479.561 122.16Z" fill="#FCFAFA"/>
    <path d="M495.907 118.347L499.934 126.72H494.361L492.601 121.92L491.001 126.72H485.614L489.321 118.453L485.454 110.533H491.214L492.601 115.04L493.987 110.533H499.454L495.907 118.347Z" fill="#FCFAFA"/>
    <path d="M410.6 122.693V105.893H405.08V121.946C405.08 122.426 404.814 122.666 404.28 122.666H403.134C402.6 122.666 402.334 122.426 402.334 121.946V105.893H396.974V121.946C396.974 122.426 396.707 122.666 396.174 122.666H395.027C394.494 122.666 394.227 122.426 394.227 121.946V105.893H388.707V122.693C388.707 124 389.054 124.986 389.774 125.68C390.494 126.373 391.667 126.72 393.32 126.72H394.227H396.68C397.8 126.72 398.894 126.346 399.667 125.493C400.44 126.346 401.534 126.72 402.654 126.72H405.107H406.014C407.667 126.72 408.84 126.373 409.56 125.68C410.254 124.986 410.6 124 410.6 122.693Z" fill="#FCFAFA"/>
    <path d="M299.867 12.248L302 6.65498L301.907 6.30849L280.807 11.9373C283.057 8.64228 282.284 6 282.284 6C282.284 6 275.546 10.3569 270.45 10.2429C265.355 10.1288 263.712 8.75182 255.899 11.2756C248.085 13.7972 245.878 21.5385 243.612 23.2017C241.347 24.8648 234.24 30.2813 234.24 30.2813L234.256 30.3774L240.663 28.3119C240.663 28.3119 238.905 29.9884 235.172 35.083C235.172 35.083 235.108 35.0226 234.998 34.9198L235.004 34.9556C235.004 34.9556 238.005 39.5986 240.95 38.7402C241.246 38.653 241.579 38.5099 241.943 38.3221C243.129 38.9905 244.677 39.6478 246.385 39.8288C246.385 39.8288 245.228 38.4674 244.264 36.9183C244.524 36.7484 244.791 36.5718 245.063 36.393L244.937 36.4824L247.377 37.39L247.107 35.0674C247.116 35.0629 247.123 35.0562 247.132 35.0517L249.529 35.9436L249.231 33.8312C249.536 33.6702 249.838 33.5182 250.141 33.3774L252.64 23.8052L262.975 16.6675L262.153 18.7599C260.058 23.9774 256.124 25.2091 256.124 25.2091L254.481 25.8395C253.26 27.3015 252.746 27.6614 252.327 32.5681C253.311 32.3178 254.252 32.2574 255.104 32.4899C259.52 33.6948 261.05 39.0822 259.86 40.5732C259.562 40.9465 258.853 41.5836 257.959 42.3325H256.166L256.142 43.8034C256.08 43.8526 256.018 43.8996 255.958 43.9487H254.135L254.113 45.3839C253.951 45.5091 253.79 45.6298 253.636 45.7483C251.923 45.784 249.752 44.2706 249.752 44.2706C249.752 45.6477 250.885 47.7668 250.885 47.7668C250.885 47.7668 250.96 47.7311 251.086 47.6685C250.975 47.7512 250.914 47.7959 250.914 47.7959C250.914 47.7959 255.499 50.892 258.387 49.7452C260.955 48.7258 267.602 43.4189 273.34 40.9063L290.705 36.2745L292.994 30.2679L279.761 33.7976V28.4035L295.288 24.2613L297.578 18.2546L279.765 23.0072V17.6108L299.867 12.248ZM268.353 23.6823L272.473 22.5824L272.528 22.7903L271.243 26.1614L266.973 27.3015L268.353 23.6823ZM269.775 30.8983L265.505 32.0383L266.885 28.4169L271.005 27.3171L271.06 27.525L269.775 30.8983ZM275.338 29.6889L271.069 30.829L272.448 27.2076L276.568 26.1077L276.623 26.3156L275.338 29.6889Z" fill="#FCFAFA"/>
    <path d="M158.199 19.5086L158.334 18.8201C158.709 16.8238 159.458 15.1003 160.851 13.7926C161.871 12.8291 163.368 12.2434 165.068 12.2434C166.156 12.2434 166.973 12.4155 167.483 12.5877L166.531 15.8939C166.123 15.7553 165.75 15.6882 165.204 15.6882C163.674 15.6882 162.789 17.3067 162.518 18.7865L162.381 19.5086H165.613L165.034 22.5398H161.871L159.252 36.3503H155L157.618 22.5398" fill="#FCFAFA"/>
    <path d="M172.111 36.3503C172.144 35.4562 172.212 34.524 172.245 33.527H172.144C170.817 35.7669 169.218 36.6275 167.891 36.6275C165.476 36.6275 164.286 34.5262 164.286 31.5643C164.286 26.4675 166.803 19.2358 173.945 19.2358C175.612 19.2358 177.279 19.5108 178.299 19.9244L176.464 29.2886C176.056 31.2513 175.749 34.524 175.784 36.3481H172.111V36.3503ZM173.641 22.5398C173.301 22.4705 172.994 22.437 172.757 22.437C169.969 22.437 168.472 28.0502 168.437 30.5315C168.437 32.0136 168.642 33.0799 169.695 33.0799C170.852 33.0799 171.941 31.1507 172.552 28.0859L173.641 22.5398Z" fill="#FCFAFA"/>
    <path d="M178.811 32.6644C179.491 33.0444 180.308 33.3864 181.498 33.3529C182.723 33.3194 183.403 32.5258 183.403 31.4595C183.403 30.5295 182.961 29.8746 181.805 28.9446C180.376 27.7732 179.696 26.2934 179.696 24.8471C179.696 21.7465 182.076 19.2339 185.854 19.2339C187.317 19.2339 188.371 19.5088 188.982 19.8531L188.064 22.9872C187.587 22.7122 186.805 22.4708 186.092 22.4708C184.732 22.4708 183.882 23.1928 183.882 24.3307C183.882 25.1913 184.359 25.7077 185.141 26.3627C187.011 27.809 187.624 29.461 187.624 30.771C187.624 34.4907 185.072 36.5563 181.264 36.5563C179.734 36.5563 178.371 36.1092 177.793 35.6956L178.811 32.6644Z" fill="#FCFAFA"/>
    <path d="M197.586 14.9617L196.736 19.5085H203.267L202.721 22.5398H196.157L194.694 30.3571C194.592 30.9428 194.557 31.4592 194.557 31.7699C194.557 32.8027 195.067 33.1827 195.851 33.1827C196.157 33.1827 196.599 33.1827 197.007 33.1134L196.497 36.3503C195.716 36.5582 194.762 36.6253 193.945 36.6253C191.395 36.6253 190.135 35.1789 190.135 32.9055C190.135 32.1477 190.271 31.2178 190.441 30.3906L191.905 22.5376H189.967L190.545 19.5063H192.484L193.164 16.028L197.586 14.9617Z" fill="#FCFAFA"/>
    <path d="M198.608 36.3504L201.805 19.5087H206.058L202.861 36.3504H198.608ZM202.587 15.2032C202.587 13.9648 203.47 12.552 204.967 12.552C206.362 12.552 207.009 13.6183 206.974 14.7897C206.941 16.511 205.784 17.4767 204.525 17.4767C203.165 17.4767 202.554 16.4774 202.587 15.2032Z" fill="#FCFAFA"/>
    <path d="M208.698 19.5086L208.833 18.8201C209.208 16.8238 209.957 15.1003 211.35 13.7926C212.37 12.8291 213.867 12.2434 215.567 12.2434C216.655 12.2434 217.472 12.4155 217.982 12.5877L217.03 15.8939C216.622 15.7553 216.249 15.6882 215.703 15.6882C214.173 15.6882 213.288 17.3067 213.017 18.7865L212.88 19.5086H217.812L217.233 22.5398H212.37L209.751 36.3503H205.499L208.117 22.5398" fill="#FCFAFA"/>
    <path d="M220.468 19.5086L220.57 27.6031C220.603 29.188 220.638 30.3594 220.603 31.5978H220.671C221.011 30.2208 221.351 29.083 221.93 27.2924L224.447 19.5086H228.732L223.292 32.767C221.658 36.6253 219.788 39.8622 217.748 41.7557C216.761 42.6856 215.607 43.4099 214.891 43.7184L213.191 40.2043C213.94 39.8242 214.721 39.3772 215.401 38.8272C216.355 38.0337 217.271 37.0702 217.68 36.1402C217.748 35.8988 217.815 35.7267 217.781 35.3824L216.013 19.5042H220.468V19.5086Z" fill="#FCFAFA"/>
</svg>
