<?xml version="1.0" encoding="UTF-8" standalone="no"?>
<!DOCTYPE svg PUBLIC "-//W3C//DTD SVG 1.1//EN"
 "http://www.w3.org/Graphics/SVG/1.1/DTD/svg11.dtd">
<!-- Generated by graphviz version 2.40.1 (20161225.0304)
 -->
<!-- Title: %3 Pages: 1 -->
<svg width="203pt" height="215pt"
 viewBox="0.00 0.00 203.17 214.93" xmlns="http://www.w3.org/2000/svg" xmlns:xlink="http://www.w3.org/1999/xlink">
<g id="graph0" class="graph" transform="scale(1 1) rotate(0) translate(4 210.9303)">
<title>%3</title>
<polygon fill="#ffffff" stroke="transparent" points="-4,4 -4,-210.9303 199.1686,-210.9303 199.1686,4 -4,4"/>
<!-- getCommands -->
<g id="node1" class="node">
<title>getCommands</title>
<g id="a_node1"><a xlink:href="/packages/gasket-command-plugin#getcommands" xlink:title="getCommands">
<ellipse fill="#7fff7f" stroke="#000000" cx="97.5843" cy="-18" rx="61.3978" ry="18"/>
<text text-anchor="middle" x="97.5843" y="-13.8" font-family="Times,serif" font-size="14.00" fill="#000000">getCommands</text>
</a>
</g>
</g>
<!-- command_initOclif_hook -->
<g id="node2" class="node">
<title>command_initOclif_hook</title>
<g id="a_node2"><a xlink:href="/packages/command-plugin" xlink:title="command&#45;plugin\ninitOclif hook">
<polygon fill="#ffa500" stroke="#000000" points="195.253,-185.1777 97.5843,-206.8955 -.0844,-185.1777 .0068,-150.0375 195.1618,-150.0375 195.253,-185.1777"/>
<text text-anchor="middle" x="97.5843" y="-178.2652" font-family="Times,serif" font-size="14.00" fill="#000000">command&#45;plugin</text>
<text text-anchor="middle" x="97.5843" y="-164.2652" font-family="Times,serif" font-size="14.00" fill="#000000">initOclif hook</text>
</a>
</g>
</g>
<!-- invoke_getCommands_0 -->
<g id="node3" class="node">
<title>invoke_getCommands_0</title>
<polygon fill="#cfcfff" stroke="#000000" points="145.9672,-108 49.2014,-108 49.2014,-72 145.9672,-72 145.9672,-108"/>
<text text-anchor="middle" x="97.5843" y="-85.8" font-family="Times,serif" font-size="14.00" fill="#000000">getCommands</text>
</g>
<!-- command_initOclif_hook&#45;&gt;invoke_getCommands_0 -->
<g id="edge1" class="edge">
<title>command_initOclif_hook&#45;&gt;invoke_getCommands_0</title>
<path fill="none" stroke="#000000" d="M97.5843,-149.8228C97.5843,-139.8239 97.5843,-128.3304 97.5843,-118.107"/>
<polygon fill="#000000" stroke="#000000" points="101.0844,-118.0286 97.5843,-108.0287 94.0844,-118.0287 101.0844,-118.0286"/>
</g>
<!-- invoke_getCommands_0&#45;&gt;getCommands -->
<g id="edge2" class="edge">
<title>invoke_getCommands_0&#45;&gt;getCommands</title>
<path fill="none" stroke="#000000" stroke-dasharray="1,5" d="M97.5843,-71.8314C97.5843,-64.131 97.5843,-54.9743 97.5843,-46.4166"/>
<polygon fill="#000000" stroke="#000000" points="101.0844,-46.4132 97.5843,-36.4133 94.0844,-46.4133 101.0844,-46.4132"/>
</g>
</g>
</svg>
