<?xml version="1.0" encoding="UTF-8" standalone="no"?>
<!DOCTYPE svg PUBLIC "-//W3C//DTD SVG 1.1//EN"
 "http://www.w3.org/Graphics/SVG/1.1/DTD/svg11.dtd">
<!-- Generated by graphviz version 2.40.1 (20161225.0304)
 -->
<!-- Title: %3 Pages: 1 -->
<svg width="631pt" height="215pt"
 viewBox="0.00 0.00 631.17 214.93" xmlns="http://www.w3.org/2000/svg" xmlns:xlink="http://www.w3.org/1999/xlink">
<g id="graph0" class="graph" transform="scale(1 1) rotate(0) translate(4 210.9303)">
<title>%3</title>
<polygon fill="#ffffff" stroke="transparent" points="-4,4 -4,-210.9303 627.1708,-210.9303 627.1708,4 -4,4"/>
<!-- appEnvConfig -->
<g id="node1" class="node">
<title>appEnvConfig</title>
<g id="a_node1"><a xlink:href="https://github.com/godaddy/gasket/tree/master/packages/gasket-plugin-config#appenvconfig" xlink:title="appEnvConfig">
<ellipse fill="#7fff7f" stroke="#000000" cx="79.9227" cy="-18" rx="61.4064" ry="18"/>
<text text-anchor="middle" x="79.9227" y="-13.8" font-family="Times,serif" font-size="14.00" fill="#000000">appEnvConfig</text>
</a>
</g>
</g>
<!-- appRequestConfig -->
<g id="node2" class="node">
<title>appRequestConfig</title>
<g id="a_node2"><a xlink:href="https://github.com/godaddy/gasket/tree/master/packages/gasket-plugin-config#apprequestconfig" xlink:title="appRequestConfig">
<ellipse fill="#7fff7f" stroke="#000000" cx="276.9227" cy="-18" rx="75.3966" ry="18"/>
<text text-anchor="middle" x="276.9227" y="-13.8" font-family="Times,serif" font-size="14.00" fill="#000000">appRequestConfig</text>
</a>
</g>
</g>
<!-- config_preboot_hook -->
<g id="node3" class="node">
<title>config_preboot_hook</title>
<g id="a_node3"><a xlink:href="https://github.com/godaddy/gasket/tree/master/packages/gasket-plugin-config" xlink:title="config&#45;plugin\npreboot hook">
<polygon fill="#ffa500" stroke="#000000" points="159.7682,-185.1777 79.9227,-206.8955 .0772,-185.1777 .1517,-150.0375 159.6937,-150.0375 159.7682,-185.1777"/>
<text text-anchor="middle" x="79.9227" y="-178.2652" font-family="Times,serif" font-size="14.00" fill="#000000">config&#45;plugin</text>
<text text-anchor="middle" x="79.9227" y="-164.2652" font-family="Times,serif" font-size="14.00" fill="#000000">preboot hook</text>
</a>
</g>
</g>
<!-- invoke_appEnvConfig_0 -->
<g id="node6" class="node">
<title>invoke_appEnvConfig_0</title>
<polygon fill="#cfcfff" stroke="#000000" points="128.3124,-108 31.533,-108 31.533,-72 128.3124,-72 128.3124,-108"/>
<text text-anchor="middle" x="79.9227" y="-85.8" font-family="Times,serif" font-size="14.00" fill="#000000">appEnvConfig</text>
</g>
<!-- config_preboot_hook&#45;&gt;invoke_appEnvConfig_0 -->
<g id="edge1" class="edge">
<title>config_preboot_hook&#45;&gt;invoke_appEnvConfig_0</title>
<path fill="none" stroke="#000000" d="M79.9227,-149.8228C79.9227,-139.8239 79.9227,-128.3304 79.9227,-118.107"/>
<polygon fill="#000000" stroke="#000000" points="83.4228,-118.0286 79.9227,-108.0287 76.4228,-118.0287 83.4228,-118.0286"/>
</g>
<!-- config_middleware_hook -->
<g id="node4" class="node">
<title>config_middleware_hook</title>
<g id="a_node4"><a xlink:href="https://github.com/godaddy/gasket/tree/master/packages/gasket-plugin-config" xlink:title="config&#45;plugin\nmiddleware hook">
<polygon fill="#ffa500" stroke="#000000" points="375.9736,-185.1777 276.9227,-206.8955 177.8718,-185.1777 177.9643,-150.0375 375.8812,-150.0375 375.9736,-185.1777"/>
<text text-anchor="middle" x="276.9227" y="-178.2652" font-family="Times,serif" font-size="14.00" fill="#000000">config&#45;plugin</text>
<text text-anchor="middle" x="276.9227" y="-164.2652" font-family="Times,serif" font-size="14.00" fill="#000000">middleware hook</text>
</a>
</g>
</g>
<!-- invoke_appRequestConfig_1 -->
<g id="node7" class="node">
<title>invoke_appRequestConfig_1</title>
<polygon fill="#cfcfff" stroke="#000000" points="336.8649,-108 216.9805,-108 216.9805,-72 336.8649,-72 336.8649,-108"/>
<text text-anchor="middle" x="276.9227" y="-85.8" font-family="Times,serif" font-size="14.00" fill="#000000">appRequestConfig</text>
</g>
<!-- config_middleware_hook&#45;&gt;invoke_appRequestConfig_1 -->
<g id="edge2" class="edge">
<title>config_middleware_hook&#45;&gt;invoke_appRequestConfig_1</title>
<path fill="none" stroke="#000000" d="M276.9227,-149.8228C276.9227,-139.8239 276.9227,-128.3304 276.9227,-118.107"/>
<polygon fill="#000000" stroke="#000000" points="280.4228,-118.0286 276.9227,-108.0287 273.4228,-118.0287 280.4228,-118.0286"/>
</g>
<!-- config_initReduxState_hook -->
<g id="node5" class="node">
<title>config_initReduxState_hook</title>
<g id="a_node5"><a xlink:href="https://github.com/godaddy/gasket/tree/master/packages/gasket-plugin-config" xlink:title="config&#45;plugin\ninitReduxState hook">
<polygon fill="#ffa500" stroke="#000000" points="623.4195,-185.1777 508.9227,-206.8955 394.426,-185.1777 394.5328,-150.0375 623.3126,-150.0375 623.4195,-185.1777"/>
<text text-anchor="middle" x="508.9227" y="-178.2652" font-family="Times,serif" font-size="14.00" fill="#000000">config&#45;plugin</text>
<text text-anchor="middle" x="508.9227" y="-164.2652" font-family="Times,serif" font-size="14.00" fill="#000000">initReduxState hook</text>
</a>
</g>
</g>
<!-- invoke_appEnvConfig_0&#45;&gt;appEnvConfig -->
<g id="edge3" class="edge">
<title>invoke_appEnvConfig_0&#45;&gt;appEnvConfig</title>
<path fill="none" stroke="#000000" stroke-dasharray="1,5" d="M79.9227,-71.8314C79.9227,-64.131 79.9227,-54.9743 79.9227,-46.4166"/>
<polygon fill="#000000" stroke="#000000" points="83.4228,-46.4132 79.9227,-36.4133 76.4228,-46.4133 83.4228,-46.4132"/>
</g>
<!-- invoke_appRequestConfig_1&#45;&gt;appRequestConfig -->
<g id="edge4" class="edge">
<title>invoke_appRequestConfig_1&#45;&gt;appRequestConfig</title>
<path fill="none" stroke="#000000" stroke-dasharray="1,5" d="M276.9227,-71.8314C276.9227,-64.131 276.9227,-54.9743 276.9227,-46.4166"/>
<polygon fill="#000000" stroke="#000000" points="280.4228,-46.4132 276.9227,-36.4133 273.4228,-46.4133 280.4228,-46.4132"/>
</g>
</g>
</svg>
