<?xml version="1.0" encoding="UTF-8" standalone="no"?>
<!DOCTYPE svg PUBLIC "-//W3C//DTD SVG 1.1//EN"
 "http://www.w3.org/Graphics/SVG/1.1/DTD/svg11.dtd">
<!-- Generated by graphviz version 2.40.1 (20161225.0304)
 -->
<!-- Title: %3 Pages: 1 -->
<svg width="941pt" height="719pt"
 viewBox="0.00 0.00 941.45 718.93" xmlns="http://www.w3.org/2000/svg" xmlns:xlink="http://www.w3.org/1999/xlink">
<g id="graph0" class="graph" transform="scale(1 1) rotate(0) translate(4 714.9303)">
<title>%3</title>
<polygon fill="#ffffff" stroke="transparent" points="-4,4 -4,-714.9303 937.4483,-714.9303 937.4483,4 -4,4"/>
<!-- middleware -->
<g id="node1" class="node">
<title>middleware</title>
<g id="a_node1"><a xlink:href="https://github.com/godaddy/gasket/tree/master/packages/gasket-express-plugin#middleware" xlink:title="middleware">
<ellipse fill="#7fff7f" stroke="#000000" cx="330.4483" cy="-522" rx="51.7002" ry="18"/>
<text text-anchor="middle" x="330.4483" y="-517.8" font-family="Times,serif" font-size="14.00" fill="#000000">middleware</text>
</a>
</g>
</g>
<!-- config_middleware_hook -->
<g id="node10" class="node">
<title>config_middleware_hook</title>
<g id="a_node10"><a xlink:href="https://github.com/godaddy/gasket/tree/master/packages/gasket-config-plugin" xlink:title="config&#45;plugin">
<polygon fill="#ffa500" stroke="#000000" points="146.7424,-455.5623 75.4483,-468 4.1542,-455.5623 4.2208,-435.4377 146.6758,-435.4377 146.7424,-455.5623"/>
<text text-anchor="middle" x="75.4483" y="-445.8" font-family="Times,serif" font-size="14.00" fill="#000000">config&#45;plugin</text>
</a>
</g>
</g>
<!-- middleware&#45;&gt;config_middleware_hook -->
<g id="edge1" class="edge">
<title>middleware&#45;&gt;config_middleware_hook:n</title>
<path fill="none" stroke="#000000" d="M280.9794,-516.4916C216.3831,-508.7066 108.3678,-493.4628 81.5935,-475.9216"/>
<polygon fill="#000000" stroke="#000000" points="84.3432,-473.756 75.4483,-468 78.8123,-478.0466 84.3432,-473.756"/>
</g>
<!-- redux_middleware_hook -->
<g id="node11" class="node">
<title>redux_middleware_hook</title>
<g id="a_node11"><a xlink:href="https://github.com/godaddy/gasket/tree/master/packages/gasket-redux-plugin" xlink:title="redux&#45;plugin">
<polygon fill="#ffa500" stroke="#000000" points="302.3638,-455.5623 233.4483,-468 164.5328,-455.5623 164.5971,-435.4377 302.2995,-435.4377 302.3638,-455.5623"/>
<text text-anchor="middle" x="233.4483" y="-445.8" font-family="Times,serif" font-size="14.00" fill="#000000">redux&#45;plugin</text>
</a>
</g>
</g>
<!-- middleware&#45;&gt;redux_middleware_hook -->
<g id="edge2" class="edge">
<title>middleware&#45;&gt;redux_middleware_hook:n</title>
<path fill="none" stroke="#000000" d="M283.6531,-514.0085C262.3365,-507.8114 240.5803,-496.9341 234.8829,-477.9726"/>
<polygon fill="#000000" stroke="#000000" points="238.3366,-477.3997 233.4483,-468 231.4079,-478.3965 238.3366,-477.3997"/>
</g>
<!-- serviceWorker_middleware_hook -->
<g id="node12" class="node">
<title>serviceWorker_middleware_hook</title>
<g id="a_node12"><a xlink:href="https://github.com/godaddy/gasket/tree/master/packages/gasket-serviceWorker-plugin" xlink:title="serviceWorker&#45;plugin">
<polygon fill="#ffa500" stroke="#000000" points="534.5848,-455.5623 427.4483,-468 320.3118,-455.5623 320.4118,-435.4377 534.4848,-435.4377 534.5848,-455.5623"/>
<text text-anchor="middle" x="427.4483" y="-445.8" font-family="Times,serif" font-size="14.00" fill="#000000">serviceWorker&#45;plugin</text>
</a>
</g>
</g>
<!-- middleware&#45;&gt;serviceWorker_middleware_hook -->
<g id="edge3" class="edge">
<title>middleware&#45;&gt;serviceWorker_middleware_hook:n</title>
<path fill="none" stroke="#000000" d="M377.2435,-514.0085C398.5601,-507.8114 420.3163,-496.9341 426.0137,-477.9726"/>
<polygon fill="#000000" stroke="#000000" points="429.4887,-478.3965 427.4483,-468 422.56,-477.3997 429.4887,-478.3965"/>
</g>
<!-- express -->
<g id="node2" class="node">
<title>express</title>
<g id="a_node2"><a xlink:href="https://github.com/godaddy/gasket/tree/master/packages/gasket-express-plugin" xlink:title="express">
<ellipse fill="#7fff7f" stroke="#000000" cx="589.4483" cy="-450" rx="36.7576" ry="18"/>
<text text-anchor="middle" x="589.4483" y="-445.8" font-family="Times,serif" font-size="14.00" fill="#000000">express</text>
</a>
</g>
</g>
<!-- intl_express_hook -->
<g id="node13" class="node">
<title>intl_express_hook</title>
<g id="a_node13"><a xlink:href="https://github.com/godaddy/gasket/tree/master/packages/gasket-intl-plugin" xlink:title="intl&#45;plugin">
<polygon fill="#ffa500" stroke="#000000" points="445.2402,-383.5623 386.4483,-396 327.6564,-383.5623 327.7113,-363.4377 445.1853,-363.4377 445.2402,-383.5623"/>
<text text-anchor="middle" x="386.4483" y="-373.8" font-family="Times,serif" font-size="14.00" fill="#000000">intl&#45;plugin</text>
</a>
</g>
</g>
<!-- express&#45;&gt;intl_express_hook -->
<g id="edge4" class="edge">
<title>express&#45;&gt;intl_express_hook:n</title>
<path fill="none" stroke="#000000" d="M561.4618,-438.2912C555.5685,-436.04 549.3485,-433.82 543.4483,-432 512.718,-422.5211 410.4774,-429.9086 390.0267,-405.5485"/>
<polygon fill="#000000" stroke="#000000" points="393.2351,-404.1358 386.4483,-396 386.6802,-406.5923 393.2351,-404.1358"/>
</g>
<!-- serviceWorker_express_hook -->
<g id="node14" class="node">
<title>serviceWorker_express_hook</title>
<g id="a_node14"><a xlink:href="https://github.com/godaddy/gasket/tree/master/packages/gasket-serviceWorker-plugin" xlink:title="serviceWorker&#45;plugin">
<polygon fill="#ffa500" stroke="#000000" points="677.5848,-383.5623 570.4483,-396 463.3118,-383.5623 463.4118,-363.4377 677.4848,-363.4377 677.5848,-383.5623"/>
<text text-anchor="middle" x="570.4483" y="-373.8" font-family="Times,serif" font-size="14.00" fill="#000000">serviceWorker&#45;plugin</text>
</a>
</g>
</g>
<!-- express&#45;&gt;serviceWorker_express_hook -->
<g id="edge5" class="edge">
<title>express&#45;&gt;serviceWorker_express_hook:n</title>
<path fill="none" stroke="#000000" d="M579.9483,-432.5408C576.46,-424.9623 572.9717,-415.6686 571.3647,-406.2278"/>
<polygon fill="#000000" stroke="#000000" points="574.8268,-405.6477 570.4483,-396 567.8548,-406.2725 574.8268,-405.6477"/>
</g>
<!-- workbox_express_hook -->
<g id="node15" class="node">
<title>workbox_express_hook</title>
<g id="a_node15"><a xlink:href="https://github.com/godaddy/gasket/tree/master/packages/gasket-workbox-plugin" xlink:title="workbox&#45;plugin">
<polygon fill="#ffa500" stroke="#000000" points="861.3108,-383.5623 778.4483,-396 695.5858,-383.5623 695.6631,-363.4377 861.2334,-363.4377 861.3108,-383.5623"/>
<text text-anchor="middle" x="778.4483" y="-373.8" font-family="Times,serif" font-size="14.00" fill="#000000">workbox&#45;plugin</text>
</a>
</g>
</g>
<!-- express&#45;&gt;workbox_express_hook -->
<g id="edge6" class="edge">
<title>express&#45;&gt;workbox_express_hook:n</title>
<path fill="none" stroke="#000000" d="M625.8894,-447.0385C674.8036,-442.156 757.6011,-430.3894 775.1278,-405.6943"/>
<polygon fill="#000000" stroke="#000000" points="778.519,-406.5946 778.4483,-396 771.8967,-404.3263 778.519,-406.5946"/>
</g>
<!-- next -->
<g id="node3" class="node">
<title>next</title>
<g id="a_node3"><a xlink:href="https://github.com/godaddy/gasket/tree/master/packages/gasket-nextjs-plugin#next" xlink:title="next">
<ellipse fill="#7fff7f" stroke="#000000" cx="906.4483" cy="-378" rx="27" ry="18"/>
<text text-anchor="middle" x="906.4483" y="-373.8" font-family="Times,serif" font-size="14.00" fill="#000000">next</text>
</a>
</g>
</g>
<!-- appRequestConfig -->
<g id="node4" class="node">
<title>appRequestConfig</title>
<g id="a_node4"><a xlink:href="https://github.com/godaddy/gasket/tree/master/packages/gasket-config-plugin#apprequestconfig" xlink:title="appRequestConfig">
<ellipse fill="#7fff7f" stroke="#000000" cx="75.4483" cy="-306" rx="75.3966" ry="18"/>
<text text-anchor="middle" x="75.4483" y="-301.8" font-family="Times,serif" font-size="14.00" fill="#000000">appRequestConfig</text>
</a>
</g>
</g>
<!-- initReduxState -->
<g id="node5" class="node">
<title>initReduxState</title>
<g id="a_node5"><a xlink:href="https://github.com/godaddy/gasket/tree/master/packages/gasket-redux-plugin#initreduxstate" xlink:title="initReduxState">
<ellipse fill="#7fff7f" stroke="#000000" cx="232.4483" cy="-306" rx="62.8425" ry="18"/>
<text text-anchor="middle" x="232.4483" y="-301.8" font-family="Times,serif" font-size="14.00" fill="#000000">initReduxState</text>
</a>
</g>
</g>
<!-- config_initReduxState_hook -->
<g id="node16" class="node">
<title>config_initReduxState_hook</title>
<g id="a_node16"><a xlink:href="https://github.com/godaddy/gasket/tree/master/packages/gasket-config-plugin" xlink:title="config&#45;plugin">
<polygon fill="#ffa500" stroke="#000000" points="298.7424,-239.5623 227.4483,-252 156.1542,-239.5623 156.2208,-219.4377 298.6758,-219.4377 298.7424,-239.5623"/>
<text text-anchor="middle" x="227.4483" y="-229.8" font-family="Times,serif" font-size="14.00" fill="#000000">config&#45;plugin</text>
</a>
</g>
</g>
<!-- initReduxState&#45;&gt;config_initReduxState_hook -->
<g id="edge7" class="edge">
<title>initReduxState&#45;&gt;config_initReduxState_hook:n</title>
<path fill="none" stroke="#000000" d="M229.8897,-287.5447C229.0055,-280.059 228.1311,-271.1 227.7092,-262.2479"/>
<polygon fill="#000000" stroke="#000000" points="231.2018,-261.9076 227.4483,-252 224.204,-262.0859 231.2018,-261.9076"/>
</g>
<!-- initReduxStore -->
<g id="node6" class="node">
<title>initReduxStore</title>
<g id="a_node6"><a xlink:href="https://github.com/godaddy/gasket/tree/master/packages/gasket-redux-plugin#initreduxstore" xlink:title="initReduxStore">
<ellipse fill="#7fff7f" stroke="#000000" cx="380.4483" cy="-234" rx="63.8115" ry="18"/>
<text text-anchor="middle" x="380.4483" y="-229.8" font-family="Times,serif" font-size="14.00" fill="#000000">initReduxStore</text>
</a>
</g>
</g>
<!-- composeServiceWorker -->
<g id="node7" class="node">
<title>composeServiceWorker</title>
<g id="a_node7"><a xlink:href="https://github.com/godaddy/gasket/tree/master/packages/gasket-service-worker-plugin#composeserviceworker" xlink:title="composeServiceWorker">
<ellipse fill="#7fff7f" stroke="#000000" cx="570.4483" cy="-234" rx="94.2233" ry="18"/>
<text text-anchor="middle" x="570.4483" y="-229.8" font-family="Times,serif" font-size="14.00" fill="#000000">composeServiceWorker</text>
</a>
</g>
</g>
<!-- workbox_composeServiceWorker_hook -->
<g id="node17" class="node">
<title>workbox_composeServiceWorker_hook</title>
<g id="a_node17"><a xlink:href="https://github.com/godaddy/gasket/tree/master/packages/gasket-workbox-plugin" xlink:title="workbox&#45;plugin">
<polygon fill="#ffa500" stroke="#000000" points="653.3108,-167.5623 570.4483,-180 487.5858,-167.5623 487.6631,-147.4377 653.2334,-147.4377 653.3108,-167.5623"/>
<text text-anchor="middle" x="570.4483" y="-157.8" font-family="Times,serif" font-size="14.00" fill="#000000">workbox&#45;plugin</text>
</a>
</g>
</g>
<!-- composeServiceWorker&#45;&gt;workbox_composeServiceWorker_hook -->
<g id="edge8" class="edge">
<title>composeServiceWorker&#45;&gt;workbox_composeServiceWorker_hook:n</title>
<path fill="none" stroke="#000000" d="M570.4483,-216C570.4483,-208.3711 570.4483,-199.1585 570.4483,-190.0882"/>
<polygon fill="#000000" stroke="#000000" points="573.9484,-190 570.4483,-180 566.9484,-190 573.9484,-190"/>
</g>
<!-- workbox -->
<g id="node8" class="node">
<title>workbox</title>
<g id="a_node8"><a xlink:href="https://github.com/godaddy/gasket/tree/master/packages/gasket-workbox-plugin#workbox" xlink:title="workbox">
<ellipse fill="#7fff7f" stroke="#000000" cx="570.4483" cy="-18" rx="41.5938" ry="18"/>
<text text-anchor="middle" x="570.4483" y="-13.8" font-family="Times,serif" font-size="14.00" fill="#000000">workbox</text>
</a>
</g>
</g>
<!-- https_start_hook -->
<g id="node9" class="node">
<title>https_start_hook</title>
<g id="a_node9"><a xlink:href="https://github.com/godaddy/gasket/tree/master/packages/gasket-https-plugin" xlink:title="https&#45;plugin\nstart hook">
<polygon fill="#ffa500" stroke="#000000" points="484.7072,-689.1777 411.4483,-710.8955 338.1894,-689.1777 338.2578,-654.0375 484.6388,-654.0375 484.7072,-689.1777"/>
<text text-anchor="middle" x="411.4483" y="-682.2652" font-family="Times,serif" font-size="14.00" fill="#000000">https&#45;plugin</text>
<text text-anchor="middle" x="411.4483" y="-668.2652" font-family="Times,serif" font-size="14.00" fill="#000000">start hook</text>
</a>
</g>
</g>
<!-- invoke_middleware_0 -->
<g id="node18" class="node">
<title>invoke_middleware_0</title>
<polygon fill="#cfcfff" stroke="#000000" points="452.5313,-612 370.3652,-612 370.3652,-576 452.5313,-576 452.5313,-612"/>
<text text-anchor="middle" x="411.4483" y="-589.8" font-family="Times,serif" font-size="14.00" fill="#000000">middleware</text>
</g>
<!-- https_start_hook&#45;&gt;invoke_middleware_0 -->
<g id="edge9" class="edge">
<title>https_start_hook&#45;&gt;invoke_middleware_0</title>
<path fill="none" stroke="#000000" d="M411.4483,-653.8228C411.4483,-643.8239 411.4483,-632.3304 411.4483,-622.107"/>
<polygon fill="#000000" stroke="#000000" points="414.9484,-622.0286 411.4483,-612.0287 407.9484,-622.0287 414.9484,-622.0286"/>
</g>
<!-- invoke_appRequestConfig_3 -->
<g id="node21" class="node">
<title>invoke_appRequestConfig_3</title>
<polygon fill="#cfcfff" stroke="#000000" points="135.3905,-396 15.5061,-396 15.5061,-360 135.3905,-360 135.3905,-396"/>
<text text-anchor="middle" x="75.4483" y="-373.8" font-family="Times,serif" font-size="14.00" fill="#000000">appRequestConfig</text>
</g>
<!-- config_middleware_hook&#45;&gt;invoke_appRequestConfig_3 -->
<g id="edge12" class="edge">
<title>config_middleware_hook&#45;&gt;invoke_appRequestConfig_3</title>
<path fill="none" stroke="#000000" d="M75.4483,-435.4297C75.4483,-427.1011 75.4483,-416.3665 75.4483,-406.436"/>
<polygon fill="#000000" stroke="#000000" points="78.9484,-406.1279 75.4483,-396.128 71.9484,-406.128 78.9484,-406.1279"/>
</g>
<!-- invoke_initReduxState_4 -->
<g id="node22" class="node">
<title>invoke_initReduxState_4</title>
<polygon fill="#cfcfff" stroke="#000000" points="283.1624,-396 183.7342,-396 183.7342,-360 283.1624,-360 283.1624,-396"/>
<text text-anchor="middle" x="233.4483" y="-373.8" font-family="Times,serif" font-size="14.00" fill="#000000">initReduxState</text>
</g>
<!-- redux_middleware_hook&#45;&gt;invoke_initReduxState_4 -->
<g id="edge13" class="edge">
<title>redux_middleware_hook&#45;&gt;invoke_initReduxState_4</title>
<path fill="none" stroke="#000000" d="M233.4483,-435.4297C233.4483,-427.1011 233.4483,-416.3665 233.4483,-406.436"/>
<polygon fill="#000000" stroke="#000000" points="236.9484,-406.1279 233.4483,-396.128 229.9484,-406.128 236.9484,-406.1279"/>
</g>
<!-- invoke_composeServiceWorker_6 -->
<g id="node24" class="node">
<title>invoke_composeServiceWorker_6</title>
<polygon fill="#cfcfff" stroke="#000000" points="645.3316,-324 495.565,-324 495.565,-288 645.3316,-288 645.3316,-324"/>
<text text-anchor="middle" x="570.4483" y="-301.8" font-family="Times,serif" font-size="14.00" fill="#000000">composeServiceWorker</text>
</g>
<!-- serviceWorker_express_hook&#45;&gt;invoke_composeServiceWorker_6 -->
<g id="edge15" class="edge">
<title>serviceWorker_express_hook&#45;&gt;invoke_composeServiceWorker_6</title>
<path fill="none" stroke="#000000" d="M570.4483,-363.4297C570.4483,-355.1011 570.4483,-344.3665 570.4483,-334.436"/>
<polygon fill="#000000" stroke="#000000" points="573.9484,-334.1279 570.4483,-324.128 566.9484,-334.128 573.9484,-334.1279"/>
</g>
<!-- invoke_workbox_7 -->
<g id="node25" class="node">
<title>invoke_workbox_7</title>
<polygon fill="#cfcfff" stroke="#000000" points="603.2211,-108 537.6754,-108 537.6754,-72 603.2211,-72 603.2211,-108"/>
<text text-anchor="middle" x="570.4483" y="-85.8" font-family="Times,serif" font-size="14.00" fill="#000000">workbox</text>
</g>
<!-- workbox_composeServiceWorker_hook&#45;&gt;invoke_workbox_7 -->
<g id="edge16" class="edge">
<title>workbox_composeServiceWorker_hook&#45;&gt;invoke_workbox_7</title>
<path fill="none" stroke="#000000" d="M570.4483,-147.4297C570.4483,-139.1011 570.4483,-128.3665 570.4483,-118.436"/>
<polygon fill="#000000" stroke="#000000" points="573.9484,-118.1279 570.4483,-108.128 566.9484,-118.128 573.9484,-118.1279"/>
</g>
<!-- invoke_middleware_0&#45;&gt;middleware -->
<g id="edge17" class="edge">
<title>invoke_middleware_0&#45;&gt;middleware</title>
<path fill="none" stroke="#000000" stroke-dasharray="1,5" d="M391.0086,-575.8314C380.7507,-566.7132 368.1958,-555.5534 357.1825,-545.7637"/>
<polygon fill="#000000" stroke="#000000" points="359.2898,-542.954 349.4904,-538.9263 354.6392,-548.1859 359.2898,-542.954"/>
</g>
<!-- invoke_express_1 -->
<g id="node19" class="node">
<title>invoke_express_1</title>
<polygon fill="#cfcfff" stroke="#000000" points="618.4346,-540 560.462,-540 560.462,-504 618.4346,-504 618.4346,-540"/>
<text text-anchor="middle" x="589.4483" y="-517.8" font-family="Times,serif" font-size="14.00" fill="#000000">express</text>
</g>
<!-- invoke_middleware_0&#45;&gt;invoke_express_1 -->
<g id="edge10" class="edge">
<title>invoke_middleware_0&#45;&gt;invoke_express_1</title>
<path fill="none" stroke="#000000" d="M452.7325,-577.3008C482.3513,-565.3201 521.9804,-549.2904 550.9451,-537.5743"/>
<polygon fill="#000000" stroke="#000000" points="552.3713,-540.773 560.3291,-533.7785 549.7464,-534.2838 552.3713,-540.773"/>
</g>
<!-- invoke_express_1&#45;&gt;express -->
<g id="edge18" class="edge">
<title>invoke_express_1&#45;&gt;express</title>
<path fill="none" stroke="#000000" stroke-dasharray="1,5" d="M589.4483,-503.8314C589.4483,-496.131 589.4483,-486.9743 589.4483,-478.4166"/>
<polygon fill="#000000" stroke="#000000" points="592.9484,-478.4132 589.4483,-468.4133 585.9484,-478.4133 592.9484,-478.4132"/>
</g>
<!-- invoke_next_2 -->
<g id="node20" class="node">
<title>invoke_next_2</title>
<polygon fill="#cfcfff" stroke="#000000" points="811.4483,-468 757.4483,-468 757.4483,-432 811.4483,-432 811.4483,-468"/>
<text text-anchor="middle" x="784.4483" y="-445.8" font-family="Times,serif" font-size="14.00" fill="#000000">next</text>
</g>
<!-- invoke_express_1&#45;&gt;invoke_next_2 -->
<g id="edge11" class="edge">
<title>invoke_express_1&#45;&gt;invoke_next_2</title>
<path fill="none" stroke="#000000" d="M618.6418,-511.2209C653.0704,-498.5088 710.3346,-477.3651 747.7386,-463.5543"/>
<polygon fill="#000000" stroke="#000000" points="749.0912,-466.786 757.2599,-460.0388 746.6666,-460.2193 749.0912,-466.786"/>
</g>
<!-- invoke_next_2&#45;&gt;next -->
<g id="edge19" class="edge">
<title>invoke_next_2&#45;&gt;next</title>
<path fill="none" stroke="#000000" stroke-dasharray="1,5" d="M811.524,-434.0209C831.0044,-422.5242 857.2529,-407.0333 877.2105,-395.2551"/>
<polygon fill="#000000" stroke="#000000" points="879.0574,-398.2292 885.8906,-390.1324 875.4996,-392.2008 879.0574,-398.2292"/>
</g>
<!-- invoke_appRequestConfig_3&#45;&gt;appRequestConfig -->
<g id="edge20" class="edge">
<title>invoke_appRequestConfig_3&#45;&gt;appRequestConfig</title>
<path fill="none" stroke="#000000" stroke-dasharray="1,5" d="M75.4483,-359.8314C75.4483,-352.131 75.4483,-342.9743 75.4483,-334.4166"/>
<polygon fill="#000000" stroke="#000000" points="78.9484,-334.4132 75.4483,-324.4133 71.9484,-334.4133 78.9484,-334.4132"/>
</g>
<!-- invoke_initReduxState_4&#45;&gt;initReduxState -->
<g id="edge21" class="edge">
<title>invoke_initReduxState_4&#45;&gt;initReduxState</title>
<path fill="none" stroke="#000000" stroke-dasharray="1,5" d="M233.1959,-359.8314C233.089,-352.131 232.9618,-342.9743 232.843,-334.4166"/>
<polygon fill="#000000" stroke="#000000" points="236.3427,-334.3637 232.704,-324.4133 229.3433,-334.4609 236.3427,-334.3637"/>
</g>
<!-- invoke_initReduxStore_5 -->
<g id="node23" class="node">
<title>invoke_initReduxStore_5</title>
<polygon fill="#cfcfff" stroke="#000000" points="419.721,-324 319.1756,-324 319.1756,-288 419.721,-288 419.721,-324"/>
<text text-anchor="middle" x="369.4483" y="-301.8" font-family="Times,serif" font-size="14.00" fill="#000000">initReduxStore</text>
</g>
<!-- invoke_initReduxState_4&#45;&gt;invoke_initReduxStore_5 -->
<g id="edge14" class="edge">
<title>invoke_initReduxState_4&#45;&gt;invoke_initReduxStore_5</title>
<path fill="none" stroke="#000000" d="M267.7668,-359.8314C285.4842,-350.4516 307.2828,-338.9112 326.1467,-328.9244"/>
<polygon fill="#000000" stroke="#000000" points="327.9405,-331.935 335.1407,-324.1628 324.6652,-325.7485 327.9405,-331.935"/>
</g>
<!-- invoke_initReduxStore_5&#45;&gt;initReduxStore -->
<g id="edge22" class="edge">
<title>invoke_initReduxStore_5&#45;&gt;initReduxStore</title>
<path fill="none" stroke="#000000" stroke-dasharray="1,5" d="M372.2241,-287.8314C373.4005,-280.131 374.7994,-270.9743 376.1069,-262.4166"/>
<polygon fill="#000000" stroke="#000000" points="379.5847,-262.8272 377.6352,-252.4133 372.665,-261.7699 379.5847,-262.8272"/>
</g>
<!-- invoke_composeServiceWorker_6&#45;&gt;composeServiceWorker -->
<g id="edge23" class="edge">
<title>invoke_composeServiceWorker_6&#45;&gt;composeServiceWorker</title>
<path fill="none" stroke="#000000" stroke-dasharray="1,5" d="M570.4483,-287.8314C570.4483,-280.131 570.4483,-270.9743 570.4483,-262.4166"/>
<polygon fill="#000000" stroke="#000000" points="573.9484,-262.4132 570.4483,-252.4133 566.9484,-262.4133 573.9484,-262.4132"/>
</g>
<!-- invoke_workbox_7&#45;&gt;workbox -->
<g id="edge24" class="edge">
<title>invoke_workbox_7&#45;&gt;workbox</title>
<path fill="none" stroke="#000000" stroke-dasharray="1,5" d="M570.4483,-71.8314C570.4483,-64.131 570.4483,-54.9743 570.4483,-46.4166"/>
<polygon fill="#000000" stroke="#000000" points="573.9484,-46.4132 570.4483,-36.4133 566.9484,-46.4133 573.9484,-46.4132"/>
</g>
</g>
</svg>
