<?xml version="1.0" encoding="UTF-8" standalone="no"?>
<!DOCTYPE svg PUBLIC "-//W3C//DTD SVG 1.1//EN"
 "http://www.w3.org/Graphics/SVG/1.1/DTD/svg11.dtd">
<!-- Generated by graphviz version 2.40.1 (20161225.0304)
 -->
<!-- Title: %3 Pages: 1 -->
<svg width="326pt" height="215pt"
 viewBox="0.00 0.00 325.97 214.93" xmlns="http://www.w3.org/2000/svg" xmlns:xlink="http://www.w3.org/1999/xlink">
<g id="graph0" class="graph" transform="scale(1 1) rotate(0) translate(4 210.9303)">
<title>%3</title>
<polygon fill="#ffffff" stroke="transparent" points="-4,4 -4,-210.9303 321.969,-210.9303 321.969,4 -4,4"/>
<!-- logTransports -->
<g id="node1" class="node">
<title>logTransports</title>
<ellipse fill="#7fff7f" stroke="#000000" cx="64.9677" cy="-18" rx="58.846" ry="18"/>
<text text-anchor="middle" x="64.9677" y="-13.8" font-family="Times,serif" font-size="14.00" fill="#000000">logTransports</text>
</g>
<!-- log_init_hook -->
<g id="node2" class="node">
<title>log_init_hook</title>
<g id="a_node2"><a xlink:href="/packages/log-plugin" xlink:title="log&#45;plugin\ninit hook">
<polygon fill="#ffa500" stroke="#000000" points="129.9032,-185.1777 64.9677,-206.8955 .0323,-185.1777 .0929,-150.0375 129.8426,-150.0375 129.9032,-185.1777"/>
<text text-anchor="middle" x="64.9677" y="-178.2652" font-family="Times,serif" font-size="14.00" fill="#000000">log&#45;plugin</text>
<text text-anchor="middle" x="64.9677" y="-164.2652" font-family="Times,serif" font-size="14.00" fill="#000000">init hook</text>
</a>
</g>
</g>
<!-- invoke_logTransports_0 -->
<g id="node4" class="node">
<title>invoke_logTransports_0</title>
<polygon fill="#cfcfff" stroke="#000000" points="111.7484,-108 18.187,-108 18.187,-72 111.7484,-72 111.7484,-108"/>
<text text-anchor="middle" x="64.9677" y="-85.8" font-family="Times,serif" font-size="14.00" fill="#000000">logTransports</text>
</g>
<!-- log_init_hook&#45;&gt;invoke_logTransports_0 -->
<g id="edge1" class="edge">
<title>log_init_hook&#45;&gt;invoke_logTransports_0</title>
<path fill="none" stroke="#000000" d="M64.9677,-149.8228C64.9677,-139.8239 64.9677,-128.3304 64.9677,-118.107"/>
<polygon fill="#000000" stroke="#000000" points="68.4678,-118.0286 64.9677,-108.0287 61.4678,-118.0287 68.4678,-118.0286"/>
</g>
<!-- log_webpack_hook -->
<g id="node3" class="node">
<title>log_webpack_hook</title>
<g id="a_node3"><a xlink:href="/packages/log-plugin" xlink:title="log&#45;plugin\nwebpack hook">
<polygon fill="#ffa500" stroke="#000000" points="317.9704,-185.1777 232.9677,-206.8955 147.9651,-185.1777 148.0444,-150.0375 317.891,-150.0375 317.9704,-185.1777"/>
<text text-anchor="middle" x="232.9677" y="-178.2652" font-family="Times,serif" font-size="14.00" fill="#000000">log&#45;plugin</text>
<text text-anchor="middle" x="232.9677" y="-164.2652" font-family="Times,serif" font-size="14.00" fill="#000000">webpack hook</text>
</a>
</g>
</g>
<!-- invoke_logTransports_0&#45;&gt;logTransports -->
<g id="edge2" class="edge">
<title>invoke_logTransports_0&#45;&gt;logTransports</title>
<path fill="none" stroke="#000000" stroke-dasharray="1,5" d="M64.9677,-71.8314C64.9677,-64.131 64.9677,-54.9743 64.9677,-46.4166"/>
<polygon fill="#000000" stroke="#000000" points="68.4678,-46.4132 64.9677,-36.4133 61.4678,-46.4133 68.4678,-46.4132"/>
</g>
</g>
</svg>
