<?xml version="1.0" encoding="UTF-8" standalone="no"?>
<!DOCTYPE svg PUBLIC "-//W3C//DTD SVG 1.1//EN"
 "http://www.w3.org/Graphics/SVG/1.1/DTD/svg11.dtd">
<!-- Generated by graphviz version 2.40.1 (20161225.0304)
 -->
<!-- Title: %3 Pages: 1 -->
<svg width="614pt" height="287pt"
 viewBox="0.00 0.00 614.40 286.93" xmlns="http://www.w3.org/2000/svg" xmlns:xlink="http://www.w3.org/1999/xlink">
<g id="graph0" class="graph" transform="scale(1 1) rotate(0) translate(4 282.9303)">
<title>%3</title>
<polygon fill="#ffffff" stroke="transparent" points="-4,4 -4,-282.9303 610.3983,-282.9303 610.3983,4 -4,4"/>
<!-- initReduxState -->
<g id="node1" class="node">
<title>initReduxState</title>
<g id="a_node1"><a xlink:href="https://github.com/godaddy/gasket/tree/master/packages/gasket-redux-plugin#initreduxstate" xlink:title="initReduxState">
<ellipse fill="#7fff7f" stroke="#000000" cx="82.397" cy="-90" rx="62.8425" ry="18"/>
<text text-anchor="middle" x="82.397" y="-85.8" font-family="Times,serif" font-size="14.00" fill="#000000">initReduxState</text>
</a>
</g>
</g>
<!-- config_initReduxState_hook -->
<g id="node6" class="node">
<title>config_initReduxState_hook</title>
<g id="a_node6"><a xlink:href="https://github.com/godaddy/gasket/tree/master/packages/gasket-config-plugin" xlink:title="config&#45;plugin">
<polygon fill="#ffa500" stroke="#000000" points="142.691,-23.5623 71.397,-36 .1029,-23.5623 .1694,-3.4377 142.6245,-3.4377 142.691,-23.5623"/>
<text text-anchor="middle" x="71.397" y="-13.8" font-family="Times,serif" font-size="14.00" fill="#000000">config&#45;plugin</text>
</a>
</g>
</g>
<!-- initReduxState&#45;&gt;config_initReduxState_hook -->
<g id="edge1" class="edge">
<title>initReduxState&#45;&gt;config_initReduxState_hook:n</title>
<path fill="none" stroke="#000000" d="M76.7681,-71.6933C74.8017,-64.16 72.8574,-55.0951 71.941,-46.0773"/>
<polygon fill="#000000" stroke="#000000" points="75.4311,-45.7967 71.397,-36 68.4413,-46.1742 75.4311,-45.7967"/>
</g>
<!-- initReduxStore -->
<g id="node2" class="node">
<title>initReduxStore</title>
<g id="a_node2"><a xlink:href="https://github.com/godaddy/gasket/tree/master/packages/gasket-redux-plugin#initreduxstore" xlink:title="initReduxStore">
<ellipse fill="#7fff7f" stroke="#000000" cx="224.397" cy="-18" rx="63.8115" ry="18"/>
<text text-anchor="middle" x="224.397" y="-13.8" font-family="Times,serif" font-size="14.00" fill="#000000">initReduxStore</text>
</a>
</g>
</g>
<!-- redux_create_hook -->
<g id="node3" class="node">
<title>redux_create_hook</title>
<g id="a_node3"><a xlink:href="https://github.com/godaddy/gasket/tree/master/packages/gasket-redux-plugin" xlink:title="redux&#45;plugin\ncreate hook">
<polygon fill="#ffa500" stroke="#000000" points="418.7819,-257.1777 341.397,-278.8955 264.012,-257.1777 264.0843,-222.0375 418.7097,-222.0375 418.7819,-257.1777"/>
<text text-anchor="middle" x="341.397" y="-250.2652" font-family="Times,serif" font-size="14.00" fill="#000000">redux&#45;plugin</text>
<text text-anchor="middle" x="341.397" y="-236.2652" font-family="Times,serif" font-size="14.00" fill="#000000">create hook</text>
</a>
</g>
</g>
<!-- redux_webpack_hook -->
<g id="node4" class="node">
<title>redux_webpack_hook</title>
<g id="a_node4"><a xlink:href="https://github.com/godaddy/gasket/tree/master/packages/gasket-redux-plugin" xlink:title="redux&#45;plugin\nwebpack hook">
<polygon fill="#ffa500" stroke="#000000" points="606.3996,-257.1777 521.397,-278.8955 436.3943,-257.1777 436.4737,-222.0375 606.3203,-222.0375 606.3996,-257.1777"/>
<text text-anchor="middle" x="521.397" y="-250.2652" font-family="Times,serif" font-size="14.00" fill="#000000">redux&#45;plugin</text>
<text text-anchor="middle" x="521.397" y="-236.2652" font-family="Times,serif" font-size="14.00" fill="#000000">webpack hook</text>
</a>
</g>
</g>
<!-- redux_middleware_hook -->
<g id="node5" class="node">
<title>redux_middleware_hook</title>
<g id="a_node5"><a xlink:href="https://github.com/godaddy/gasket/tree/master/packages/gasket-redux-plugin" xlink:title="redux&#45;plugin\nmiddleware hook">
<polygon fill="#ffa500" stroke="#000000" points="246.4478,-257.1777 147.397,-278.8955 48.3461,-257.1777 48.4385,-222.0375 246.3554,-222.0375 246.4478,-257.1777"/>
<text text-anchor="middle" x="147.397" y="-250.2652" font-family="Times,serif" font-size="14.00" fill="#000000">redux&#45;plugin</text>
<text text-anchor="middle" x="147.397" y="-236.2652" font-family="Times,serif" font-size="14.00" fill="#000000">middleware hook</text>
</a>
</g>
</g>
<!-- invoke_initReduxState_0 -->
<g id="node7" class="node">
<title>invoke_initReduxState_0</title>
<polygon fill="#cfcfff" stroke="#000000" points="197.1111,-180 97.6829,-180 97.6829,-144 197.1111,-144 197.1111,-180"/>
<text text-anchor="middle" x="147.397" y="-157.8" font-family="Times,serif" font-size="14.00" fill="#000000">initReduxState</text>
</g>
<!-- redux_middleware_hook&#45;&gt;invoke_initReduxState_0 -->
<g id="edge2" class="edge">
<title>redux_middleware_hook&#45;&gt;invoke_initReduxState_0</title>
<path fill="none" stroke="#000000" d="M147.397,-221.8228C147.397,-211.8239 147.397,-200.3304 147.397,-190.107"/>
<polygon fill="#000000" stroke="#000000" points="150.8971,-190.0286 147.397,-180.0287 143.8971,-190.0287 150.8971,-190.0286"/>
</g>
<!-- invoke_initReduxState_0&#45;&gt;initReduxState -->
<g id="edge4" class="edge">
<title>invoke_initReduxState_0&#45;&gt;initReduxState</title>
<path fill="none" stroke="#000000" stroke-dasharray="1,5" d="M130.9947,-143.8314C123.2379,-135.2392 113.8443,-124.834 105.3914,-115.4708"/>
<polygon fill="#000000" stroke="#000000" points="107.8678,-112.9907 98.5688,-107.9134 102.6719,-117.6815 107.8678,-112.9907"/>
</g>
<!-- invoke_initReduxStore_1 -->
<g id="node8" class="node">
<title>invoke_initReduxStore_1</title>
<polygon fill="#cfcfff" stroke="#000000" points="268.6697,-108 168.1242,-108 168.1242,-72 268.6697,-72 268.6697,-108"/>
<text text-anchor="middle" x="218.397" y="-85.8" font-family="Times,serif" font-size="14.00" fill="#000000">initReduxStore</text>
</g>
<!-- invoke_initReduxState_0&#45;&gt;invoke_initReduxStore_1 -->
<g id="edge3" class="edge">
<title>invoke_initReduxState_0&#45;&gt;invoke_initReduxStore_1</title>
<path fill="none" stroke="#000000" d="M165.3133,-143.8314C173.7412,-135.2848 183.938,-124.9443 193.133,-115.6198"/>
<polygon fill="#000000" stroke="#000000" points="195.7101,-117.9912 200.2394,-108.4133 190.7258,-113.0761 195.7101,-117.9912"/>
</g>
<!-- invoke_initReduxStore_1&#45;&gt;initReduxStore -->
<g id="edge5" class="edge">
<title>invoke_initReduxStore_1&#45;&gt;initReduxStore</title>
<path fill="none" stroke="#000000" stroke-dasharray="1,5" d="M219.911,-71.8314C220.5527,-64.131 221.3158,-54.9743 222.0289,-46.4166"/>
<polygon fill="#000000" stroke="#000000" points="225.5199,-46.6694 222.8625,-36.4133 218.5441,-46.088 225.5199,-46.6694"/>
</g>
</g>
</svg>
