<?xml version="1.0" encoding="UTF-8" standalone="no"?>
<!DOCTYPE svg PUBLIC "-//W3C//DTD SVG 1.1//EN"
 "http://www.w3.org/Graphics/SVG/1.1/DTD/svg11.dtd">
<!-- Generated by graphviz version 2.40.1 (20161225.0304)
 -->
<!-- Title: %3 Pages: 1 -->
<svg width="764pt" height="431pt"
 viewBox="0.00 0.00 764.27 430.93" xmlns="http://www.w3.org/2000/svg" xmlns:xlink="http://www.w3.org/1999/xlink">
<g id="graph0" class="graph" transform="scale(1 1) rotate(0) translate(4 426.9303)">
<title>%3</title>
<polygon fill="#ffffff" stroke="transparent" points="-4,4 -4,-426.9303 760.2666,-426.9303 760.2666,4 -4,4"/>
<!-- serviceWorkerCacheKey -->
<g id="node1" class="node">
<title>serviceWorkerCacheKey</title>
<g id="a_node1"><a xlink:href="/packages/gasket-service-worker-plugin#serviceworkercachekey" xlink:title="serviceWorkerCacheKey">
<ellipse fill="#7fff7f" stroke="#000000" cx="120.1333" cy="-234" rx="98.0567" ry="18"/>
<text text-anchor="middle" x="120.1333" y="-229.8" font-family="Times,serif" font-size="14.00" fill="#000000">serviceWorkerCacheKey</text>
</a>
</g>
</g>
<!-- composeServiceWorker -->
<g id="node2" class="node">
<title>composeServiceWorker</title>
<g id="a_node2"><a xlink:href="/packages/gasket-service-worker-plugin#composeserviceworker" xlink:title="composeServiceWorker">
<ellipse fill="#7fff7f" stroke="#000000" cx="378.1333" cy="-234" rx="94.2233" ry="18"/>
<text text-anchor="middle" x="378.1333" y="-229.8" font-family="Times,serif" font-size="14.00" fill="#000000">composeServiceWorker</text>
</a>
</g>
</g>
<!-- workbox_composeServiceWorker_hook -->
<g id="node7" class="node">
<title>workbox_composeServiceWorker_hook</title>
<g id="a_node7"><a xlink:href="/packages/workbox-plugin" xlink:title="workbox&#45;plugin">
<polygon fill="#ffa500" stroke="#000000" points="460.9958,-167.5623 378.1333,-180 295.2708,-167.5623 295.3482,-147.4377 460.9185,-147.4377 460.9958,-167.5623"/>
<text text-anchor="middle" x="378.1333" y="-157.8" font-family="Times,serif" font-size="14.00" fill="#000000">workbox&#45;plugin</text>
</a>
</g>
</g>
<!-- composeServiceWorker&#45;&gt;workbox_composeServiceWorker_hook -->
<g id="edge1" class="edge">
<title>composeServiceWorker&#45;&gt;workbox_composeServiceWorker_hook:n</title>
<path fill="none" stroke="#000000" d="M378.1333,-216C378.1333,-208.3711 378.1333,-199.1585 378.1333,-190.0882"/>
<polygon fill="#000000" stroke="#000000" points="381.6334,-190 378.1333,-180 374.6334,-190 381.6334,-190"/>
</g>
<!-- workbox -->
<g id="node3" class="node">
<title>workbox</title>
<g id="a_node3"><a xlink:href="/packages/gasket-workbox-plugin#workbox" xlink:title="workbox">
<ellipse fill="#7fff7f" stroke="#000000" cx="378.1333" cy="-18" rx="41.5938" ry="18"/>
<text text-anchor="middle" x="378.1333" y="-13.8" font-family="Times,serif" font-size="14.00" fill="#000000">workbox</text>
</a>
</g>
</g>
<!-- serviceWorker_configure_hook -->
<g id="node4" class="node">
<title>serviceWorker_configure_hook</title>
<g id="a_node4"><a xlink:href="/packages/serviceWorker-plugin" xlink:title="serviceWorker&#45;plugin\nconfigure hook">
<polygon fill="#ffa500" stroke="#000000" points="240.4001,-401.1777 120.1333,-422.8955 -.1335,-401.1777 -.0212,-366.0375 240.2878,-366.0375 240.4001,-401.1777"/>
<text text-anchor="middle" x="120.1333" y="-394.2652" font-family="Times,serif" font-size="14.00" fill="#000000">serviceWorker&#45;plugin</text>
<text text-anchor="middle" x="120.1333" y="-380.2652" font-family="Times,serif" font-size="14.00" fill="#000000">configure hook</text>
</a>
</g>
</g>
<!-- invoke_serviceWorkerCacheKey_0 -->
<g id="node8" class="node">
<title>invoke_serviceWorkerCacheKey_0</title>
<polygon fill="#cfcfff" stroke="#000000" points="197.7169,-324 42.5498,-324 42.5498,-288 197.7169,-288 197.7169,-324"/>
<text text-anchor="middle" x="120.1333" y="-301.8" font-family="Times,serif" font-size="14.00" fill="#000000">serviceWorkerCacheKey</text>
</g>
<!-- serviceWorker_configure_hook&#45;&gt;invoke_serviceWorkerCacheKey_0 -->
<g id="edge2" class="edge">
<title>serviceWorker_configure_hook&#45;&gt;invoke_serviceWorkerCacheKey_0</title>
<path fill="none" stroke="#000000" d="M120.1333,-365.8228C120.1333,-355.8239 120.1333,-344.3304 120.1333,-334.107"/>
<polygon fill="#000000" stroke="#000000" points="123.6334,-334.0286 120.1333,-324.0287 116.6334,-334.0287 123.6334,-334.0286"/>
</g>
<!-- serviceWorker_express_hook -->
<g id="node5" class="node">
<title>serviceWorker_express_hook</title>
<g id="a_node5"><a xlink:href="/packages/serviceWorker-plugin" xlink:title="serviceWorker&#45;plugin\nexpress hook">
<polygon fill="#ffa500" stroke="#000000" points="498.4001,-401.1777 378.1333,-422.8955 257.8665,-401.1777 257.9788,-366.0375 498.2878,-366.0375 498.4001,-401.1777"/>
<text text-anchor="middle" x="378.1333" y="-394.2652" font-family="Times,serif" font-size="14.00" fill="#000000">serviceWorker&#45;plugin</text>
<text text-anchor="middle" x="378.1333" y="-380.2652" font-family="Times,serif" font-size="14.00" fill="#000000">express hook</text>
</a>
</g>
</g>
<!-- invoke_composeServiceWorker_1 -->
<g id="node9" class="node">
<title>invoke_composeServiceWorker_1</title>
<polygon fill="#cfcfff" stroke="#000000" points="453.0166,-324 303.25,-324 303.25,-288 453.0166,-288 453.0166,-324"/>
<text text-anchor="middle" x="378.1333" y="-301.8" font-family="Times,serif" font-size="14.00" fill="#000000">composeServiceWorker</text>
</g>
<!-- serviceWorker_express_hook&#45;&gt;invoke_composeServiceWorker_1 -->
<g id="edge3" class="edge">
<title>serviceWorker_express_hook&#45;&gt;invoke_composeServiceWorker_1</title>
<path fill="none" stroke="#000000" d="M378.1333,-365.8228C378.1333,-355.8239 378.1333,-344.3304 378.1333,-334.107"/>
<polygon fill="#000000" stroke="#000000" points="381.6334,-334.0286 378.1333,-324.0287 374.6334,-334.0287 381.6334,-334.0286"/>
</g>
<!-- serviceWorker_middleware_hook -->
<g id="node6" class="node">
<title>serviceWorker_middleware_hook</title>
<g id="a_node6"><a xlink:href="/packages/serviceWorker-plugin" xlink:title="serviceWorker&#45;plugin\nmiddleware hook">
<polygon fill="#ffa500" stroke="#000000" points="756.4001,-401.1777 636.1333,-422.8955 515.8665,-401.1777 515.9788,-366.0375 756.2878,-366.0375 756.4001,-401.1777"/>
<text text-anchor="middle" x="636.1333" y="-394.2652" font-family="Times,serif" font-size="14.00" fill="#000000">serviceWorker&#45;plugin</text>
<text text-anchor="middle" x="636.1333" y="-380.2652" font-family="Times,serif" font-size="14.00" fill="#000000">middleware hook</text>
</a>
</g>
</g>
<!-- invoke_workbox_2 -->
<g id="node10" class="node">
<title>invoke_workbox_2</title>
<polygon fill="#cfcfff" stroke="#000000" points="410.9062,-108 345.3605,-108 345.3605,-72 410.9062,-72 410.9062,-108"/>
<text text-anchor="middle" x="378.1333" y="-85.8" font-family="Times,serif" font-size="14.00" fill="#000000">workbox</text>
</g>
<!-- workbox_composeServiceWorker_hook&#45;&gt;invoke_workbox_2 -->
<g id="edge4" class="edge">
<title>workbox_composeServiceWorker_hook&#45;&gt;invoke_workbox_2</title>
<path fill="none" stroke="#000000" d="M378.1333,-147.4297C378.1333,-139.1011 378.1333,-128.3665 378.1333,-118.436"/>
<polygon fill="#000000" stroke="#000000" points="381.6334,-118.1279 378.1333,-108.128 374.6334,-118.128 381.6334,-118.1279"/>
</g>
<!-- invoke_serviceWorkerCacheKey_0&#45;&gt;serviceWorkerCacheKey -->
<g id="edge5" class="edge">
<title>invoke_serviceWorkerCacheKey_0&#45;&gt;serviceWorkerCacheKey</title>
<path fill="none" stroke="#000000" stroke-dasharray="1,5" d="M120.1333,-287.8314C120.1333,-280.131 120.1333,-270.9743 120.1333,-262.4166"/>
<polygon fill="#000000" stroke="#000000" points="123.6334,-262.4132 120.1333,-252.4133 116.6334,-262.4133 123.6334,-262.4132"/>
</g>
<!-- invoke_composeServiceWorker_1&#45;&gt;composeServiceWorker -->
<g id="edge6" class="edge">
<title>invoke_composeServiceWorker_1&#45;&gt;composeServiceWorker</title>
<path fill="none" stroke="#000000" stroke-dasharray="1,5" d="M378.1333,-287.8314C378.1333,-280.131 378.1333,-270.9743 378.1333,-262.4166"/>
<polygon fill="#000000" stroke="#000000" points="381.6334,-262.4132 378.1333,-252.4133 374.6334,-262.4133 381.6334,-262.4132"/>
</g>
<!-- invoke_workbox_2&#45;&gt;workbox -->
<g id="edge7" class="edge">
<title>invoke_workbox_2&#45;&gt;workbox</title>
<path fill="none" stroke="#000000" stroke-dasharray="1,5" d="M378.1333,-71.8314C378.1333,-64.131 378.1333,-54.9743 378.1333,-46.4166"/>
<polygon fill="#000000" stroke="#000000" points="381.6334,-46.4132 378.1333,-36.4133 374.6334,-46.4133 381.6334,-46.4132"/>
</g>
</g>
</svg>
