<?xml version="1.0" encoding="UTF-8" standalone="no"?>
<!DOCTYPE svg PUBLIC "-//W3C//DTD SVG 1.1//EN"
 "http://www.w3.org/Graphics/SVG/1.1/DTD/svg11.dtd">
<!-- Generated by graphviz version 2.40.1 (20161225.0304)
 -->
<!-- Title: %3 Pages: 1 -->
<svg width="936pt" height="215pt"
 viewBox="0.00 0.00 935.93 214.93" xmlns="http://www.w3.org/2000/svg" xmlns:xlink="http://www.w3.org/1999/xlink">
<g id="graph0" class="graph" transform="scale(1 1) rotate(0) translate(4 210.9303)">
<title>%3</title>
<polygon fill="#ffffff" stroke="transparent" points="-4,4 -4,-210.9303 931.9317,-210.9303 931.9317,4 -4,4"/>
<!-- workbox -->
<g id="node1" class="node">
<title>workbox</title>
<g id="a_node1"><a xlink:href="https://github.com/godaddy/gasket/tree/master/packages/gasket-workbox-plugin#workbox" xlink:title="workbox">
<ellipse fill="#7fff7f" stroke="#000000" cx="158.0974" cy="-18" rx="41.5938" ry="18"/>
<text text-anchor="middle" x="158.0974" y="-13.8" font-family="Times,serif" font-size="14.00" fill="#000000">workbox</text>
</a>
</g>
</g>
<!-- workbox_configure_hook -->
<g id="node2" class="node">
<title>workbox_configure_hook</title>
<g id="a_node2"><a xlink:href="https://github.com/godaddy/gasket/tree/master/packages/workbox-plugin" xlink:title="workbox&#45;plugin\nconfigure hook">
<polygon fill="#ffa500" stroke="#000000" points="519.7663,-185.1777 427.0974,-206.8955 334.4284,-185.1777 334.5149,-150.0375 519.6798,-150.0375 519.7663,-185.1777"/>
<text text-anchor="middle" x="427.0974" y="-178.2652" font-family="Times,serif" font-size="14.00" fill="#000000">workbox&#45;plugin</text>
<text text-anchor="middle" x="427.0974" y="-164.2652" font-family="Times,serif" font-size="14.00" fill="#000000">configure hook</text>
</a>
</g>
</g>
<!-- workbox_build_hook -->
<g id="node3" class="node">
<title>workbox_build_hook</title>
<g id="a_node3"><a xlink:href="https://github.com/godaddy/gasket/tree/master/packages/workbox-plugin" xlink:title="workbox&#45;plugin\nbuild hook">
<polygon fill="#ffa500" stroke="#000000" points="723.7663,-185.1777 631.0974,-206.8955 538.4284,-185.1777 538.5149,-150.0375 723.6798,-150.0375 723.7663,-185.1777"/>
<text text-anchor="middle" x="631.0974" y="-178.2652" font-family="Times,serif" font-size="14.00" fill="#000000">workbox&#45;plugin</text>
<text text-anchor="middle" x="631.0974" y="-164.2652" font-family="Times,serif" font-size="14.00" fill="#000000">build hook</text>
</a>
</g>
</g>
<!-- workbox_express_hook -->
<g id="node4" class="node">
<title>workbox_express_hook</title>
<g id="a_node4"><a xlink:href="https://github.com/godaddy/gasket/tree/master/packages/workbox-plugin" xlink:title="workbox&#45;plugin\nexpress hook">
<polygon fill="#ffa500" stroke="#000000" points="927.7663,-185.1777 835.0974,-206.8955 742.4284,-185.1777 742.5149,-150.0375 927.6798,-150.0375 927.7663,-185.1777"/>
<text text-anchor="middle" x="835.0974" y="-178.2652" font-family="Times,serif" font-size="14.00" fill="#000000">workbox&#45;plugin</text>
<text text-anchor="middle" x="835.0974" y="-164.2652" font-family="Times,serif" font-size="14.00" fill="#000000">express hook</text>
</a>
</g>
</g>
<!-- workbox_composeServiceWorker_hook -->
<g id="node5" class="node">
<title>workbox_composeServiceWorker_hook</title>
<g id="a_node5"><a xlink:href="https://github.com/godaddy/gasket/tree/master/packages/workbox-plugin" xlink:title="workbox&#45;plugin\ncomposeServiceWorker hook">
<polygon fill="#ffa500" stroke="#000000" points="316.2922,-185.1777 158.0974,-206.8955 -.0974,-185.1777 .0502,-150.0375 316.1445,-150.0375 316.2922,-185.1777"/>
<text text-anchor="middle" x="158.0974" y="-178.2652" font-family="Times,serif" font-size="14.00" fill="#000000">workbox&#45;plugin</text>
<text text-anchor="middle" x="158.0974" y="-164.2652" font-family="Times,serif" font-size="14.00" fill="#000000">composeServiceWorker hook</text>
</a>
</g>
</g>
<!-- invoke_workbox_0 -->
<g id="node6" class="node">
<title>invoke_workbox_0</title>
<polygon fill="#cfcfff" stroke="#000000" points="190.8702,-108 125.3245,-108 125.3245,-72 190.8702,-72 190.8702,-108"/>
<text text-anchor="middle" x="158.0974" y="-85.8" font-family="Times,serif" font-size="14.00" fill="#000000">workbox</text>
</g>
<!-- workbox_composeServiceWorker_hook&#45;&gt;invoke_workbox_0 -->
<g id="edge1" class="edge">
<title>workbox_composeServiceWorker_hook&#45;&gt;invoke_workbox_0</title>
<path fill="none" stroke="#000000" d="M158.0974,-149.8228C158.0974,-139.8239 158.0974,-128.3304 158.0974,-118.107"/>
<polygon fill="#000000" stroke="#000000" points="161.5975,-118.0286 158.0974,-108.0287 154.5975,-118.0287 161.5975,-118.0286"/>
</g>
<!-- invoke_workbox_0&#45;&gt;workbox -->
<g id="edge2" class="edge">
<title>invoke_workbox_0&#45;&gt;workbox</title>
<path fill="none" stroke="#000000" stroke-dasharray="1,5" d="M158.0974,-71.8314C158.0974,-64.131 158.0974,-54.9743 158.0974,-46.4166"/>
<polygon fill="#000000" stroke="#000000" points="161.5975,-46.4132 158.0974,-36.4133 154.5975,-46.4133 161.5975,-46.4132"/>
</g>
</g>
</svg>
