<?xml version="1.0" encoding="UTF-8" standalone="no"?>
<!DOCTYPE svg PUBLIC "-//W3C//DTD SVG 1.1//EN"
 "http://www.w3.org/Graphics/SVG/1.1/DTD/svg11.dtd">
<!-- Generated by graphviz version 2.40.1 (20161225.0304)
 -->
<!-- Title: %3 Pages: 1 -->
<svg width="669pt" height="548pt"
 viewBox="0.00 0.00 669.38 548.00" xmlns="http://www.w3.org/2000/svg" xmlns:xlink="http://www.w3.org/1999/xlink">
<g id="graph0" class="graph" transform="scale(1 1) rotate(0) translate(4 544)">
<title>%3</title>
<polygon fill="#ffffff" stroke="transparent" points="-4,4 -4,-544 665.3755,-544 665.3755,4 -4,4"/>
<!-- analyzeCmd -->
<g id="node1" class="node">
<title>analyzeCmd</title>
<g id="a_node1"><a xlink:href="https://github.com/godaddy/gasket/tree/master/packages/gasket-cli#gasket-analyze" xlink:title="analyze">
<ellipse fill="#ffff00" stroke="#000000" cx="418.4443" cy="-522" rx="37.2161" ry="18"/>
<text text-anchor="middle" x="418.4443" y="-517.8" font-family="Times,serif" font-size="14.00" fill="#000000">analyze</text>
</a>
</g>
</g>
<!-- invoke_build_0 -->
<g id="node12" class="node">
<title>invoke_build_0</title>
<polygon fill="#cfcfff" stroke="#000000" points="445.4443,-468 391.4443,-468 391.4443,-432 445.4443,-432 445.4443,-468"/>
<text text-anchor="middle" x="418.4443" y="-445.8" font-family="Times,serif" font-size="14.00" fill="#000000">build</text>
</g>
<!-- analyzeCmd&#45;&gt;invoke_build_0 -->
<g id="edge8" class="edge">
<title>analyzeCmd&#45;&gt;invoke_build_0</title>
<path fill="none" stroke="#000000" d="M418.4443,-503.8314C418.4443,-496.131 418.4443,-486.9743 418.4443,-478.4166"/>
<polygon fill="#000000" stroke="#000000" points="421.9444,-478.4132 418.4443,-468.4133 414.9444,-478.4133 421.9444,-478.4132"/>
</g>
<!-- build -->
<g id="node2" class="node">
<title>build</title>
<g id="a_node2"><a xlink:href="https://github.com/godaddy/gasket/tree/master/packages/gasket-cli#gasket-build" xlink:title="build">
<ellipse fill="#7fff7f" stroke="#000000" cx="418.4443" cy="-378" rx="28.0736" ry="18"/>
<text text-anchor="middle" x="418.4443" y="-373.8" font-family="Times,serif" font-size="14.00" fill="#000000">build</text>
</a>
</g>
</g>
<!-- webpack_build_hook -->
<g id="node5" class="node">
<title>webpack_build_hook</title>
<g id="a_node5"><a xlink:href="https://github.com/godaddy/gasket/tree/master/packages/webpack-plugin" xlink:title="webpack&#45;plugin">
<polygon fill="#ffa500" stroke="#000000" points="341.2748,-311.5623 258.4443,-324 175.6138,-311.5623 175.6911,-291.4377 341.1975,-291.4377 341.2748,-311.5623"/>
<text text-anchor="middle" x="258.4443" y="-301.8" font-family="Times,serif" font-size="14.00" fill="#000000">webpack&#45;plugin</text>
</a>
</g>
</g>
<!-- build&#45;&gt;webpack_build_hook -->
<g id="edge1" class="edge">
<title>build&#45;&gt;webpack_build_hook:n</title>
<path fill="none" stroke="#000000" d="M390.5744,-374.4271C350.2844,-368.5698 278.7493,-355.3428 262.0152,-333.5151"/>
<polygon fill="#000000" stroke="#000000" points="265.2348,-332.1326 258.4443,-324 258.6811,-334.5922 265.2348,-332.1326"/>
</g>
<!-- intl_build_hook -->
<g id="node6" class="node">
<title>intl_build_hook</title>
<g id="a_node6"><a xlink:href="https://github.com/godaddy/gasket/tree/master/packages/intl-plugin" xlink:title="intl&#45;plugin">
<polygon fill="#ffa500" stroke="#000000" points="477.2362,-311.5623 418.4443,-324 359.6524,-311.5623 359.7073,-291.4377 477.1813,-291.4377 477.2362,-311.5623"/>
<text text-anchor="middle" x="418.4443" y="-301.8" font-family="Times,serif" font-size="14.00" fill="#000000">intl&#45;plugin</text>
</a>
</g>
</g>
<!-- build&#45;&gt;intl_build_hook -->
<g id="edge2" class="edge">
<title>build&#45;&gt;intl_build_hook:n</title>
<path fill="none" stroke="#000000" d="M418.4443,-360C418.4443,-352.3711 418.4443,-343.1585 418.4443,-334.0882"/>
<polygon fill="#000000" stroke="#000000" points="421.9444,-334 418.4443,-324 414.9444,-334 421.9444,-334"/>
</g>
<!-- workbox_build_hook -->
<g id="node7" class="node">
<title>workbox_build_hook</title>
<g id="a_node7"><a xlink:href="https://github.com/godaddy/gasket/tree/master/packages/workbox-plugin" xlink:title="workbox&#45;plugin">
<polygon fill="#ffa500" stroke="#000000" points="661.3068,-311.5623 578.4443,-324 495.5818,-311.5623 495.6592,-291.4377 661.2295,-291.4377 661.3068,-311.5623"/>
<text text-anchor="middle" x="578.4443" y="-301.8" font-family="Times,serif" font-size="14.00" fill="#000000">workbox&#45;plugin</text>
</a>
</g>
</g>
<!-- build&#45;&gt;workbox_build_hook -->
<g id="edge3" class="edge">
<title>build&#45;&gt;workbox_build_hook:n</title>
<path fill="none" stroke="#000000" d="M446.3142,-374.4271C486.6042,-368.5698 558.1393,-355.3428 574.8734,-333.5151"/>
<polygon fill="#000000" stroke="#000000" points="578.2075,-334.5922 578.4443,-324 571.6538,-332.1326 578.2075,-334.5922"/>
</g>
<!-- webpackChain -->
<g id="node3" class="node">
<title>webpackChain</title>
<g id="a_node3"><a xlink:href="https://github.com/godaddy/gasket/tree/master/packages/gasket-webpack-plugin#webpackchain" xlink:title="webpackChain">
<ellipse fill="#7fff7f" stroke="#000000" cx="201.4443" cy="-162" rx="62.8166" ry="18"/>
<text text-anchor="middle" x="201.4443" y="-157.8" font-family="Times,serif" font-size="14.00" fill="#000000">webpackChain</text>
</a>
</g>
</g>
<!-- webpack -->
<g id="node4" class="node">
<title>webpack</title>
<g id="a_node4"><a xlink:href="https://github.com/godaddy/gasket/tree/master/packages/gasket-webpack-plugin#webpack" xlink:title="webpack">
<ellipse fill="#7fff7f" stroke="#000000" cx="315.4443" cy="-90" rx="41.5679" ry="18"/>
<text text-anchor="middle" x="315.4443" y="-85.8" font-family="Times,serif" font-size="14.00" fill="#000000">webpack</text>
</a>
</g>
</g>
<!-- analyze_webpack_hook -->
<g id="node8" class="node">
<title>analyze_webpack_hook</title>
<g id="a_node8"><a xlink:href="https://github.com/godaddy/gasket/tree/master/packages/analyze-plugin" xlink:title="analyze&#45;plugin">
<polygon fill="#ffa500" stroke="#000000" points="154.833,-23.5623 77.4443,-36 .0557,-23.5623 .1279,-3.4377 154.7607,-3.4377 154.833,-23.5623"/>
<text text-anchor="middle" x="77.4443" y="-13.8" font-family="Times,serif" font-size="14.00" fill="#000000">analyze&#45;plugin</text>
</a>
</g>
</g>
<!-- webpack&#45;&gt;analyze_webpack_hook -->
<g id="edge4" class="edge">
<title>webpack&#45;&gt;analyze_webpack_hook:n</title>
<path fill="none" stroke="#000000" d="M275.34,-84.9893C216.5202,-77.1634 110.8956,-61.1449 83.8766,-43.9552"/>
<polygon fill="#000000" stroke="#000000" points="86.4535,-41.5754 77.4443,-36 81.0102,-45.9767 86.4535,-41.5754"/>
</g>
<!-- assets_webpack_hook -->
<g id="node9" class="node">
<title>assets_webpack_hook</title>
<g id="a_node9"><a xlink:href="https://github.com/godaddy/gasket/tree/master/packages/assets-plugin" xlink:title="assets&#45;plugin">
<polygon fill="#ffa500" stroke="#000000" points="312.0875,-23.5623 242.4443,-36 172.8011,-23.5623 172.8661,-3.4377 312.0225,-3.4377 312.0875,-23.5623"/>
<text text-anchor="middle" x="242.4443" y="-13.8" font-family="Times,serif" font-size="14.00" fill="#000000">assets&#45;plugin</text>
</a>
</g>
</g>
<!-- webpack&#45;&gt;assets_webpack_hook -->
<g id="edge5" class="edge">
<title>webpack&#45;&gt;assets_webpack_hook:n</title>
<path fill="none" stroke="#000000" d="M281.5088,-79.2896C265.7219,-72.3661 249.292,-61.7087 244.1105,-46.253"/>
<polygon fill="#000000" stroke="#000000" points="247.5032,-45.3091 242.4443,-36 240.5938,-46.432 247.5032,-45.3091"/>
</g>
<!-- log_webpack_hook -->
<g id="node10" class="node">
<title>log_webpack_hook</title>
<g id="a_node10"><a xlink:href="https://github.com/godaddy/gasket/tree/master/packages/log-plugin" xlink:title="log&#45;plugin">
<polygon fill="#ffa500" stroke="#000000" points="446.5189,-23.5623 388.4443,-36 330.3697,-23.5623 330.4239,-3.4377 446.4647,-3.4377 446.5189,-23.5623"/>
<text text-anchor="middle" x="388.4443" y="-13.8" font-family="Times,serif" font-size="14.00" fill="#000000">log&#45;plugin</text>
</a>
</g>
</g>
<!-- webpack&#45;&gt;log_webpack_hook -->
<g id="edge6" class="edge">
<title>webpack&#45;&gt;log_webpack_hook:n</title>
<path fill="none" stroke="#000000" d="M349.3798,-79.2896C365.1667,-72.3661 381.5966,-61.7087 386.7781,-46.253"/>
<polygon fill="#000000" stroke="#000000" points="390.2948,-46.432 388.4443,-36 383.3855,-45.3091 390.2948,-46.432"/>
</g>
<!-- redux_webpack_hook -->
<g id="node11" class="node">
<title>redux_webpack_hook</title>
<g id="a_node11"><a xlink:href="https://github.com/godaddy/gasket/tree/master/packages/redux-plugin" xlink:title="redux&#45;plugin">
<polygon fill="#ffa500" stroke="#000000" points="602.3598,-23.5623 533.4443,-36 464.5288,-23.5623 464.5931,-3.4377 602.2955,-3.4377 602.3598,-23.5623"/>
<text text-anchor="middle" x="533.4443" y="-13.8" font-family="Times,serif" font-size="14.00" fill="#000000">redux&#45;plugin</text>
</a>
</g>
</g>
<!-- webpack&#45;&gt;redux_webpack_hook -->
<g id="edge7" class="edge">
<title>webpack&#45;&gt;redux_webpack_hook:n</title>
<path fill="none" stroke="#000000" d="M356.9616,-88.1334C414.0355,-84.5304 511.8053,-74.2685 530.3567,-45.8715"/>
<polygon fill="#000000" stroke="#000000" points="533.7995,-46.5889 533.4443,-36 527.1187,-44.4992 533.7995,-46.5889"/>
</g>
<!-- invoke_webpackChain_1 -->
<g id="node13" class="node">
<title>invoke_webpackChain_1</title>
<polygon fill="#cfcfff" stroke="#000000" points="308.1379,-252 208.7508,-252 208.7508,-216 308.1379,-216 308.1379,-252"/>
<text text-anchor="middle" x="258.4443" y="-229.8" font-family="Times,serif" font-size="14.00" fill="#000000">webpackChain</text>
</g>
<!-- webpack_build_hook&#45;&gt;invoke_webpackChain_1 -->
<g id="edge9" class="edge">
<title>webpack_build_hook&#45;&gt;invoke_webpackChain_1</title>
<path fill="none" stroke="#000000" d="M258.4443,-291.4297C258.4443,-283.1011 258.4443,-272.3665 258.4443,-262.436"/>
<polygon fill="#000000" stroke="#000000" points="261.9444,-262.1279 258.4443,-252.128 254.9444,-262.128 261.9444,-262.1279"/>
</g>
<!-- invoke_build_0&#45;&gt;build -->
<g id="edge11" class="edge">
<title>invoke_build_0&#45;&gt;build</title>
<path fill="none" stroke="#000000" stroke-dasharray="1,5" d="M418.4443,-431.8314C418.4443,-424.131 418.4443,-414.9743 418.4443,-406.4166"/>
<polygon fill="#000000" stroke="#000000" points="421.9444,-406.4132 418.4443,-396.4133 414.9444,-406.4133 421.9444,-406.4132"/>
</g>
<!-- invoke_webpackChain_1&#45;&gt;webpackChain -->
<g id="edge12" class="edge">
<title>invoke_webpackChain_1&#45;&gt;webpackChain</title>
<path fill="none" stroke="#000000" stroke-dasharray="1,5" d="M244.0608,-215.8314C237.3947,-207.411 229.3502,-197.2495 222.0544,-188.0338"/>
<polygon fill="#000000" stroke="#000000" points="224.577,-185.5814 215.6258,-179.9134 219.0887,-189.9264 224.577,-185.5814"/>
</g>
<!-- invoke_webpack_2 -->
<g id="node14" class="node">
<title>invoke_webpack_2</title>
<polygon fill="#cfcfff" stroke="#000000" points="348.1967,-180 282.6919,-180 282.6919,-144 348.1967,-144 348.1967,-180"/>
<text text-anchor="middle" x="315.4443" y="-157.8" font-family="Times,serif" font-size="14.00" fill="#000000">webpack</text>
</g>
<!-- invoke_webpackChain_1&#45;&gt;invoke_webpack_2 -->
<g id="edge10" class="edge">
<title>invoke_webpackChain_1&#45;&gt;invoke_webpack_2</title>
<path fill="none" stroke="#000000" d="M272.8278,-215.8314C279.3929,-207.5386 287.295,-197.557 294.5021,-188.4533"/>
<polygon fill="#000000" stroke="#000000" points="297.4042,-190.4262 300.8671,-180.4133 291.9159,-186.0813 297.4042,-190.4262"/>
</g>
<!-- invoke_webpack_2&#45;&gt;webpack -->
<g id="edge13" class="edge">
<title>invoke_webpack_2&#45;&gt;webpack</title>
<path fill="none" stroke="#000000" stroke-dasharray="1,5" d="M315.4443,-143.8314C315.4443,-136.131 315.4443,-126.9743 315.4443,-118.4166"/>
<polygon fill="#000000" stroke="#000000" points="318.9444,-118.4132 315.4443,-108.4133 311.9444,-118.4133 318.9444,-118.4132"/>
</g>
</g>
</svg>
