<?xml version="1.0" encoding="UTF-8" standalone="no"?>
<!DOCTYPE svg PUBLIC "-//W3C//DTD SVG 1.1//EN"
 "http://www.w3.org/Graphics/SVG/1.1/DTD/svg11.dtd">
<!-- Generated by graphviz version 2.40.1 (20161225.0304)
 -->
<!-- Title: %3 Pages: 1 -->
<svg width="718pt" height="332pt"
 viewBox="0.00 0.00 717.60 332.00" xmlns="http://www.w3.org/2000/svg" xmlns:xlink="http://www.w3.org/1999/xlink">
<g id="graph0" class="graph" transform="scale(1 1) rotate(0) translate(4 328)">
<title>%3</title>
<polygon fill="#ffffff" stroke="transparent" points="-4,4 -4,-328 713.6035,-328 713.6035,4 -4,4"/>
<!-- createCmd -->
<g id="node1" class="node">
<title>createCmd</title>
<g id="a_node1"><a xlink:href="https://github.com/godaddy/gasket/tree/master/packages/gasket-cli#gasket-create" xlink:title="create">
<ellipse fill="#ffff00" stroke="#000000" cx="289.6458" cy="-306" rx="31.4201" ry="18"/>
<text text-anchor="middle" x="289.6458" y="-301.8" font-family="Times,serif" font-size="14.00" fill="#000000">create</text>
</a>
</g>
</g>
<!-- invoke_prompt_0 -->
<g id="node9" class="node">
<title>invoke_prompt_0</title>
<polygon fill="#cfcfff" stroke="#000000" points="318.0889,-252 261.2026,-252 261.2026,-216 318.0889,-216 318.0889,-252"/>
<text text-anchor="middle" x="289.6458" y="-229.8" font-family="Times,serif" font-size="14.00" fill="#000000">prompt</text>
</g>
<!-- createCmd&#45;&gt;invoke_prompt_0 -->
<g id="edge6" class="edge">
<title>createCmd&#45;&gt;invoke_prompt_0</title>
<path fill="none" stroke="#000000" d="M289.6458,-287.8314C289.6458,-280.131 289.6458,-270.9743 289.6458,-262.4166"/>
<polygon fill="#000000" stroke="#000000" points="293.1459,-262.4132 289.6458,-252.4133 286.1459,-262.4133 293.1459,-262.4132"/>
</g>
<!-- prompt -->
<g id="node2" class="node">
<title>prompt</title>
<ellipse fill="#7fff7f" stroke="#000000" cx="249.6458" cy="-162" rx="35.806" ry="18"/>
<text text-anchor="middle" x="249.6458" y="-157.8" font-family="Times,serif" font-size="14.00" fill="#000000">prompt</text>
</g>
<!-- create -->
<g id="node3" class="node">
<title>create</title>
<g id="a_node3"><a xlink:href="https://github.com/godaddy/gasket/tree/master/packages/gasket-cli#create" xlink:title="create">
<ellipse fill="#7fff7f" stroke="#000000" cx="330.6458" cy="-90" rx="31.4201" ry="18"/>
<text text-anchor="middle" x="330.6458" y="-85.8" font-family="Times,serif" font-size="14.00" fill="#000000">create</text>
</a>
</g>
</g>
<!-- intl_create_hook -->
<g id="node4" class="node">
<title>intl_create_hook</title>
<g id="a_node4"><a xlink:href="https://github.com/godaddy/gasket/tree/master/packages/gasket-plugin-intl" xlink:title="intl&#45;plugin">
<polygon fill="#ffa500" stroke="#000000" points="117.4377,-23.5623 58.6458,-36 -.1461,-23.5623 -.0913,-3.4377 117.3828,-3.4377 117.4377,-23.5623"/>
<text text-anchor="middle" x="58.6458" y="-13.8" font-family="Times,serif" font-size="14.00" fill="#000000">intl&#45;plugin</text>
</a>
</g>
</g>
<!-- create&#45;&gt;intl_create_hook -->
<g id="edge1" class="edge">
<title>create&#45;&gt;intl_create_hook:n</title>
<path fill="none" stroke="#000000" d="M299.7087,-87.0774C236.4937,-80.7368 95.846,-64.6202 64.7917,-44.0784"/>
<polygon fill="#000000" stroke="#000000" points="67.4861,-41.8394 58.6458,-36 61.9151,-46.0778 67.4861,-41.8394"/>
</g>
<!-- jest_create_hook -->
<g id="node5" class="node">
<title>jest_create_hook</title>
<g id="a_node5"><a xlink:href="https://github.com/godaddy/gasket/tree/master/packages/gasket-plugin-jest" xlink:title="jest&#45;plugin">
<polygon fill="#ffa500" stroke="#000000" points="254.1446,-23.5623 194.6458,-36 135.1469,-23.5623 135.2025,-3.4377 254.0891,-3.4377 254.1446,-23.5623"/>
<text text-anchor="middle" x="194.6458" y="-13.8" font-family="Times,serif" font-size="14.00" fill="#000000">jest&#45;plugin</text>
</a>
</g>
</g>
<!-- create&#45;&gt;jest_create_hook -->
<g id="edge2" class="edge">
<title>create&#45;&gt;jest_create_hook:n</title>
<path fill="none" stroke="#000000" d="M300.8,-84.3834C266.7087,-77.2288 213.7005,-63.6155 198.7148,-45.7305"/>
<polygon fill="#000000" stroke="#000000" points="201.7329,-43.8755 194.6458,-36 195.2748,-46.5762 201.7329,-43.8755"/>
</g>
<!-- lint_create_hook -->
<g id="node6" class="node">
<title>lint_create_hook</title>
<g id="a_node6"><a xlink:href="https://github.com/godaddy/gasket/tree/master/packages/gasket-plugin-lint" xlink:title="lint&#45;plugin">
<polygon fill="#ffa500" stroke="#000000" points="389.4377,-23.5623 330.6458,-36 271.8539,-23.5623 271.9087,-3.4377 389.3828,-3.4377 389.4377,-23.5623"/>
<text text-anchor="middle" x="330.6458" y="-13.8" font-family="Times,serif" font-size="14.00" fill="#000000">lint&#45;plugin</text>
</a>
</g>
</g>
<!-- create&#45;&gt;lint_create_hook -->
<g id="edge3" class="edge">
<title>create&#45;&gt;lint_create_hook:n</title>
<path fill="none" stroke="#000000" d="M330.6458,-72C330.6458,-64.3711 330.6458,-55.1585 330.6458,-46.0882"/>
<polygon fill="#000000" stroke="#000000" points="334.1459,-46 330.6458,-36 327.1459,-46 334.1459,-46"/>
</g>
<!-- mocha_create_hook -->
<g id="node7" class="node">
<title>mocha_create_hook</title>
<g id="a_node7"><a xlink:href="https://github.com/godaddy/gasket/tree/master/packages/gasket-plugin-mocha" xlink:title="mocha&#45;plugin">
<polygon fill="#ffa500" stroke="#000000" points="554.0591,-23.5623 480.6458,-36 407.2325,-23.5623 407.301,-3.4377 553.9906,-3.4377 554.0591,-23.5623"/>
<text text-anchor="middle" x="480.6458" y="-13.8" font-family="Times,serif" font-size="14.00" fill="#000000">mocha&#45;plugin</text>
</a>
</g>
</g>
<!-- create&#45;&gt;mocha_create_hook -->
<g id="edge4" class="edge">
<title>create&#45;&gt;mocha_create_hook:n</title>
<path fill="none" stroke="#000000" d="M361.0005,-85.3859C399.0097,-78.8547 461.0716,-65.453 476.8864,-45.5831"/>
<polygon fill="#000000" stroke="#000000" points="480.252,-46.5875 480.6458,-36 473.7355,-44.0311 480.252,-46.5875"/>
</g>
<!-- redux_create_hook -->
<g id="node8" class="node">
<title>redux_create_hook</title>
<g id="a_node8"><a xlink:href="https://github.com/godaddy/gasket/tree/master/packages/gasket-plugin-redux" xlink:title="redux&#45;plugin">
<polygon fill="#ffa500" stroke="#000000" points="709.5613,-23.5623 640.6458,-36 571.7303,-23.5623 571.7946,-3.4377 709.4969,-3.4377 709.5613,-23.5623"/>
<text text-anchor="middle" x="640.6458" y="-13.8" font-family="Times,serif" font-size="14.00" fill="#000000">redux&#45;plugin</text>
</a>
</g>
</g>
<!-- create&#45;&gt;redux_create_hook -->
<g id="edge5" class="edge">
<title>create&#45;&gt;redux_create_hook:n</title>
<path fill="none" stroke="#000000" d="M361.7891,-87.8231C432.4169,-82.5132 601.2257,-67.5957 634.7864,-44.2418"/>
<polygon fill="#000000" stroke="#000000" points="637.704,-46.1783 640.6458,-36 631.9989,-42.1222 637.704,-46.1783"/>
</g>
<!-- invoke_prompt_0&#45;&gt;prompt -->
<g id="edge8" class="edge">
<title>invoke_prompt_0&#45;&gt;prompt</title>
<path fill="none" stroke="#000000" stroke-dasharray="1,5" d="M279.5521,-215.8314C274.9002,-207.4579 269.2916,-197.3626 264.1945,-188.1878"/>
<polygon fill="#000000" stroke="#000000" points="267.2383,-186.4595 259.3223,-179.4177 261.1192,-189.8591 267.2383,-186.4595"/>
</g>
<!-- invoke_create_1 -->
<g id="node10" class="node">
<title>invoke_create_1</title>
<polygon fill="#cfcfff" stroke="#000000" points="357.6458,-180 303.6458,-180 303.6458,-144 357.6458,-144 357.6458,-180"/>
<text text-anchor="middle" x="330.6458" y="-157.8" font-family="Times,serif" font-size="14.00" fill="#000000">create</text>
</g>
<!-- invoke_prompt_0&#45;&gt;invoke_create_1 -->
<g id="edge7" class="edge">
<title>invoke_prompt_0&#45;&gt;invoke_create_1</title>
<path fill="none" stroke="#000000" d="M299.9918,-215.8314C304.5695,-207.7925 310.0509,-198.1666 315.1046,-189.2918"/>
<polygon fill="#000000" stroke="#000000" points="318.2534,-190.8351 320.1604,-180.4133 312.1705,-187.3712 318.2534,-190.8351"/>
</g>
<!-- invoke_create_1&#45;&gt;create -->
<g id="edge9" class="edge">
<title>invoke_create_1&#45;&gt;create</title>
<path fill="none" stroke="#000000" stroke-dasharray="1,5" d="M330.6458,-143.8314C330.6458,-136.131 330.6458,-126.9743 330.6458,-118.4166"/>
<polygon fill="#000000" stroke="#000000" points="334.1459,-118.4132 330.6458,-108.4133 327.1459,-118.4133 334.1459,-118.4132"/>
</g>
</g>
</svg>
