<?xml version="1.0" encoding="UTF-8" standalone="no"?>
<!DOCTYPE svg PUBLIC "-//W3C//DTD SVG 1.1//EN"
 "http://www.w3.org/Graphics/SVG/1.1/DTD/svg11.dtd">
<!-- Generated by graphviz version 2.40.1 (20161225.0304)
 -->
<!-- Title: %3 Pages: 1 -->
<svg width="1340pt" height="1052pt"
 viewBox="0.00 0.00 1339.97 1052.00" xmlns="http://www.w3.org/2000/svg" xmlns:xlink="http://www.w3.org/1999/xlink">
<g id="graph0" class="graph" transform="scale(1 1) rotate(0) translate(4 1048)">
<title>%3</title>
<polygon fill="#ffffff" stroke="transparent" points="-4,4 -4,-1048 1335.9737,-1048 1335.9737,4 -4,4"/>
<!-- startCmd -->
<g id="node1" class="node">
<title>startCmd</title>
<g id="a_node1"><a xlink:href="/packages/gasket-cli#gasket-start" xlink:title="start">
<ellipse fill="#ffff00" stroke="#000000" cx="551.3181" cy="-1026" rx="27" ry="18"/>
<text text-anchor="middle" x="551.3181" y="-1021.8" font-family="Times,serif" font-size="14.00" fill="#000000">start</text>
</a>
</g>
</g>
<!-- invoke_preboot_0 -->
<g id="node29" class="node">
<title>invoke_preboot_0</title>
<polygon fill="#cfcfff" stroke="#000000" points="580.5842,-972 522.052,-972 522.052,-936 580.5842,-936 580.5842,-972"/>
<text text-anchor="middle" x="551.3181" y="-949.8" font-family="Times,serif" font-size="14.00" fill="#000000">preboot</text>
</g>
<!-- startCmd&#45;&gt;invoke_preboot_0 -->
<g id="edge15" class="edge">
<title>startCmd&#45;&gt;invoke_preboot_0</title>
<path fill="none" stroke="#000000" d="M551.3181,-1007.8314C551.3181,-1000.131 551.3181,-990.9743 551.3181,-982.4166"/>
<polygon fill="#000000" stroke="#000000" points="554.8182,-982.4132 551.3181,-972.4133 547.8182,-982.4133 554.8182,-982.4132"/>
</g>
<!-- preboot -->
<g id="node2" class="node">
<title>preboot</title>
<ellipse fill="#7fff7f" stroke="#000000" cx="506.3181" cy="-882" rx="37.2421" ry="18"/>
<text text-anchor="middle" x="506.3181" y="-877.8" font-family="Times,serif" font-size="14.00" fill="#000000">preboot</text>
</g>
<!-- config_preboot_hook -->
<g id="node15" class="node">
<title>config_preboot_hook</title>
<g id="a_node15"><a xlink:href="/packages/config-plugin" xlink:title="config&#45;plugin">
<polygon fill="#ffa500" stroke="#000000" points="518.6122,-815.5623 447.3181,-828 376.024,-815.5623 376.0906,-795.4377 518.5456,-795.4377 518.6122,-815.5623"/>
<text text-anchor="middle" x="447.3181" y="-805.8" font-family="Times,serif" font-size="14.00" fill="#000000">config&#45;plugin</text>
</a>
</g>
</g>
<!-- preboot&#45;&gt;config_preboot_hook -->
<g id="edge1" class="edge">
<title>preboot&#45;&gt;config_preboot_hook:n</title>
<path fill="none" stroke="#000000" d="M478.8908,-869.5745C466.3722,-862.2257 453.3534,-851.6564 448.9115,-837.971"/>
<polygon fill="#000000" stroke="#000000" points="452.3523,-837.3224 447.3181,-828 445.44,-838.427 452.3523,-837.3224"/>
</g>
<!-- configure -->
<g id="node3" class="node">
<title>configure</title>
<ellipse fill="#7fff7f" stroke="#000000" cx="737.3181" cy="-810" rx="43.5146" ry="18"/>
<text text-anchor="middle" x="737.3181" y="-805.8" font-family="Times,serif" font-size="14.00" fill="#000000">configure</text>
</g>
<!-- serviceWorker_configure_hook -->
<g id="node16" class="node">
<title>serviceWorker_configure_hook</title>
<g id="a_node16"><a xlink:href="/packages/serviceWorker-plugin" xlink:title="serviceWorker&#45;plugin">
<polygon fill="#ffa500" stroke="#000000" points="1052.4546,-743.5623 945.3181,-756 838.1816,-743.5623 838.2816,-723.4377 1052.3546,-723.4377 1052.4546,-743.5623"/>
<text text-anchor="middle" x="945.3181" y="-733.8" font-family="Times,serif" font-size="14.00" fill="#000000">serviceWorker&#45;plugin</text>
</a>
</g>
</g>
<!-- configure&#45;&gt;serviceWorker_configure_hook -->
<g id="edge2" class="edge">
<title>configure&#45;&gt;serviceWorker_configure_hook:n</title>
<path fill="none" stroke="#000000" d="M780.4158,-807.5051C835.1527,-803.2579 924.6417,-792.3219 942.2546,-765.6584"/>
<polygon fill="#000000" stroke="#000000" points="945.6308,-766.5902 945.3181,-756 938.9584,-764.4738 945.6308,-766.5902"/>
</g>
<!-- workbox_configure_hook -->
<g id="node17" class="node">
<title>workbox_configure_hook</title>
<g id="a_node17"><a xlink:href="/packages/workbox-plugin" xlink:title="workbox&#45;plugin">
<polygon fill="#ffa500" stroke="#000000" points="820.1806,-743.5623 737.3181,-756 654.4556,-743.5623 654.5329,-723.4377 820.1033,-723.4377 820.1806,-743.5623"/>
<text text-anchor="middle" x="737.3181" y="-733.8" font-family="Times,serif" font-size="14.00" fill="#000000">workbox&#45;plugin</text>
</a>
</g>
</g>
<!-- configure&#45;&gt;workbox_configure_hook -->
<g id="edge3" class="edge">
<title>configure&#45;&gt;workbox_configure_hook:n</title>
<path fill="none" stroke="#000000" d="M737.3181,-792C737.3181,-784.3711 737.3181,-775.1585 737.3181,-766.0882"/>
<polygon fill="#000000" stroke="#000000" points="740.8182,-766 737.3181,-756 733.8182,-766 740.8182,-766"/>
</g>
<!-- start -->
<g id="node4" class="node">
<title>start</title>
<g id="a_node4"><a xlink:href="/packages/gasket-cli#gasket-start" xlink:title="start">
<ellipse fill="#7fff7f" stroke="#000000" cx="609.3181" cy="-738" rx="27" ry="18"/>
<text text-anchor="middle" x="609.3181" y="-733.8" font-family="Times,serif" font-size="14.00" fill="#000000">start</text>
</a>
</g>
</g>
<!-- express_start_hook -->
<g id="node18" class="node">
<title>express_start_hook</title>
<g id="a_node18"><a xlink:href="/packages/express-plugin" xlink:title="express&#45;plugin">
<polygon fill="#ffa500" stroke="#000000" points="694.0221,-671.5623 617.3181,-684 540.6141,-671.5623 540.6857,-651.4377 693.9505,-651.4377 694.0221,-671.5623"/>
<text text-anchor="middle" x="617.3181" y="-661.8" font-family="Times,serif" font-size="14.00" fill="#000000">express&#45;plugin</text>
</a>
</g>
</g>
<!-- start&#45;&gt;express_start_hook -->
<g id="edge4" class="edge">
<title>start&#45;&gt;express_start_hook:n</title>
<path fill="none" stroke="#000000" d="M613.3181,-720.0982C614.7712,-712.4931 616.2243,-703.287 616.9104,-694.1683"/>
<polygon fill="#000000" stroke="#000000" points="620.4145,-694.1322 617.3181,-684 613.4202,-693.8517 620.4145,-694.1322"/>
</g>
<!-- nextjs_start_hook -->
<g id="node19" class="node">
<title>nextjs_start_hook</title>
<g id="a_node19"><a xlink:href="/packages/nextjs-plugin" xlink:title="nextjs&#45;plugin">
<polygon fill="#ffa500" stroke="#000000" points="522.6786,-671.5623 452.3181,-684 381.9576,-671.5623 382.0233,-651.4377 522.6129,-651.4377 522.6786,-671.5623"/>
<text text-anchor="middle" x="452.3181" y="-661.8" font-family="Times,serif" font-size="14.00" fill="#000000">nextjs&#45;plugin</text>
</a>
</g>
</g>
<!-- start&#45;&gt;nextjs_start_hook -->
<g id="edge5" class="edge">
<title>start&#45;&gt;nextjs_start_hook:n</title>
<path fill="none" stroke="#000000" d="M582.6852,-734.4369C543.3165,-728.5079 472.4451,-715.081 455.8582,-693.4228"/>
<polygon fill="#000000" stroke="#000000" points="459.1115,-692.1302 452.3181,-684 452.5587,-694.5921 459.1115,-692.1302"/>
</g>
<!-- https_start_hook -->
<g id="node20" class="node">
<title>https_start_hook</title>
<g id="a_node20"><a xlink:href="/packages/https-plugin" xlink:title="https&#45;plugin">
<polygon fill="#ffa500" stroke="#000000" points="842.4751,-671.5623 777.3181,-684 712.1611,-671.5623 712.2219,-651.4377 842.4143,-651.4377 842.4751,-671.5623"/>
<text text-anchor="middle" x="777.3181" y="-661.8" font-family="Times,serif" font-size="14.00" fill="#000000">https&#45;plugin</text>
</a>
</g>
</g>
<!-- start&#45;&gt;https_start_hook -->
<g id="edge6" class="edge">
<title>start&#45;&gt;https_start_hook:n</title>
<path fill="none" stroke="#000000" d="M630.3256,-726.6285C635.169,-724.2518 640.3572,-721.8954 645.3181,-720 698.5724,-699.6534 767.9905,-739.2618 776.4597,-694.1869"/>
<polygon fill="#000000" stroke="#000000" points="779.966,-694.2586 777.3181,-684 772.9907,-693.6708 779.966,-694.2586"/>
</g>
<!-- appEnvConfig -->
<g id="node5" class="node">
<title>appEnvConfig</title>
<g id="a_node5"><a xlink:href="/packages/gasket-config-plugin#appenvconfig" xlink:title="appEnvConfig">
<ellipse fill="#7fff7f" stroke="#000000" cx="303.3181" cy="-666" rx="61.4064" ry="18"/>
<text text-anchor="middle" x="303.3181" y="-661.8" font-family="Times,serif" font-size="14.00" fill="#000000">appEnvConfig</text>
</a>
</g>
</g>
<!-- serviceWorkerCacheKey -->
<g id="node6" class="node">
<title>serviceWorkerCacheKey</title>
<g id="a_node6"><a xlink:href="/packages/gasket-service-worker-plugin#serviceworkercachekey" xlink:title="serviceWorkerCacheKey">
<ellipse fill="#7fff7f" stroke="#000000" cx="945.3181" cy="-594" rx="98.0567" ry="18"/>
<text text-anchor="middle" x="945.3181" y="-589.8" font-family="Times,serif" font-size="14.00" fill="#000000">serviceWorkerCacheKey</text>
</a>
</g>
</g>
<!-- middleware -->
<g id="node7" class="node">
<title>middleware</title>
<g id="a_node7"><a xlink:href="/packages/gasket-express-plugin#middleware" xlink:title="middleware">
<ellipse fill="#7fff7f" stroke="#000000" cx="767.3181" cy="-522" rx="51.7002" ry="18"/>
<text text-anchor="middle" x="767.3181" y="-517.8" font-family="Times,serif" font-size="14.00" fill="#000000">middleware</text>
</a>
</g>
</g>
<!-- config_middleware_hook -->
<g id="node21" class="node">
<title>config_middleware_hook</title>
<g id="a_node21"><a xlink:href="/packages/config-plugin" xlink:title="config&#45;plugin">
<polygon fill="#ffa500" stroke="#000000" points="1035.6122,-455.5623 964.3181,-468 893.024,-455.5623 893.0906,-435.4377 1035.5456,-435.4377 1035.6122,-455.5623"/>
<text text-anchor="middle" x="964.3181" y="-445.8" font-family="Times,serif" font-size="14.00" fill="#000000">config&#45;plugin</text>
</a>
</g>
</g>
<!-- middleware&#45;&gt;config_middleware_hook -->
<g id="edge7" class="edge">
<title>middleware&#45;&gt;config_middleware_hook:n</title>
<path fill="none" stroke="#000000" d="M818.0505,-518.1218C869.808,-512.8964 944.7826,-501.369 961.1049,-477.6847"/>
<polygon fill="#000000" stroke="#000000" points="964.491,-478.5934 964.3181,-468 957.8471,-476.3891 964.491,-478.5934"/>
</g>
<!-- redux_middleware_hook -->
<g id="node22" class="node">
<title>redux_middleware_hook</title>
<g id="a_node22"><a xlink:href="/packages/redux-plugin" xlink:title="redux&#45;plugin">
<polygon fill="#ffa500" stroke="#000000" points="1191.2336,-455.5623 1122.3181,-468 1053.4026,-455.5623 1053.4669,-435.4377 1191.1693,-435.4377 1191.2336,-455.5623"/>
<text text-anchor="middle" x="1122.3181" y="-445.8" font-family="Times,serif" font-size="14.00" fill="#000000">redux&#45;plugin</text>
</a>
</g>
</g>
<!-- middleware&#45;&gt;redux_middleware_hook -->
<g id="edge8" class="edge">
<title>middleware&#45;&gt;redux_middleware_hook:n</title>
<path fill="none" stroke="#000000" d="M818.9381,-519.3963C907.7815,-514.2885 1083.3097,-501.2324 1116.7452,-476.4596"/>
<polygon fill="#000000" stroke="#000000" points="1119.7396,-478.2763 1122.3181,-468 1113.894,-474.4254 1119.7396,-478.2763"/>
</g>
<!-- serviceWorker_middleware_hook -->
<g id="node23" class="node">
<title>serviceWorker_middleware_hook</title>
<g id="a_node23"><a xlink:href="/packages/serviceWorker-plugin" xlink:title="serviceWorker&#45;plugin">
<polygon fill="#ffa500" stroke="#000000" points="874.4546,-455.5623 767.3181,-468 660.1816,-455.5623 660.2816,-435.4377 874.3546,-435.4377 874.4546,-455.5623"/>
<text text-anchor="middle" x="767.3181" y="-445.8" font-family="Times,serif" font-size="14.00" fill="#000000">serviceWorker&#45;plugin</text>
</a>
</g>
</g>
<!-- middleware&#45;&gt;serviceWorker_middleware_hook -->
<g id="edge9" class="edge">
<title>middleware&#45;&gt;serviceWorker_middleware_hook:n</title>
<path fill="none" stroke="#000000" d="M767.3181,-504C767.3181,-496.3711 767.3181,-487.1585 767.3181,-478.0882"/>
<polygon fill="#000000" stroke="#000000" points="770.8182,-478 767.3181,-468 763.8182,-478 770.8182,-478"/>
</g>
<!-- express -->
<g id="node8" class="node">
<title>express</title>
<g id="a_node8"><a xlink:href="/packages/gasket-express-plugin" xlink:title="express">
<ellipse fill="#7fff7f" stroke="#000000" cx="389.3181" cy="-450" rx="36.7576" ry="18"/>
<text text-anchor="middle" x="389.3181" y="-445.8" font-family="Times,serif" font-size="14.00" fill="#000000">express</text>
</a>
</g>
</g>
<!-- intl_express_hook -->
<g id="node24" class="node">
<title>intl_express_hook</title>
<g id="a_node24"><a xlink:href="/packages/intl-plugin" xlink:title="intl&#45;plugin">
<polygon fill="#ffa500" stroke="#000000" points="534.11,-383.5623 475.3181,-396 416.5262,-383.5623 416.5811,-363.4377 534.0551,-363.4377 534.11,-383.5623"/>
<text text-anchor="middle" x="475.3181" y="-373.8" font-family="Times,serif" font-size="14.00" fill="#000000">intl&#45;plugin</text>
</a>
</g>
</g>
<!-- express&#45;&gt;intl_express_hook -->
<g id="edge10" class="edge">
<title>express&#45;&gt;intl_express_hook:n</title>
<path fill="none" stroke="#000000" d="M417.4777,-438.4415C437.2684,-429.5973 461.8395,-416.957 471.3248,-405.1755"/>
<polygon fill="#000000" stroke="#000000" points="474.5367,-406.566 475.3181,-396 468.1182,-403.7725 474.5367,-406.566"/>
</g>
<!-- serviceWorker_express_hook -->
<g id="node25" class="node">
<title>serviceWorker_express_hook</title>
<g id="a_node25"><a xlink:href="/packages/serviceWorker-plugin" xlink:title="serviceWorker&#45;plugin">
<polygon fill="#ffa500" stroke="#000000" points="214.4546,-383.5623 107.3181,-396 .1816,-383.5623 .2816,-363.4377 214.3546,-363.4377 214.4546,-383.5623"/>
<text text-anchor="middle" x="107.3181" y="-373.8" font-family="Times,serif" font-size="14.00" fill="#000000">serviceWorker&#45;plugin</text>
</a>
</g>
</g>
<!-- express&#45;&gt;serviceWorker_express_hook -->
<g id="edge11" class="edge">
<title>express&#45;&gt;serviceWorker_express_hook:n</title>
<path fill="none" stroke="#000000" d="M353.0288,-446.7949C285.493,-440.3962 144.5327,-424.8567 113.4631,-404.1714"/>
<polygon fill="#000000" stroke="#000000" points="116.1257,-401.8887 107.3181,-396 110.5311,-406.0959 116.1257,-401.8887"/>
</g>
<!-- workbox_express_hook -->
<g id="node26" class="node">
<title>workbox_express_hook</title>
<g id="a_node26"><a xlink:href="/packages/workbox-plugin" xlink:title="workbox&#45;plugin">
<polygon fill="#ffa500" stroke="#000000" points="398.1806,-383.5623 315.3181,-396 232.4556,-383.5623 232.5329,-363.4377 398.1033,-363.4377 398.1806,-383.5623"/>
<text text-anchor="middle" x="315.3181" y="-373.8" font-family="Times,serif" font-size="14.00" fill="#000000">workbox&#45;plugin</text>
</a>
</g>
</g>
<!-- express&#45;&gt;workbox_express_hook -->
<g id="edge12" class="edge">
<title>express&#45;&gt;workbox_express_hook:n</title>
<path fill="none" stroke="#000000" d="M357.9354,-440.675C340.9181,-433.8016 322.2776,-422.6869 316.8679,-405.9112"/>
<polygon fill="#000000" stroke="#000000" points="320.3211,-405.3392 315.3181,-396 313.4052,-406.4207 320.3211,-405.3392"/>
</g>
<!-- next -->
<g id="node9" class="node">
<title>next</title>
<g id="a_node9"><a xlink:href="/packages/gasket-nextjs-plugin#next" xlink:title="next">
<ellipse fill="#7fff7f" stroke="#000000" cx="579.3181" cy="-378" rx="27" ry="18"/>
<text text-anchor="middle" x="579.3181" y="-373.8" font-family="Times,serif" font-size="14.00" fill="#000000">next</text>
</a>
</g>
</g>
<!-- appRequestConfig -->
<g id="node10" class="node">
<title>appRequestConfig</title>
<g id="a_node10"><a xlink:href="/packages/gasket-config-plugin#apprequestconfig" xlink:title="appRequestConfig">
<ellipse fill="#7fff7f" stroke="#000000" cx="964.3181" cy="-306" rx="75.3966" ry="18"/>
<text text-anchor="middle" x="964.3181" y="-301.8" font-family="Times,serif" font-size="14.00" fill="#000000">appRequestConfig</text>
</a>
</g>
</g>
<!-- initReduxState -->
<g id="node11" class="node">
<title>initReduxState</title>
<g id="a_node11"><a xlink:href="/packages/gasket-redux-plugin#initreduxstate" xlink:title="initReduxState">
<ellipse fill="#7fff7f" stroke="#000000" cx="1121.3181" cy="-306" rx="62.8425" ry="18"/>
<text text-anchor="middle" x="1121.3181" y="-301.8" font-family="Times,serif" font-size="14.00" fill="#000000">initReduxState</text>
</a>
</g>
</g>
<!-- config_initReduxState_hook -->
<g id="node27" class="node">
<title>config_initReduxState_hook</title>
<g id="a_node27"><a xlink:href="/packages/config-plugin" xlink:title="config&#45;plugin">
<polygon fill="#ffa500" stroke="#000000" points="1186.6122,-239.5623 1115.3181,-252 1044.024,-239.5623 1044.0906,-219.4377 1186.5456,-219.4377 1186.6122,-239.5623"/>
<text text-anchor="middle" x="1115.3181" y="-229.8" font-family="Times,serif" font-size="14.00" fill="#000000">config&#45;plugin</text>
</a>
</g>
</g>
<!-- initReduxState&#45;&gt;config_initReduxState_hook -->
<g id="edge13" class="edge">
<title>initReduxState&#45;&gt;config_initReduxState_hook:n</title>
<path fill="none" stroke="#000000" d="M1118.2478,-287.5619C1117.1868,-280.08 1116.1375,-271.1219 1115.6312,-262.2618"/>
<polygon fill="#000000" stroke="#000000" points="1119.1215,-261.8886 1115.3181,-252 1112.1248,-262.1021 1119.1215,-261.8886"/>
</g>
<!-- initReduxStore -->
<g id="node12" class="node">
<title>initReduxStore</title>
<g id="a_node12"><a xlink:href="/packages/gasket-redux-plugin#initreduxstore" xlink:title="initReduxStore">
<ellipse fill="#7fff7f" stroke="#000000" cx="1268.3181" cy="-234" rx="63.8115" ry="18"/>
<text text-anchor="middle" x="1268.3181" y="-229.8" font-family="Times,serif" font-size="14.00" fill="#000000">initReduxStore</text>
</a>
</g>
</g>
<!-- composeServiceWorker -->
<g id="node13" class="node">
<title>composeServiceWorker</title>
<g id="a_node13"><a xlink:href="/packages/gasket-service-worker-plugin#composeserviceworker" xlink:title="composeServiceWorker">
<ellipse fill="#7fff7f" stroke="#000000" cx="107.3181" cy="-234" rx="94.2233" ry="18"/>
<text text-anchor="middle" x="107.3181" y="-229.8" font-family="Times,serif" font-size="14.00" fill="#000000">composeServiceWorker</text>
</a>
</g>
</g>
<!-- workbox_composeServiceWorker_hook -->
<g id="node28" class="node">
<title>workbox_composeServiceWorker_hook</title>
<g id="a_node28"><a xlink:href="/packages/workbox-plugin" xlink:title="workbox&#45;plugin">
<polygon fill="#ffa500" stroke="#000000" points="190.1806,-167.5623 107.3181,-180 24.4556,-167.5623 24.5329,-147.4377 190.1033,-147.4377 190.1806,-167.5623"/>
<text text-anchor="middle" x="107.3181" y="-157.8" font-family="Times,serif" font-size="14.00" fill="#000000">workbox&#45;plugin</text>
</a>
</g>
</g>
<!-- composeServiceWorker&#45;&gt;workbox_composeServiceWorker_hook -->
<g id="edge14" class="edge">
<title>composeServiceWorker&#45;&gt;workbox_composeServiceWorker_hook:n</title>
<path fill="none" stroke="#000000" d="M107.3181,-216C107.3181,-208.3711 107.3181,-199.1585 107.3181,-190.0882"/>
<polygon fill="#000000" stroke="#000000" points="110.8182,-190 107.3181,-180 103.8182,-190 110.8182,-190"/>
</g>
<!-- workbox -->
<g id="node14" class="node">
<title>workbox</title>
<g id="a_node14"><a xlink:href="/packages/gasket-workbox-plugin#workbox" xlink:title="workbox">
<ellipse fill="#7fff7f" stroke="#000000" cx="107.3181" cy="-18" rx="41.5938" ry="18"/>
<text text-anchor="middle" x="107.3181" y="-13.8" font-family="Times,serif" font-size="14.00" fill="#000000">workbox</text>
</a>
</g>
</g>
<!-- invoke_appEnvConfig_3 -->
<g id="node32" class="node">
<title>invoke_appEnvConfig_3</title>
<polygon fill="#cfcfff" stroke="#000000" points="404.7078,-756 307.9284,-756 307.9284,-720 404.7078,-720 404.7078,-756"/>
<text text-anchor="middle" x="356.3181" y="-733.8" font-family="Times,serif" font-size="14.00" fill="#000000">appEnvConfig</text>
</g>
<!-- config_preboot_hook&#45;&gt;invoke_appEnvConfig_3 -->
<g id="edge18" class="edge">
<title>config_preboot_hook&#45;&gt;invoke_appEnvConfig_3</title>
<path fill="none" stroke="#000000" d="M428.9029,-795.4297C416.9206,-785.9493 400.9982,-773.3513 387.1198,-762.3706"/>
<polygon fill="#000000" stroke="#000000" points="389.2438,-759.588 379.2298,-756.128 384.9004,-765.0776 389.2438,-759.588"/>
</g>
<!-- invoke_serviceWorkerCacheKey_4 -->
<g id="node33" class="node">
<title>invoke_serviceWorkerCacheKey_4</title>
<polygon fill="#cfcfff" stroke="#000000" points="1022.9017,-684 867.7345,-684 867.7345,-648 1022.9017,-648 1022.9017,-684"/>
<text text-anchor="middle" x="945.3181" y="-661.8" font-family="Times,serif" font-size="14.00" fill="#000000">serviceWorkerCacheKey</text>
</g>
<!-- serviceWorker_configure_hook&#45;&gt;invoke_serviceWorkerCacheKey_4 -->
<g id="edge19" class="edge">
<title>serviceWorker_configure_hook&#45;&gt;invoke_serviceWorkerCacheKey_4</title>
<path fill="none" stroke="#000000" d="M945.3181,-723.4297C945.3181,-715.1011 945.3181,-704.3665 945.3181,-694.436"/>
<polygon fill="#000000" stroke="#000000" points="948.8182,-694.1279 945.3181,-684.128 941.8182,-694.128 948.8182,-694.1279"/>
</g>
<!-- invoke_middleware_5 -->
<g id="node34" class="node">
<title>invoke_middleware_5</title>
<polygon fill="#cfcfff" stroke="#000000" points="658.4011,-612 576.235,-612 576.235,-576 658.4011,-576 658.4011,-612"/>
<text text-anchor="middle" x="617.3181" y="-589.8" font-family="Times,serif" font-size="14.00" fill="#000000">middleware</text>
</g>
<!-- express_start_hook&#45;&gt;invoke_middleware_5 -->
<g id="edge20" class="edge">
<title>express_start_hook&#45;&gt;invoke_middleware_5</title>
<path fill="none" stroke="#000000" d="M617.3181,-651.4297C617.3181,-643.1011 617.3181,-632.3665 617.3181,-622.436"/>
<polygon fill="#000000" stroke="#000000" points="620.8182,-622.1279 617.3181,-612.128 613.8182,-622.128 620.8182,-622.1279"/>
</g>
<!-- invoke_middleware_8 -->
<g id="node37" class="node">
<title>invoke_middleware_8</title>
<polygon fill="#cfcfff" stroke="#000000" points="501.4011,-612 419.235,-612 419.235,-576 501.4011,-576 501.4011,-612"/>
<text text-anchor="middle" x="460.3181" y="-589.8" font-family="Times,serif" font-size="14.00" fill="#000000">middleware</text>
</g>
<!-- nextjs_start_hook&#45;&gt;invoke_middleware_8 -->
<g id="edge23" class="edge">
<title>nextjs_start_hook&#45;&gt;invoke_middleware_8</title>
<path fill="none" stroke="#000000" d="M453.937,-651.4297C454.8723,-643.0125 456.0806,-632.1378 457.1937,-622.1194"/>
<polygon fill="#000000" stroke="#000000" points="460.6781,-622.4533 458.3039,-612.128 453.7209,-621.6803 460.6781,-622.4533"/>
</g>
<!-- invoke_middleware_11 -->
<g id="node40" class="node">
<title>invoke_middleware_11</title>
<polygon fill="#cfcfff" stroke="#000000" points="808.4011,-612 726.235,-612 726.235,-576 808.4011,-576 808.4011,-612"/>
<text text-anchor="middle" x="767.3181" y="-589.8" font-family="Times,serif" font-size="14.00" fill="#000000">middleware</text>
</g>
<!-- https_start_hook&#45;&gt;invoke_middleware_11 -->
<g id="edge26" class="edge">
<title>https_start_hook&#45;&gt;invoke_middleware_11</title>
<path fill="none" stroke="#000000" d="M775.2944,-651.4297C774.1254,-643.0125 772.615,-632.1378 771.2236,-622.1194"/>
<polygon fill="#000000" stroke="#000000" points="774.6784,-621.5514 769.8359,-612.128 767.7449,-622.5144 774.6784,-621.5514"/>
</g>
<!-- invoke_appRequestConfig_14 -->
<g id="node43" class="node">
<title>invoke_appRequestConfig_14</title>
<polygon fill="#cfcfff" stroke="#000000" points="1024.2603,-396 904.3759,-396 904.3759,-360 1024.2603,-360 1024.2603,-396"/>
<text text-anchor="middle" x="964.3181" y="-373.8" font-family="Times,serif" font-size="14.00" fill="#000000">appRequestConfig</text>
</g>
<!-- config_middleware_hook&#45;&gt;invoke_appRequestConfig_14 -->
<g id="edge29" class="edge">
<title>config_middleware_hook&#45;&gt;invoke_appRequestConfig_14</title>
<path fill="none" stroke="#000000" d="M964.3181,-435.4297C964.3181,-427.1011 964.3181,-416.3665 964.3181,-406.436"/>
<polygon fill="#000000" stroke="#000000" points="967.8182,-406.1279 964.3181,-396.128 960.8182,-406.128 967.8182,-406.1279"/>
</g>
<!-- invoke_initReduxState_15 -->
<g id="node44" class="node">
<title>invoke_initReduxState_15</title>
<polygon fill="#cfcfff" stroke="#000000" points="1172.0322,-396 1072.604,-396 1072.604,-360 1172.0322,-360 1172.0322,-396"/>
<text text-anchor="middle" x="1122.3181" y="-373.8" font-family="Times,serif" font-size="14.00" fill="#000000">initReduxState</text>
</g>
<!-- redux_middleware_hook&#45;&gt;invoke_initReduxState_15 -->
<g id="edge30" class="edge">
<title>redux_middleware_hook&#45;&gt;invoke_initReduxState_15</title>
<path fill="none" stroke="#000000" d="M1122.3181,-435.4297C1122.3181,-427.1011 1122.3181,-416.3665 1122.3181,-406.436"/>
<polygon fill="#000000" stroke="#000000" points="1125.8182,-406.1279 1122.3181,-396.128 1118.8182,-406.128 1125.8182,-406.1279"/>
</g>
<!-- invoke_composeServiceWorker_17 -->
<g id="node46" class="node">
<title>invoke_composeServiceWorker_17</title>
<polygon fill="#cfcfff" stroke="#000000" points="182.2014,-324 32.4348,-324 32.4348,-288 182.2014,-288 182.2014,-324"/>
<text text-anchor="middle" x="107.3181" y="-301.8" font-family="Times,serif" font-size="14.00" fill="#000000">composeServiceWorker</text>
</g>
<!-- serviceWorker_express_hook&#45;&gt;invoke_composeServiceWorker_17 -->
<g id="edge32" class="edge">
<title>serviceWorker_express_hook&#45;&gt;invoke_composeServiceWorker_17</title>
<path fill="none" stroke="#000000" d="M107.3181,-363.4297C107.3181,-355.1011 107.3181,-344.3665 107.3181,-334.436"/>
<polygon fill="#000000" stroke="#000000" points="110.8182,-334.1279 107.3181,-324.128 103.8182,-334.128 110.8182,-334.1279"/>
</g>
<!-- invoke_workbox_18 -->
<g id="node47" class="node">
<title>invoke_workbox_18</title>
<polygon fill="#cfcfff" stroke="#000000" points="140.0909,-108 74.5452,-108 74.5452,-72 140.0909,-72 140.0909,-108"/>
<text text-anchor="middle" x="107.3181" y="-85.8" font-family="Times,serif" font-size="14.00" fill="#000000">workbox</text>
</g>
<!-- workbox_composeServiceWorker_hook&#45;&gt;invoke_workbox_18 -->
<g id="edge33" class="edge">
<title>workbox_composeServiceWorker_hook&#45;&gt;invoke_workbox_18</title>
<path fill="none" stroke="#000000" d="M107.3181,-147.4297C107.3181,-139.1011 107.3181,-128.3665 107.3181,-118.436"/>
<polygon fill="#000000" stroke="#000000" points="110.8182,-118.1279 107.3181,-108.128 103.8182,-118.128 110.8182,-118.1279"/>
</g>
<!-- invoke_preboot_0&#45;&gt;preboot -->
<g id="edge34" class="edge">
<title>invoke_preboot_0&#45;&gt;preboot</title>
<path fill="none" stroke="#000000" stroke-dasharray="1,5" d="M539.9627,-935.8314C534.6748,-927.3707 528.2881,-917.1521 522.5064,-907.9014"/>
<polygon fill="#000000" stroke="#000000" points="525.4722,-906.0427 517.2042,-899.4177 519.5362,-909.7527 525.4722,-906.0427"/>
</g>
<!-- invoke_configure_1 -->
<g id="node30" class="node">
<title>invoke_configure_1</title>
<polygon fill="#cfcfff" stroke="#000000" points="643.6942,-900 574.942,-900 574.942,-864 643.6942,-864 643.6942,-900"/>
<text text-anchor="middle" x="609.3181" y="-877.8" font-family="Times,serif" font-size="14.00" fill="#000000">configure</text>
</g>
<!-- invoke_preboot_0&#45;&gt;invoke_configure_1 -->
<g id="edge16" class="edge">
<title>invoke_preboot_0&#45;&gt;invoke_configure_1</title>
<path fill="none" stroke="#000000" d="M565.9539,-935.8314C572.6342,-927.5386 580.6749,-917.557 588.0085,-908.4533"/>
<polygon fill="#000000" stroke="#000000" points="590.9375,-910.3965 594.4852,-900.4133 585.4862,-906.0052 590.9375,-910.3965"/>
</g>
<!-- invoke_configure_1&#45;&gt;configure -->
<g id="edge35" class="edge">
<title>invoke_configure_1&#45;&gt;configure</title>
<path fill="none" stroke="#000000" stroke-dasharray="1,5" d="M641.6179,-863.8314C660.2024,-853.3776 683.5581,-840.24 702.5439,-829.5605"/>
<polygon fill="#000000" stroke="#000000" points="704.4733,-832.491 711.4732,-824.5378 701.0415,-826.3899 704.4733,-832.491"/>
</g>
<!-- invoke_start_2 -->
<g id="node31" class="node">
<title>invoke_start_2</title>
<polygon fill="#cfcfff" stroke="#000000" points="636.3181,-828 582.3181,-828 582.3181,-792 636.3181,-792 636.3181,-828"/>
<text text-anchor="middle" x="609.3181" y="-805.8" font-family="Times,serif" font-size="14.00" fill="#000000">start</text>
</g>
<!-- invoke_configure_1&#45;&gt;invoke_start_2 -->
<g id="edge17" class="edge">
<title>invoke_configure_1&#45;&gt;invoke_start_2</title>
<path fill="none" stroke="#000000" d="M609.3181,-863.8314C609.3181,-856.131 609.3181,-846.9743 609.3181,-838.4166"/>
<polygon fill="#000000" stroke="#000000" points="612.8182,-838.4132 609.3181,-828.4133 605.8182,-838.4133 612.8182,-838.4132"/>
</g>
<!-- invoke_start_2&#45;&gt;start -->
<g id="edge36" class="edge">
<title>invoke_start_2&#45;&gt;start</title>
<path fill="none" stroke="#000000" stroke-dasharray="1,5" d="M609.3181,-791.8314C609.3181,-784.131 609.3181,-774.9743 609.3181,-766.4166"/>
<polygon fill="#000000" stroke="#000000" points="612.8182,-766.4132 609.3181,-756.4133 605.8182,-766.4133 612.8182,-766.4132"/>
</g>
<!-- invoke_appEnvConfig_3&#45;&gt;appEnvConfig -->
<g id="edge37" class="edge">
<title>invoke_appEnvConfig_3&#45;&gt;appEnvConfig</title>
<path fill="none" stroke="#000000" stroke-dasharray="1,5" d="M342.944,-719.8314C336.7457,-711.411 329.2656,-701.2495 322.4819,-692.0338"/>
<polygon fill="#000000" stroke="#000000" points="325.2513,-689.8919 316.5044,-683.9134 319.6139,-694.0417 325.2513,-689.8919"/>
</g>
<!-- invoke_serviceWorkerCacheKey_4&#45;&gt;serviceWorkerCacheKey -->
<g id="edge38" class="edge">
<title>invoke_serviceWorkerCacheKey_4&#45;&gt;serviceWorkerCacheKey</title>
<path fill="none" stroke="#000000" stroke-dasharray="1,5" d="M945.3181,-647.8314C945.3181,-640.131 945.3181,-630.9743 945.3181,-622.4166"/>
<polygon fill="#000000" stroke="#000000" points="948.8182,-622.4132 945.3181,-612.4133 941.8182,-622.4133 948.8182,-622.4132"/>
</g>
<!-- invoke_middleware_5&#45;&gt;middleware -->
<g id="edge39" class="edge">
<title>invoke_middleware_5&#45;&gt;middleware</title>
<path fill="none" stroke="#000000" stroke-dasharray="1,5" d="M655.1694,-575.8314C677.1923,-565.2604 704.9323,-551.9452 727.3133,-541.2023"/>
<polygon fill="#000000" stroke="#000000" points="729.044,-544.2539 736.5447,-536.7712 726.0149,-537.9433 729.044,-544.2539"/>
</g>
<!-- invoke_express_6 -->
<g id="node35" class="node">
<title>invoke_express_6</title>
<polygon fill="#cfcfff" stroke="#000000" points="570.3044,-540 512.3318,-540 512.3318,-504 570.3044,-504 570.3044,-540"/>
<text text-anchor="middle" x="541.3181" y="-517.8" font-family="Times,serif" font-size="14.00" fill="#000000">express</text>
</g>
<!-- invoke_middleware_5&#45;&gt;invoke_express_6 -->
<g id="edge21" class="edge">
<title>invoke_middleware_5&#45;&gt;invoke_express_6</title>
<path fill="none" stroke="#000000" d="M598.1401,-575.8314C588.9593,-567.1337 577.8175,-556.5783 567.8405,-547.1265"/>
<polygon fill="#000000" stroke="#000000" points="570.1566,-544.4995 560.49,-540.1628 565.3424,-549.5811 570.1566,-544.4995"/>
</g>
<!-- invoke_express_6&#45;&gt;express -->
<g id="edge40" class="edge">
<title>invoke_express_6&#45;&gt;express</title>
<path fill="none" stroke="#000000" stroke-dasharray="1,5" d="M512.011,-508.1177C487.2708,-496.3986 451.7526,-479.5742 425.2922,-467.0404"/>
<polygon fill="#000000" stroke="#000000" points="426.5259,-463.752 415.9902,-462.6341 423.5292,-470.0782 426.5259,-463.752"/>
</g>
<!-- invoke_next_7 -->
<g id="node36" class="node">
<title>invoke_next_7</title>
<polygon fill="#cfcfff" stroke="#000000" points="570.3181,-468 516.3181,-468 516.3181,-432 570.3181,-432 570.3181,-468"/>
<text text-anchor="middle" x="543.3181" y="-445.8" font-family="Times,serif" font-size="14.00" fill="#000000">next</text>
</g>
<!-- invoke_express_6&#45;&gt;invoke_next_7 -->
<g id="edge22" class="edge">
<title>invoke_express_6&#45;&gt;invoke_next_7</title>
<path fill="none" stroke="#000000" d="M541.8228,-503.8314C542.0367,-496.131 542.291,-486.9743 542.5287,-478.4166"/>
<polygon fill="#000000" stroke="#000000" points="546.0275,-478.5066 542.8066,-468.4133 539.0302,-478.3122 546.0275,-478.5066"/>
</g>
<!-- invoke_next_7&#45;&gt;next -->
<g id="edge41" class="edge">
<title>invoke_next_7&#45;&gt;next</title>
<path fill="none" stroke="#000000" stroke-dasharray="1,5" d="M552.4024,-431.8314C556.5455,-423.5451 561.5317,-413.5727 566.0807,-404.4748"/>
<polygon fill="#000000" stroke="#000000" points="569.2675,-405.9273 570.6092,-395.4177 563.0065,-402.7967 569.2675,-405.9273"/>
</g>
<!-- invoke_middleware_8&#45;&gt;middleware -->
<g id="edge42" class="edge">
<title>invoke_middleware_8&#45;&gt;middleware</title>
<path fill="none" stroke="#000000" stroke-dasharray="1,5" d="M501.4029,-584.3645C556.3109,-571.487 653.6996,-548.6467 714.1483,-534.4698"/>
<polygon fill="#000000" stroke="#000000" points="715.3165,-537.7909 724.2531,-532.0999 713.7181,-530.9758 715.3165,-537.7909"/>
</g>
<!-- invoke_express_9 -->
<g id="node38" class="node">
<title>invoke_express_9</title>
<polygon fill="#cfcfff" stroke="#000000" points="489.3044,-540 431.3318,-540 431.3318,-504 489.3044,-504 489.3044,-540"/>
<text text-anchor="middle" x="460.3181" y="-517.8" font-family="Times,serif" font-size="14.00" fill="#000000">express</text>
</g>
<!-- invoke_middleware_8&#45;&gt;invoke_express_9 -->
<g id="edge24" class="edge">
<title>invoke_middleware_8&#45;&gt;invoke_express_9</title>
<path fill="none" stroke="#000000" d="M460.3181,-575.8314C460.3181,-568.131 460.3181,-558.9743 460.3181,-550.4166"/>
<polygon fill="#000000" stroke="#000000" points="463.8182,-550.4132 460.3181,-540.4133 456.8182,-550.4133 463.8182,-550.4132"/>
</g>
<!-- invoke_express_9&#45;&gt;express -->
<g id="edge43" class="edge">
<title>invoke_express_9&#45;&gt;express</title>
<path fill="none" stroke="#000000" stroke-dasharray="1,5" d="M442.4018,-503.8314C433.3667,-494.669 422.2986,-483.445 412.6113,-473.6213"/>
<polygon fill="#000000" stroke="#000000" points="415.0427,-471.1021 405.529,-466.4393 410.0584,-476.0172 415.0427,-471.1021"/>
</g>
<!-- invoke_next_10 -->
<g id="node39" class="node">
<title>invoke_next_10</title>
<polygon fill="#cfcfff" stroke="#000000" points="498.3181,-468 444.3181,-468 444.3181,-432 498.3181,-432 498.3181,-468"/>
<text text-anchor="middle" x="471.3181" y="-445.8" font-family="Times,serif" font-size="14.00" fill="#000000">next</text>
</g>
<!-- invoke_express_9&#45;&gt;invoke_next_10 -->
<g id="edge25" class="edge">
<title>invoke_express_9&#45;&gt;invoke_next_10</title>
<path fill="none" stroke="#000000" d="M463.0939,-503.8314C464.2703,-496.131 465.6692,-486.9743 466.9767,-478.4166"/>
<polygon fill="#000000" stroke="#000000" points="470.4545,-478.8272 468.505,-468.4133 463.5348,-477.7699 470.4545,-478.8272"/>
</g>
<!-- invoke_next_10&#45;&gt;next -->
<g id="edge44" class="edge">
<title>invoke_next_10&#45;&gt;next</title>
<path fill="none" stroke="#000000" stroke-dasharray="1,5" d="M498.5711,-431.8314C514.7048,-421.0755 535.1002,-407.4786 551.3564,-396.6411"/>
<polygon fill="#000000" stroke="#000000" points="553.5295,-399.3989 559.9085,-390.9397 549.6465,-393.5746 553.5295,-399.3989"/>
</g>
<!-- invoke_middleware_11&#45;&gt;middleware -->
<g id="edge45" class="edge">
<title>invoke_middleware_11&#45;&gt;middleware</title>
<path fill="none" stroke="#000000" stroke-dasharray="1,5" d="M767.3181,-575.8314C767.3181,-568.131 767.3181,-558.9743 767.3181,-550.4166"/>
<polygon fill="#000000" stroke="#000000" points="770.8182,-550.4132 767.3181,-540.4133 763.8182,-550.4133 770.8182,-550.4132"/>
</g>
<!-- invoke_express_12 -->
<g id="node41" class="node">
<title>invoke_express_12</title>
<polygon fill="#cfcfff" stroke="#000000" points="646.3044,-540 588.3318,-540 588.3318,-504 646.3044,-504 646.3044,-540"/>
<text text-anchor="middle" x="617.3181" y="-517.8" font-family="Times,serif" font-size="14.00" fill="#000000">express</text>
</g>
<!-- invoke_middleware_11&#45;&gt;invoke_express_12 -->
<g id="edge27" class="edge">
<title>invoke_middleware_11&#45;&gt;invoke_express_12</title>
<path fill="none" stroke="#000000" d="M729.4668,-575.8314C706.9883,-565.0417 678.5535,-551.393 655.9407,-540.5389"/>
<polygon fill="#000000" stroke="#000000" points="657.1701,-537.2467 646.6403,-536.0747 654.141,-543.5574 657.1701,-537.2467"/>
</g>
<!-- invoke_express_12&#45;&gt;express -->
<g id="edge46" class="edge">
<title>invoke_express_12&#45;&gt;express</title>
<path fill="none" stroke="#000000" stroke-dasharray="1,5" d="M588.1025,-507.4602C585.1671,-506.2117 582.2048,-505.0331 579.3181,-504 517.2062,-481.7715 498.1637,-488.0607 435.3181,-468 432.5608,-467.1199 429.7311,-466.1589 426.8959,-465.1538"/>
<polygon fill="#000000" stroke="#000000" points="427.9259,-461.8032 417.3327,-461.6195 425.4992,-468.3691 427.9259,-461.8032"/>
</g>
<!-- invoke_next_13 -->
<g id="node42" class="node">
<title>invoke_next_13</title>
<polygon fill="#cfcfff" stroke="#000000" points="642.3181,-468 588.3181,-468 588.3181,-432 642.3181,-432 642.3181,-468"/>
<text text-anchor="middle" x="615.3181" y="-445.8" font-family="Times,serif" font-size="14.00" fill="#000000">next</text>
</g>
<!-- invoke_express_12&#45;&gt;invoke_next_13 -->
<g id="edge28" class="edge">
<title>invoke_express_12&#45;&gt;invoke_next_13</title>
<path fill="none" stroke="#000000" d="M616.8134,-503.8314C616.5995,-496.131 616.3452,-486.9743 616.1074,-478.4166"/>
<polygon fill="#000000" stroke="#000000" points="619.606,-478.3122 615.8296,-468.4133 612.6087,-478.5066 619.606,-478.3122"/>
</g>
<!-- invoke_next_13&#45;&gt;next -->
<g id="edge47" class="edge">
<title>invoke_next_13&#45;&gt;next</title>
<path fill="none" stroke="#000000" stroke-dasharray="1,5" d="M606.2338,-431.8314C602.0907,-423.5451 597.1044,-413.5727 592.5555,-404.4748"/>
<polygon fill="#000000" stroke="#000000" points="595.6296,-402.7967 588.0269,-395.4177 589.3686,-405.9273 595.6296,-402.7967"/>
</g>
<!-- invoke_appRequestConfig_14&#45;&gt;appRequestConfig -->
<g id="edge48" class="edge">
<title>invoke_appRequestConfig_14&#45;&gt;appRequestConfig</title>
<path fill="none" stroke="#000000" stroke-dasharray="1,5" d="M964.3181,-359.8314C964.3181,-352.131 964.3181,-342.9743 964.3181,-334.4166"/>
<polygon fill="#000000" stroke="#000000" points="967.8182,-334.4132 964.3181,-324.4133 960.8182,-334.4133 967.8182,-334.4132"/>
</g>
<!-- invoke_initReduxState_15&#45;&gt;initReduxState -->
<g id="edge49" class="edge">
<title>invoke_initReduxState_15&#45;&gt;initReduxState</title>
<path fill="none" stroke="#000000" stroke-dasharray="1,5" d="M1122.0658,-359.8314C1121.9588,-352.131 1121.8316,-342.9743 1121.7128,-334.4166"/>
<polygon fill="#000000" stroke="#000000" points="1125.2125,-334.3637 1121.5738,-324.4133 1118.2131,-334.4609 1125.2125,-334.3637"/>
</g>
<!-- invoke_initReduxStore_16 -->
<g id="node45" class="node">
<title>invoke_initReduxStore_16</title>
<polygon fill="#cfcfff" stroke="#000000" points="1313.5908,-324 1213.0454,-324 1213.0454,-288 1313.5908,-288 1313.5908,-324"/>
<text text-anchor="middle" x="1263.3181" y="-301.8" font-family="Times,serif" font-size="14.00" fill="#000000">initReduxStore</text>
</g>
<!-- invoke_initReduxState_15&#45;&gt;invoke_initReduxStore_16 -->
<g id="edge31" class="edge">
<title>invoke_initReduxState_15&#45;&gt;invoke_initReduxStore_16</title>
<path fill="none" stroke="#000000" d="M1157.8983,-359.8314C1176.3506,-350.4089 1199.0726,-338.8062 1218.6911,-328.7883"/>
<polygon fill="#000000" stroke="#000000" points="1220.4349,-331.8278 1227.7492,-324.1628 1217.2514,-325.5935 1220.4349,-331.8278"/>
</g>
<!-- invoke_initReduxStore_16&#45;&gt;initReduxStore -->
<g id="edge50" class="edge">
<title>invoke_initReduxStore_16&#45;&gt;initReduxStore</title>
<path fill="none" stroke="#000000" stroke-dasharray="1,5" d="M1264.5798,-287.8314C1265.1146,-280.131 1265.7504,-270.9743 1266.3447,-262.4166"/>
<polygon fill="#000000" stroke="#000000" points="1269.8381,-262.6317 1267.0394,-252.4133 1262.8549,-262.1467 1269.8381,-262.6317"/>
</g>
<!-- invoke_composeServiceWorker_17&#45;&gt;composeServiceWorker -->
<g id="edge51" class="edge">
<title>invoke_composeServiceWorker_17&#45;&gt;composeServiceWorker</title>
<path fill="none" stroke="#000000" stroke-dasharray="1,5" d="M107.3181,-287.8314C107.3181,-280.131 107.3181,-270.9743 107.3181,-262.4166"/>
<polygon fill="#000000" stroke="#000000" points="110.8182,-262.4132 107.3181,-252.4133 103.8182,-262.4133 110.8182,-262.4132"/>
</g>
<!-- invoke_workbox_18&#45;&gt;workbox -->
<g id="edge52" class="edge">
<title>invoke_workbox_18&#45;&gt;workbox</title>
<path fill="none" stroke="#000000" stroke-dasharray="1,5" d="M107.3181,-71.8314C107.3181,-64.131 107.3181,-54.9743 107.3181,-46.4166"/>
<polygon fill="#000000" stroke="#000000" points="110.8182,-46.4132 107.3181,-36.4133 103.8182,-46.4133 110.8182,-46.4132"/>
</g>
</g>
</svg>
