<svg xmlns="http://www.w3.org/2000/svg" width="57" height="56" viewBox="0, 0, 57, 56">
    <path d="M48.19,52.207 L54.892,36.554 L54.873,36.554 C55.1,36.053 55.309,35.533 55.479,35.014 C57.183,30.192 57.296,25.111 55.877,20.307 L51.617,4.116 C51.541,3.727 51.409,3.356 51.219,2.985 C50.822,2.206 50.235,1.538 49.497,1.056 C48.38,0.333 46.998,0.092 45.692,0.351 L29.373,2.744 C26.476,3.022 23.637,3.782 20.948,5.062 C18.317,6.323 15.969,7.974 14,9.958 L1.979,21.16 C1.676,21.401 1.392,21.679 1.165,21.976 C0.616,22.662 0.275,23.497 0.181,24.35 C0.01,25.685 0.427,27.002 1.279,28.022 L12.126,41.969 L12.126,41.95 C13.792,44.065 15.799,45.901 18.071,47.384 C20.058,48.664 22.198,49.647 24.413,50.315 L24.394,50.333 L41.64,55.452 C42.151,55.638 42.681,55.749 43.249,55.749 C44.139,55.767 45.029,55.563 45.805,55.137 C46.979,54.525 47.831,53.449 48.19,52.207 z M45.919,3.43 C46.543,3.133 47.282,3.207 47.812,3.56 C48.096,3.745 48.323,3.986 48.474,4.302 C48.929,5.229 48.55,6.36 47.585,6.805 C46.998,7.084 46.354,7.028 45.824,6.75 C45.786,6.713 45.748,6.694 45.692,6.657 C45.654,6.638 45.616,6.601 45.578,6.583 C45.351,6.416 45.161,6.193 45.029,5.934 C44.556,5.006 44.953,3.894 45.919,3.43 z M3.588,23.812 C4.232,22.996 5.443,22.829 6.276,23.46 C6.788,23.849 7.034,24.424 7.015,25.018 C7.015,25.092 7.015,25.166 6.996,25.24 C6.958,25.537 6.825,25.834 6.636,26.093 C5.992,26.91 4.781,27.076 3.948,26.446 C3.38,26.019 3.134,25.37 3.21,24.721 C3.247,24.406 3.38,24.09 3.588,23.812 z M14.284,35.422 C9.552,25.889 13.603,14.428 23.334,9.791 C29.789,6.713 37.153,7.436 42.738,11.052 C45.559,12.889 47.925,15.448 49.516,18.638 C54.248,28.171 50.197,39.632 40.466,44.269 C34.011,47.347 26.647,46.624 21.062,43.008 C18.241,41.172 15.875,38.612 14.284,35.422 z M44.328,52.522 C44.044,52.689 43.704,52.763 43.344,52.763 C42.284,52.744 41.451,51.873 41.47,50.834 C41.489,50.148 41.886,49.554 42.454,49.239 C42.738,49.072 43.079,48.998 43.439,48.998 C44.499,49.017 45.332,49.888 45.313,50.927 C45.294,51.613 44.896,52.207 44.328,52.522 z M43.401,39.669 L38.214,39.725 L38.195,38.186 C36.964,39.02 34.73,40.17 31.607,40.207 C31.55,40.207 31.493,40.207 31.436,40.207 C24.167,40.207 18.62,34.569 18.544,27.021 C18.487,23.423 19.812,20.066 22.273,17.581 C24.735,15.077 28.161,13.668 31.91,13.63 C31.985,13.63 32.061,13.63 32.137,13.63 C38.308,13.63 41.565,16.672 41.716,16.802 L42.113,17.173 L39.198,21.587 L38.63,21.086 C38.611,21.067 36.112,18.972 32.515,18.972 C32.477,18.972 32.44,18.972 32.402,18.972 C27.593,19.027 24.526,22.106 24.583,26.817 C24.64,31.546 27.801,34.829 32.288,34.829 C32.326,34.829 32.364,34.829 32.402,34.829 C35.279,34.792 37.362,33.122 37.968,32.585 L37.949,30.656 L34.124,30.693 L34.068,25.574 L43.306,25.463 L43.401,39.669 z" fill="#303F9F"/>
</svg>
