<?xml version="1.0" encoding="UTF-8" standalone="no"?>
<!DOCTYPE svg PUBLIC "-//W3C//DTD SVG 1.1//EN"
 "http://www.w3.org/Graphics/SVG/1.1/DTD/svg11.dtd">
<!-- Generated by graphviz version 2.40.1 (20161225.0304)
 -->
<!-- Title: %3 Pages: 1 -->
<svg width="197pt" height="260pt"
 viewBox="0.00 0.00 196.72 260.00" xmlns="http://www.w3.org/2000/svg" xmlns:xlink="http://www.w3.org/1999/xlink">
<g id="graph0" class="graph" transform="scale(1 1) rotate(0) translate(4 256)">
<title>%3</title>
<polygon fill="#ffffff" stroke="transparent" points="-4,4 -4,-256 192.7231,-256 192.7231,4 -4,4"/>
<!-- composeServiceWorker -->
<g id="node1" class="node">
<title>composeServiceWorker</title>
<g id="a_node1"><a xlink:href="/packages/gasket-service-worker-plugin#composeserviceworker" xlink:title="composeServiceWorker">
<ellipse fill="#7fff7f" stroke="#000000" cx="94.3616" cy="-234" rx="94.2233" ry="18"/>
<text text-anchor="middle" x="94.3616" y="-229.8" font-family="Times,serif" font-size="14.00" fill="#000000">composeServiceWorker</text>
</a>
</g>
</g>
<!-- workbox_composeServiceWorker_hook -->
<g id="node3" class="node">
<title>workbox_composeServiceWorker_hook</title>
<g id="a_node3"><a xlink:href="/packages/workbox-plugin" xlink:title="workbox&#45;plugin">
<polygon fill="#ffa500" stroke="#000000" points="177.2241,-167.5623 94.3616,-180 11.4991,-167.5623 11.5764,-147.4377 177.1467,-147.4377 177.2241,-167.5623"/>
<text text-anchor="middle" x="94.3616" y="-157.8" font-family="Times,serif" font-size="14.00" fill="#000000">workbox&#45;plugin</text>
</a>
</g>
</g>
<!-- composeServiceWorker&#45;&gt;workbox_composeServiceWorker_hook -->
<g id="edge1" class="edge">
<title>composeServiceWorker&#45;&gt;workbox_composeServiceWorker_hook:n</title>
<path fill="none" stroke="#000000" d="M94.3616,-216C94.3616,-208.3711 94.3616,-199.1585 94.3616,-190.0882"/>
<polygon fill="#000000" stroke="#000000" points="97.8617,-190 94.3616,-180 90.8617,-190 97.8617,-190"/>
</g>
<!-- workbox -->
<g id="node2" class="node">
<title>workbox</title>
<g id="a_node2"><a xlink:href="/packages/gasket-workbox-plugin#workbox" xlink:title="workbox">
<ellipse fill="#7fff7f" stroke="#000000" cx="94.3616" cy="-18" rx="41.5938" ry="18"/>
<text text-anchor="middle" x="94.3616" y="-13.8" font-family="Times,serif" font-size="14.00" fill="#000000">workbox</text>
</a>
</g>
</g>
<!-- invoke_workbox_0 -->
<g id="node4" class="node">
<title>invoke_workbox_0</title>
<polygon fill="#cfcfff" stroke="#000000" points="127.1344,-108 61.5887,-108 61.5887,-72 127.1344,-72 127.1344,-108"/>
<text text-anchor="middle" x="94.3616" y="-85.8" font-family="Times,serif" font-size="14.00" fill="#000000">workbox</text>
</g>
<!-- workbox_composeServiceWorker_hook&#45;&gt;invoke_workbox_0 -->
<g id="edge2" class="edge">
<title>workbox_composeServiceWorker_hook&#45;&gt;invoke_workbox_0</title>
<path fill="none" stroke="#000000" d="M94.3616,-147.4297C94.3616,-139.1011 94.3616,-128.3665 94.3616,-118.436"/>
<polygon fill="#000000" stroke="#000000" points="97.8617,-118.1279 94.3616,-108.128 90.8617,-118.128 97.8617,-118.1279"/>
</g>
<!-- invoke_workbox_0&#45;&gt;workbox -->
<g id="edge3" class="edge">
<title>invoke_workbox_0&#45;&gt;workbox</title>
<path fill="none" stroke="#000000" stroke-dasharray="1,5" d="M94.3616,-71.8314C94.3616,-64.131 94.3616,-54.9743 94.3616,-46.4166"/>
<polygon fill="#000000" stroke="#000000" points="97.8617,-46.4132 94.3616,-36.4133 90.8617,-46.4133 97.8617,-46.4132"/>
</g>
</g>
</svg>
