<?xml version="1.0" encoding="UTF-8" standalone="no"?>
<!DOCTYPE svg PUBLIC "-//W3C//DTD SVG 1.1//EN"
 "http://www.w3.org/Graphics/SVG/1.1/DTD/svg11.dtd">
<!-- Generated by graphviz version 2.40.1 (20161225.0304)
 -->
<!-- Title: %3 Pages: 1 -->
<svg width="406pt" height="260pt"
 viewBox="0.00 0.00 406.25 260.00" xmlns="http://www.w3.org/2000/svg" xmlns:xlink="http://www.w3.org/1999/xlink">
<g id="graph0" class="graph" transform="scale(1 1) rotate(0) translate(4 256)">
<title>%3</title>
<polygon fill="#ffffff" stroke="transparent" points="-4,4 -4,-256 402.2493,-256 402.2493,4 -4,4"/>
<!-- configure -->
<g id="node1" class="node">
<title>configure</title>
<ellipse fill="#7fff7f" stroke="#000000" cx="211.3181" cy="-234" rx="43.5146" ry="18"/>
<text text-anchor="middle" x="211.3181" y="-229.8" font-family="Times,serif" font-size="14.00" fill="#000000">configure</text>
</g>
<!-- serviceWorker_configure_hook -->
<g id="node3" class="node">
<title>serviceWorker_configure_hook</title>
<g id="a_node3"><a xlink:href="https://github.com/godaddy/gasket/tree/master/packages/gasket-serviceWorker-plugin" xlink:title="serviceWorker&#45;plugin">
<polygon fill="#ffa500" stroke="#000000" points="214.4546,-167.5623 107.3181,-180 .1816,-167.5623 .2816,-147.4377 214.3546,-147.4377 214.4546,-167.5623"/>
<text text-anchor="middle" x="107.3181" y="-157.8" font-family="Times,serif" font-size="14.00" fill="#000000">serviceWorker&#45;plugin</text>
</a>
</g>
</g>
<!-- configure&#45;&gt;serviceWorker_configure_hook -->
<g id="edge1" class="edge">
<title>configure&#45;&gt;serviceWorker_configure_hook:n</title>
<path fill="none" stroke="#000000" d="M169.3171,-228.9221C143.9485,-223.5527 115.2804,-212.5395 108.7093,-189.9919"/>
<polygon fill="#000000" stroke="#000000" points="112.1638,-189.4218 107.3181,-180 105.2307,-190.3872 112.1638,-189.4218"/>
</g>
<!-- workbox_configure_hook -->
<g id="node4" class="node">
<title>workbox_configure_hook</title>
<g id="a_node4"><a xlink:href="https://github.com/godaddy/gasket/tree/master/packages/gasket-workbox-plugin" xlink:title="workbox&#45;plugin">
<polygon fill="#ffa500" stroke="#000000" points="398.1806,-167.5623 315.3181,-180 232.4556,-167.5623 232.5329,-147.4377 398.1033,-147.4377 398.1806,-167.5623"/>
<text text-anchor="middle" x="315.3181" y="-157.8" font-family="Times,serif" font-size="14.00" fill="#000000">workbox&#45;plugin</text>
</a>
</g>
</g>
<!-- configure&#45;&gt;workbox_configure_hook -->
<g id="edge2" class="edge">
<title>configure&#45;&gt;workbox_configure_hook:n</title>
<path fill="none" stroke="#000000" d="M253.3191,-228.9221C278.6877,-223.5527 307.3558,-212.5395 313.9269,-189.9919"/>
<polygon fill="#000000" stroke="#000000" points="317.4055,-190.3872 315.3181,-180 310.4724,-189.4218 317.4055,-190.3872"/>
</g>
<!-- serviceWorkerCacheKey -->
<g id="node2" class="node">
<title>serviceWorkerCacheKey</title>
<g id="a_node2"><a xlink:href="https://github.com/godaddy/gasket/tree/master/packages/gasket-service-worker-plugin#serviceworkercachekey" xlink:title="serviceWorkerCacheKey">
<ellipse fill="#7fff7f" stroke="#000000" cx="107.3181" cy="-18" rx="98.0567" ry="18"/>
<text text-anchor="middle" x="107.3181" y="-13.8" font-family="Times,serif" font-size="14.00" fill="#000000">serviceWorkerCacheKey</text>
</a>
</g>
</g>
<!-- invoke_serviceWorkerCacheKey_0 -->
<g id="node5" class="node">
<title>invoke_serviceWorkerCacheKey_0</title>
<polygon fill="#cfcfff" stroke="#000000" points="184.9017,-108 29.7345,-108 29.7345,-72 184.9017,-72 184.9017,-108"/>
<text text-anchor="middle" x="107.3181" y="-85.8" font-family="Times,serif" font-size="14.00" fill="#000000">serviceWorkerCacheKey</text>
</g>
<!-- serviceWorker_configure_hook&#45;&gt;invoke_serviceWorkerCacheKey_0 -->
<g id="edge3" class="edge">
<title>serviceWorker_configure_hook&#45;&gt;invoke_serviceWorkerCacheKey_0</title>
<path fill="none" stroke="#000000" d="M107.3181,-147.4297C107.3181,-139.1011 107.3181,-128.3665 107.3181,-118.436"/>
<polygon fill="#000000" stroke="#000000" points="110.8182,-118.1279 107.3181,-108.128 103.8182,-118.128 110.8182,-118.1279"/>
</g>
<!-- invoke_serviceWorkerCacheKey_0&#45;&gt;serviceWorkerCacheKey -->
<g id="edge4" class="edge">
<title>invoke_serviceWorkerCacheKey_0&#45;&gt;serviceWorkerCacheKey</title>
<path fill="none" stroke="#000000" stroke-dasharray="1,5" d="M107.3181,-71.8314C107.3181,-64.131 107.3181,-54.9743 107.3181,-46.4166"/>
<polygon fill="#000000" stroke="#000000" points="110.8182,-46.4132 107.3181,-36.4133 103.8182,-46.4133 110.8182,-46.4132"/>
</g>
</g>
</svg>
