<?xml version="1.0" encoding="UTF-8" standalone="no"?>
<!DOCTYPE svg PUBLIC "-//W3C//DTD SVG 1.1//EN"
 "http://www.w3.org/Graphics/SVG/1.1/DTD/svg11.dtd">
<!-- Generated by graphviz version 2.40.1 (20161225.0304)
 -->
<!-- Title: %3 Pages: 1 -->
<svg width="542pt" height="476pt"
 viewBox="0.00 0.00 541.58 476.00" xmlns="http://www.w3.org/2000/svg" xmlns:xlink="http://www.w3.org/1999/xlink">
<g id="graph0" class="graph" transform="scale(1 1) rotate(0) translate(4 472)">
<title>%3</title>
<polygon fill="#ffffff" stroke="transparent" points="-4,4 -4,-472 537.577,-472 537.577,4 -4,4"/>
<!-- express -->
<g id="node1" class="node">
<title>express</title>
<g id="a_node1"><a xlink:href="https://github.com/godaddy/gasket/tree/master/packages/gasket-express-plugin" xlink:title="express">
<ellipse fill="#7fff7f" stroke="#000000" cx="242.6458" cy="-450" rx="36.7576" ry="18"/>
<text text-anchor="middle" x="242.6458" y="-445.8" font-family="Times,serif" font-size="14.00" fill="#000000">express</text>
</a>
</g>
</g>
<!-- intl_express_hook -->
<g id="node4" class="node">
<title>intl_express_hook</title>
<g id="a_node4"><a xlink:href="https://github.com/godaddy/gasket/tree/master/packages/intl-plugin" xlink:title="intl&#45;plugin">
<polygon fill="#ffa500" stroke="#000000" points="117.4377,-383.5623 58.6458,-396 -.1461,-383.5623 -.0913,-363.4377 117.3828,-363.4377 117.4377,-383.5623"/>
<text text-anchor="middle" x="58.6458" y="-373.8" font-family="Times,serif" font-size="14.00" fill="#000000">intl&#45;plugin</text>
</a>
</g>
</g>
<!-- express&#45;&gt;intl_express_hook -->
<g id="edge1" class="edge">
<title>express&#45;&gt;intl_express_hook:n</title>
<path fill="none" stroke="#000000" d="M206.2933,-446.7623C158.7446,-441.6234 79.4297,-429.6364 62.0701,-405.7485"/>
<polygon fill="#000000" stroke="#000000" points="65.2622,-404.2749 58.6458,-396 58.6578,-406.5948 65.2622,-404.2749"/>
</g>
<!-- serviceWorker_express_hook -->
<g id="node5" class="node">
<title>serviceWorker_express_hook</title>
<g id="a_node5"><a xlink:href="https://github.com/godaddy/gasket/tree/master/packages/serviceWorker-plugin" xlink:title="serviceWorker&#45;plugin">
<polygon fill="#ffa500" stroke="#000000" points="349.7823,-383.5623 242.6458,-396 135.5093,-383.5623 135.6093,-363.4377 349.6823,-363.4377 349.7823,-383.5623"/>
<text text-anchor="middle" x="242.6458" y="-373.8" font-family="Times,serif" font-size="14.00" fill="#000000">serviceWorker&#45;plugin</text>
</a>
</g>
</g>
<!-- express&#45;&gt;serviceWorker_express_hook -->
<g id="edge2" class="edge">
<title>express&#45;&gt;serviceWorker_express_hook:n</title>
<path fill="none" stroke="#000000" d="M242.6458,-432C242.6458,-424.3711 242.6458,-415.1585 242.6458,-406.0882"/>
<polygon fill="#000000" stroke="#000000" points="246.1459,-406 242.6458,-396 239.1459,-406 246.1459,-406"/>
</g>
<!-- workbox_express_hook -->
<g id="node6" class="node">
<title>workbox_express_hook</title>
<g id="a_node6"><a xlink:href="https://github.com/godaddy/gasket/tree/master/packages/workbox-plugin" xlink:title="workbox&#45;plugin">
<polygon fill="#ffa500" stroke="#000000" points="533.5083,-383.5623 450.6458,-396 367.7833,-383.5623 367.8606,-363.4377 533.4309,-363.4377 533.5083,-383.5623"/>
<text text-anchor="middle" x="450.6458" y="-373.8" font-family="Times,serif" font-size="14.00" fill="#000000">workbox&#45;plugin</text>
</a>
</g>
</g>
<!-- express&#45;&gt;workbox_express_hook -->
<g id="edge3" class="edge">
<title>express&#45;&gt;workbox_express_hook:n</title>
<path fill="none" stroke="#000000" d="M279.3532,-447.9829C333.2346,-444.1054 429.3475,-433.3785 447.6057,-405.6228"/>
<polygon fill="#000000" stroke="#000000" points="450.9706,-406.5899 450.6458,-396 444.2958,-404.4811 450.9706,-406.5899"/>
</g>
<!-- composeServiceWorker -->
<g id="node2" class="node">
<title>composeServiceWorker</title>
<g id="a_node2"><a xlink:href="https://github.com/godaddy/gasket/tree/master/packages/gasket-service-worker-plugin#composeserviceworker" xlink:title="composeServiceWorker">
<ellipse fill="#7fff7f" stroke="#000000" cx="242.6458" cy="-234" rx="94.2233" ry="18"/>
<text text-anchor="middle" x="242.6458" y="-229.8" font-family="Times,serif" font-size="14.00" fill="#000000">composeServiceWorker</text>
</a>
</g>
</g>
<!-- workbox_composeServiceWorker_hook -->
<g id="node7" class="node">
<title>workbox_composeServiceWorker_hook</title>
<g id="a_node7"><a xlink:href="https://github.com/godaddy/gasket/tree/master/packages/workbox-plugin" xlink:title="workbox&#45;plugin">
<polygon fill="#ffa500" stroke="#000000" points="325.5083,-167.5623 242.6458,-180 159.7833,-167.5623 159.8606,-147.4377 325.4309,-147.4377 325.5083,-167.5623"/>
<text text-anchor="middle" x="242.6458" y="-157.8" font-family="Times,serif" font-size="14.00" fill="#000000">workbox&#45;plugin</text>
</a>
</g>
</g>
<!-- composeServiceWorker&#45;&gt;workbox_composeServiceWorker_hook -->
<g id="edge4" class="edge">
<title>composeServiceWorker&#45;&gt;workbox_composeServiceWorker_hook:n</title>
<path fill="none" stroke="#000000" d="M242.6458,-216C242.6458,-208.3711 242.6458,-199.1585 242.6458,-190.0882"/>
<polygon fill="#000000" stroke="#000000" points="246.1459,-190 242.6458,-180 239.1459,-190 246.1459,-190"/>
</g>
<!-- workbox -->
<g id="node3" class="node">
<title>workbox</title>
<g id="a_node3"><a xlink:href="https://github.com/godaddy/gasket/tree/master/packages/gasket-workbox-plugin#workbox" xlink:title="workbox">
<ellipse fill="#7fff7f" stroke="#000000" cx="242.6458" cy="-18" rx="41.5938" ry="18"/>
<text text-anchor="middle" x="242.6458" y="-13.8" font-family="Times,serif" font-size="14.00" fill="#000000">workbox</text>
</a>
</g>
</g>
<!-- invoke_composeServiceWorker_0 -->
<g id="node8" class="node">
<title>invoke_composeServiceWorker_0</title>
<polygon fill="#cfcfff" stroke="#000000" points="317.5291,-324 167.7625,-324 167.7625,-288 317.5291,-288 317.5291,-324"/>
<text text-anchor="middle" x="242.6458" y="-301.8" font-family="Times,serif" font-size="14.00" fill="#000000">composeServiceWorker</text>
</g>
<!-- serviceWorker_express_hook&#45;&gt;invoke_composeServiceWorker_0 -->
<g id="edge5" class="edge">
<title>serviceWorker_express_hook&#45;&gt;invoke_composeServiceWorker_0</title>
<path fill="none" stroke="#000000" d="M242.6458,-363.4297C242.6458,-355.1011 242.6458,-344.3665 242.6458,-334.436"/>
<polygon fill="#000000" stroke="#000000" points="246.1459,-334.1279 242.6458,-324.128 239.1459,-334.128 246.1459,-334.1279"/>
</g>
<!-- invoke_workbox_1 -->
<g id="node9" class="node">
<title>invoke_workbox_1</title>
<polygon fill="#cfcfff" stroke="#000000" points="275.4186,-108 209.8729,-108 209.8729,-72 275.4186,-72 275.4186,-108"/>
<text text-anchor="middle" x="242.6458" y="-85.8" font-family="Times,serif" font-size="14.00" fill="#000000">workbox</text>
</g>
<!-- workbox_composeServiceWorker_hook&#45;&gt;invoke_workbox_1 -->
<g id="edge6" class="edge">
<title>workbox_composeServiceWorker_hook&#45;&gt;invoke_workbox_1</title>
<path fill="none" stroke="#000000" d="M242.6458,-147.4297C242.6458,-139.1011 242.6458,-128.3665 242.6458,-118.436"/>
<polygon fill="#000000" stroke="#000000" points="246.1459,-118.1279 242.6458,-108.128 239.1459,-118.128 246.1459,-118.1279"/>
</g>
<!-- invoke_composeServiceWorker_0&#45;&gt;composeServiceWorker -->
<g id="edge7" class="edge">
<title>invoke_composeServiceWorker_0&#45;&gt;composeServiceWorker</title>
<path fill="none" stroke="#000000" stroke-dasharray="1,5" d="M242.6458,-287.8314C242.6458,-280.131 242.6458,-270.9743 242.6458,-262.4166"/>
<polygon fill="#000000" stroke="#000000" points="246.1459,-262.4132 242.6458,-252.4133 239.1459,-262.4133 246.1459,-262.4132"/>
</g>
<!-- invoke_workbox_1&#45;&gt;workbox -->
<g id="edge8" class="edge">
<title>invoke_workbox_1&#45;&gt;workbox</title>
<path fill="none" stroke="#000000" stroke-dasharray="1,5" d="M242.6458,-71.8314C242.6458,-64.131 242.6458,-54.9743 242.6458,-46.4166"/>
<polygon fill="#000000" stroke="#000000" points="246.1459,-46.4132 242.6458,-36.4133 239.1459,-46.4133 246.1459,-46.4132"/>
</g>
</g>
</svg>
