<?xml version="1.0" encoding="UTF-8" standalone="no"?>
<!DOCTYPE svg PUBLIC "-//W3C//DTD SVG 1.1//EN"
 "http://www.w3.org/Graphics/SVG/1.1/DTD/svg11.dtd">
<!-- Generated by graphviz version 2.40.1 (20161225.0304)
 -->
<!-- Title: %3 Pages: 1 -->
<svg width="182pt" height="260pt"
 viewBox="0.00 0.00 182.35 260.00" xmlns="http://www.w3.org/2000/svg" xmlns:xlink="http://www.w3.org/1999/xlink">
<g id="graph0" class="graph" transform="scale(1 1) rotate(0) translate(4 256)">
<title>%3</title>
<polygon fill="#ffffff" stroke="transparent" points="-4,4 -4,-256 178.349,-256 178.349,4 -4,4"/>
<!-- initOclif -->
<g id="node1" class="node">
<title>initOclif</title>
<ellipse fill="#7fff7f" stroke="#000000" cx="87.1745" cy="-234" rx="40.1403" ry="18"/>
<text text-anchor="middle" x="87.1745" y="-229.8" font-family="Times,serif" font-size="14.00" fill="#000000">initOclif</text>
</g>
<!-- command_initOclif_hook -->
<g id="node3" class="node">
<title>command_initOclif_hook</title>
<g id="a_node3"><a xlink:href="/packages/command-plugin" xlink:title="command&#45;plugin">
<polygon fill="#ffa500" stroke="#000000" points="174.5239,-167.5623 87.1745,-180 -.1749,-167.5623 -.0933,-147.4377 174.4423,-147.4377 174.5239,-167.5623"/>
<text text-anchor="middle" x="87.1745" y="-157.8" font-family="Times,serif" font-size="14.00" fill="#000000">command&#45;plugin</text>
</a>
</g>
</g>
<!-- initOclif&#45;&gt;command_initOclif_hook -->
<g id="edge1" class="edge">
<title>initOclif&#45;&gt;command_initOclif_hook:n</title>
<path fill="none" stroke="#000000" d="M87.1745,-216C87.1745,-208.3711 87.1745,-199.1585 87.1745,-190.0882"/>
<polygon fill="#000000" stroke="#000000" points="90.6746,-190 87.1745,-180 83.6746,-190 90.6746,-190"/>
</g>
<!-- getCommands -->
<g id="node2" class="node">
<title>getCommands</title>
<g id="a_node2"><a xlink:href="/packages/gasket-command-plugin#getcommands" xlink:title="getCommands">
<ellipse fill="#7fff7f" stroke="#000000" cx="87.1745" cy="-18" rx="61.3978" ry="18"/>
<text text-anchor="middle" x="87.1745" y="-13.8" font-family="Times,serif" font-size="14.00" fill="#000000">getCommands</text>
</a>
</g>
</g>
<!-- invoke_getCommands_0 -->
<g id="node4" class="node">
<title>invoke_getCommands_0</title>
<polygon fill="#cfcfff" stroke="#000000" points="135.5574,-108 38.7916,-108 38.7916,-72 135.5574,-72 135.5574,-108"/>
<text text-anchor="middle" x="87.1745" y="-85.8" font-family="Times,serif" font-size="14.00" fill="#000000">getCommands</text>
</g>
<!-- command_initOclif_hook&#45;&gt;invoke_getCommands_0 -->
<g id="edge2" class="edge">
<title>command_initOclif_hook&#45;&gt;invoke_getCommands_0</title>
<path fill="none" stroke="#000000" d="M87.1745,-147.4297C87.1745,-139.1011 87.1745,-128.3665 87.1745,-118.436"/>
<polygon fill="#000000" stroke="#000000" points="90.6746,-118.1279 87.1745,-108.128 83.6746,-118.128 90.6746,-118.1279"/>
</g>
<!-- invoke_getCommands_0&#45;&gt;getCommands -->
<g id="edge3" class="edge">
<title>invoke_getCommands_0&#45;&gt;getCommands</title>
<path fill="none" stroke="#000000" stroke-dasharray="1,5" d="M87.1745,-71.8314C87.1745,-64.131 87.1745,-54.9743 87.1745,-46.4166"/>
<polygon fill="#000000" stroke="#000000" points="90.6746,-46.4132 87.1745,-36.4133 83.6746,-46.4133 90.6746,-46.4132"/>
</g>
</g>
</svg>
