<?xml version="1.0" encoding="UTF-8" standalone="no"?>
<!DOCTYPE svg PUBLIC "-//W3C//DTD SVG 1.1//EN"
 "http://www.w3.org/Graphics/SVG/1.1/DTD/svg11.dtd">
<!-- Generated by graphviz version 2.40.1 (20161225.0304)
 -->
<!-- Title: %3 Pages: 1 -->
<svg width="307pt" height="260pt"
 viewBox="0.00 0.00 306.62 260.00" xmlns="http://www.w3.org/2000/svg" xmlns:xlink="http://www.w3.org/1999/xlink">
<g id="graph0" class="graph" transform="scale(1 1) rotate(0) translate(4 256)">
<title>%3</title>
<polygon fill="#ffffff" stroke="transparent" points="-4,4 -4,-256 302.6159,-256 302.6159,4 -4,4"/>
<!-- init -->
<g id="node1" class="node">
<title>init</title>
<ellipse fill="#7fff7f" stroke="#000000" cx="160.6929" cy="-234" rx="27" ry="18"/>
<text text-anchor="middle" x="160.6929" y="-229.8" font-family="Times,serif" font-size="14.00" fill="#000000">init</text>
</g>
<!-- lifecycle_init_hook -->
<g id="node3" class="node">
<title>lifecycle_init_hook</title>
<g id="a_node3"><a xlink:href="https://github.com/godaddy/gasket/tree/master/packages/gasket-plugin-lifecycle" xlink:title="lifecycle&#45;plugin">
<polygon fill="#ffa500" stroke="#000000" points="163.5792,-167.5623 81.6929,-180 -.1934,-167.5623 -.117,-147.4377 163.5028,-147.4377 163.5792,-167.5623"/>
<text text-anchor="middle" x="81.6929" y="-157.8" font-family="Times,serif" font-size="14.00" fill="#000000">lifecycle&#45;plugin</text>
</a>
</g>
</g>
<!-- init&#45;&gt;lifecycle_init_hook -->
<g id="edge1" class="edge">
<title>init&#45;&gt;lifecycle_init_hook:n</title>
<path fill="none" stroke="#000000" d="M134.8254,-227.8584C114.9356,-221.6498 89.7896,-210.0562 83.2855,-190.1145"/>
<polygon fill="#000000" stroke="#000000" points="86.7058,-189.3339 81.6929,-180 79.791,-190.4227 86.7058,-189.3339"/>
</g>
<!-- log_init_hook -->
<g id="node4" class="node">
<title>log_init_hook</title>
<g id="a_node4"><a xlink:href="https://github.com/godaddy/gasket/tree/master/packages/gasket-plugin-log" xlink:title="log&#45;plugin">
<polygon fill="#ffa500" stroke="#000000" points="297.7675,-167.5623 239.6929,-180 181.6183,-167.5623 181.6725,-147.4377 297.7133,-147.4377 297.7675,-167.5623"/>
<text text-anchor="middle" x="239.6929" y="-157.8" font-family="Times,serif" font-size="14.00" fill="#000000">log&#45;plugin</text>
</a>
</g>
</g>
<!-- init&#45;&gt;log_init_hook -->
<g id="edge2" class="edge">
<title>init&#45;&gt;log_init_hook:n</title>
<path fill="none" stroke="#000000" d="M186.5605,-227.8584C206.4503,-221.6498 231.5963,-210.0562 238.1004,-190.1145"/>
<polygon fill="#000000" stroke="#000000" points="241.5949,-190.4227 239.6929,-180 234.6801,-189.3339 241.5949,-190.4227"/>
</g>
<!-- logTransports -->
<g id="node2" class="node">
<title>logTransports</title>
<ellipse fill="#7fff7f" stroke="#000000" cx="239.6929" cy="-18" rx="58.846" ry="18"/>
<text text-anchor="middle" x="239.6929" y="-13.8" font-family="Times,serif" font-size="14.00" fill="#000000">logTransports</text>
</g>
<!-- invoke_logTransports_0 -->
<g id="node5" class="node">
<title>invoke_logTransports_0</title>
<polygon fill="#cfcfff" stroke="#000000" points="286.4736,-108 192.9122,-108 192.9122,-72 286.4736,-72 286.4736,-108"/>
<text text-anchor="middle" x="239.6929" y="-85.8" font-family="Times,serif" font-size="14.00" fill="#000000">logTransports</text>
</g>
<!-- log_init_hook&#45;&gt;invoke_logTransports_0 -->
<g id="edge3" class="edge">
<title>log_init_hook&#45;&gt;invoke_logTransports_0</title>
<path fill="none" stroke="#000000" d="M239.6929,-147.4297C239.6929,-139.1011 239.6929,-128.3665 239.6929,-118.436"/>
<polygon fill="#000000" stroke="#000000" points="243.193,-118.1279 239.6929,-108.128 236.193,-118.128 243.193,-118.1279"/>
</g>
<!-- invoke_logTransports_0&#45;&gt;logTransports -->
<g id="edge4" class="edge">
<title>invoke_logTransports_0&#45;&gt;logTransports</title>
<path fill="none" stroke="#000000" stroke-dasharray="1,5" d="M239.6929,-71.8314C239.6929,-64.131 239.6929,-54.9743 239.6929,-46.4166"/>
<polygon fill="#000000" stroke="#000000" points="243.193,-46.4132 239.6929,-36.4133 236.193,-46.4133 243.193,-46.4132"/>
</g>
</g>
</svg>
