<?xml version="1.0" encoding="UTF-8" standalone="no"?>
<!DOCTYPE svg PUBLIC "-//W3C//DTD SVG 1.1//EN"
 "http://www.w3.org/Graphics/SVG/1.1/DTD/svg11.dtd">
<!-- Generated by graphviz version 2.40.1 (20161225.0304)
 -->
<!-- Title: %3 Pages: 1 -->
<svg width="543pt" height="332pt"
 viewBox="0.00 0.00 542.77 332.00" xmlns="http://www.w3.org/2000/svg" xmlns:xlink="http://www.w3.org/1999/xlink">
<g id="graph0" class="graph" transform="scale(1 1) rotate(0) translate(4 328)">
<title>%3</title>
<polygon fill="#ffffff" stroke="transparent" points="-4,4 -4,-328 538.7664,-328 538.7664,4 -4,4"/>
<!-- middleware -->
<g id="node1" class="node">
<title>middleware</title>
<g id="a_node1"><a xlink:href="https://github.com/godaddy/gasket/tree/master/packages/gasket-express-plugin#middleware" xlink:title="middleware">
<ellipse fill="#7fff7f" stroke="#000000" cx="233.4483" cy="-306" rx="51.7002" ry="18"/>
<text text-anchor="middle" x="233.4483" y="-301.8" font-family="Times,serif" font-size="14.00" fill="#000000">middleware</text>
</a>
</g>
</g>
<!-- config_middleware_hook -->
<g id="node5" class="node">
<title>config_middleware_hook</title>
<g id="a_node5"><a xlink:href="https://github.com/godaddy/gasket/tree/master/packages/gasket-config-plugin" xlink:title="config&#45;plugin">
<polygon fill="#ffa500" stroke="#000000" points="146.7424,-239.5623 75.4483,-252 4.1542,-239.5623 4.2208,-219.4377 146.6758,-219.4377 146.7424,-239.5623"/>
<text text-anchor="middle" x="75.4483" y="-229.8" font-family="Times,serif" font-size="14.00" fill="#000000">config&#45;plugin</text>
</a>
</g>
</g>
<!-- middleware&#45;&gt;config_middleware_hook -->
<g id="edge1" class="edge">
<title>middleware&#45;&gt;config_middleware_hook:n</title>
<path fill="none" stroke="#000000" d="M185.1846,-299.0022C145.2538,-292.0118 92.911,-279.6648 78.9792,-261.4281"/>
<polygon fill="#000000" stroke="#000000" points="82.2333,-260.1372 75.4483,-252 75.6779,-262.5924 82.2333,-260.1372"/>
</g>
<!-- redux_middleware_hook -->
<g id="node6" class="node">
<title>redux_middleware_hook</title>
<g id="a_node6"><a xlink:href="https://github.com/godaddy/gasket/tree/master/packages/gasket-redux-plugin" xlink:title="redux&#45;plugin">
<polygon fill="#ffa500" stroke="#000000" points="302.3638,-239.5623 233.4483,-252 164.5328,-239.5623 164.5971,-219.4377 302.2995,-219.4377 302.3638,-239.5623"/>
<text text-anchor="middle" x="233.4483" y="-229.8" font-family="Times,serif" font-size="14.00" fill="#000000">redux&#45;plugin</text>
</a>
</g>
</g>
<!-- middleware&#45;&gt;redux_middleware_hook -->
<g id="edge2" class="edge">
<title>middleware&#45;&gt;redux_middleware_hook:n</title>
<path fill="none" stroke="#000000" d="M233.4483,-288C233.4483,-280.3711 233.4483,-271.1585 233.4483,-262.0882"/>
<polygon fill="#000000" stroke="#000000" points="236.9484,-262 233.4483,-252 229.9484,-262 236.9484,-262"/>
</g>
<!-- serviceWorker_middleware_hook -->
<g id="node7" class="node">
<title>serviceWorker_middleware_hook</title>
<g id="a_node7"><a xlink:href="https://github.com/godaddy/gasket/tree/master/packages/gasket-serviceWorker-plugin" xlink:title="serviceWorker&#45;plugin">
<polygon fill="#ffa500" stroke="#000000" points="534.5848,-239.5623 427.4483,-252 320.3118,-239.5623 320.4118,-219.4377 534.4848,-219.4377 534.5848,-239.5623"/>
<text text-anchor="middle" x="427.4483" y="-229.8" font-family="Times,serif" font-size="14.00" fill="#000000">serviceWorker&#45;plugin</text>
</a>
</g>
</g>
<!-- middleware&#45;&gt;serviceWorker_middleware_hook -->
<g id="edge3" class="edge">
<title>middleware&#45;&gt;serviceWorker_middleware_hook:n</title>
<path fill="none" stroke="#000000" d="M284.1661,-301.9C335.1351,-296.5089 408.3723,-284.8435 424.311,-261.5207"/>
<polygon fill="#000000" stroke="#000000" points="427.6427,-262.5931 427.4483,-252 420.9944,-260.4022 427.6427,-262.5931"/>
</g>
<!-- appRequestConfig -->
<g id="node2" class="node">
<title>appRequestConfig</title>
<g id="a_node2"><a xlink:href="https://github.com/godaddy/gasket/tree/master/packages/gasket-config-plugin#apprequestconfig" xlink:title="appRequestConfig">
<ellipse fill="#7fff7f" stroke="#000000" cx="75.4483" cy="-90" rx="75.3966" ry="18"/>
<text text-anchor="middle" x="75.4483" y="-85.8" font-family="Times,serif" font-size="14.00" fill="#000000">appRequestConfig</text>
</a>
</g>
</g>
<!-- initReduxState -->
<g id="node3" class="node">
<title>initReduxState</title>
<g id="a_node3"><a xlink:href="https://github.com/godaddy/gasket/tree/master/packages/gasket-redux-plugin#initreduxstate" xlink:title="initReduxState">
<ellipse fill="#7fff7f" stroke="#000000" cx="232.4483" cy="-90" rx="62.8425" ry="18"/>
<text text-anchor="middle" x="232.4483" y="-85.8" font-family="Times,serif" font-size="14.00" fill="#000000">initReduxState</text>
</a>
</g>
</g>
<!-- config_initReduxState_hook -->
<g id="node8" class="node">
<title>config_initReduxState_hook</title>
<g id="a_node8"><a xlink:href="https://github.com/godaddy/gasket/tree/master/packages/gasket-config-plugin" xlink:title="config&#45;plugin">
<polygon fill="#ffa500" stroke="#000000" points="297.7424,-23.5623 226.4483,-36 155.1542,-23.5623 155.2208,-3.4377 297.6758,-3.4377 297.7424,-23.5623"/>
<text text-anchor="middle" x="226.4483" y="-13.8" font-family="Times,serif" font-size="14.00" fill="#000000">config&#45;plugin</text>
</a>
</g>
</g>
<!-- initReduxState&#45;&gt;config_initReduxState_hook -->
<g id="edge4" class="edge">
<title>initReduxState&#45;&gt;config_initReduxState_hook:n</title>
<path fill="none" stroke="#000000" d="M229.378,-71.5619C228.317,-64.08 227.2677,-55.1219 226.7614,-46.2618"/>
<polygon fill="#000000" stroke="#000000" points="230.2517,-45.8886 226.4483,-36 223.255,-46.1021 230.2517,-45.8886"/>
</g>
<!-- initReduxStore -->
<g id="node4" class="node">
<title>initReduxStore</title>
<g id="a_node4"><a xlink:href="https://github.com/godaddy/gasket/tree/master/packages/gasket-redux-plugin#initreduxstore" xlink:title="initReduxStore">
<ellipse fill="#7fff7f" stroke="#000000" cx="379.4483" cy="-18" rx="63.8115" ry="18"/>
<text text-anchor="middle" x="379.4483" y="-13.8" font-family="Times,serif" font-size="14.00" fill="#000000">initReduxStore</text>
</a>
</g>
</g>
<!-- invoke_appRequestConfig_0 -->
<g id="node9" class="node">
<title>invoke_appRequestConfig_0</title>
<polygon fill="#cfcfff" stroke="#000000" points="135.3905,-180 15.5061,-180 15.5061,-144 135.3905,-144 135.3905,-180"/>
<text text-anchor="middle" x="75.4483" y="-157.8" font-family="Times,serif" font-size="14.00" fill="#000000">appRequestConfig</text>
</g>
<!-- config_middleware_hook&#45;&gt;invoke_appRequestConfig_0 -->
<g id="edge5" class="edge">
<title>config_middleware_hook&#45;&gt;invoke_appRequestConfig_0</title>
<path fill="none" stroke="#000000" d="M75.4483,-219.4297C75.4483,-211.1011 75.4483,-200.3665 75.4483,-190.436"/>
<polygon fill="#000000" stroke="#000000" points="78.9484,-190.1279 75.4483,-180.128 71.9484,-190.128 78.9484,-190.1279"/>
</g>
<!-- invoke_initReduxState_1 -->
<g id="node10" class="node">
<title>invoke_initReduxState_1</title>
<polygon fill="#cfcfff" stroke="#000000" points="283.1624,-180 183.7342,-180 183.7342,-144 283.1624,-144 283.1624,-180"/>
<text text-anchor="middle" x="233.4483" y="-157.8" font-family="Times,serif" font-size="14.00" fill="#000000">initReduxState</text>
</g>
<!-- redux_middleware_hook&#45;&gt;invoke_initReduxState_1 -->
<g id="edge6" class="edge">
<title>redux_middleware_hook&#45;&gt;invoke_initReduxState_1</title>
<path fill="none" stroke="#000000" d="M233.4483,-219.4297C233.4483,-211.1011 233.4483,-200.3665 233.4483,-190.436"/>
<polygon fill="#000000" stroke="#000000" points="236.9484,-190.1279 233.4483,-180.128 229.9484,-190.128 236.9484,-190.1279"/>
</g>
<!-- invoke_appRequestConfig_0&#45;&gt;appRequestConfig -->
<g id="edge8" class="edge">
<title>invoke_appRequestConfig_0&#45;&gt;appRequestConfig</title>
<path fill="none" stroke="#000000" stroke-dasharray="1,5" d="M75.4483,-143.8314C75.4483,-136.131 75.4483,-126.9743 75.4483,-118.4166"/>
<polygon fill="#000000" stroke="#000000" points="78.9484,-118.4132 75.4483,-108.4133 71.9484,-118.4133 78.9484,-118.4132"/>
</g>
<!-- invoke_initReduxState_1&#45;&gt;initReduxState -->
<g id="edge9" class="edge">
<title>invoke_initReduxState_1&#45;&gt;initReduxState</title>
<path fill="none" stroke="#000000" stroke-dasharray="1,5" d="M233.1959,-143.8314C233.089,-136.131 232.9618,-126.9743 232.843,-118.4166"/>
<polygon fill="#000000" stroke="#000000" points="236.3427,-118.3637 232.704,-108.4133 229.3433,-118.4609 236.3427,-118.3637"/>
</g>
<!-- invoke_initReduxStore_2 -->
<g id="node11" class="node">
<title>invoke_initReduxStore_2</title>
<polygon fill="#cfcfff" stroke="#000000" points="418.721,-108 318.1756,-108 318.1756,-72 418.721,-72 418.721,-108"/>
<text text-anchor="middle" x="368.4483" y="-85.8" font-family="Times,serif" font-size="14.00" fill="#000000">initReduxStore</text>
</g>
<!-- invoke_initReduxState_1&#45;&gt;invoke_initReduxStore_2 -->
<g id="edge7" class="edge">
<title>invoke_initReduxState_1&#45;&gt;invoke_initReduxStore_2</title>
<path fill="none" stroke="#000000" d="M267.5145,-143.8314C285.1016,-134.4516 306.7399,-122.9112 325.4651,-112.9244"/>
<polygon fill="#000000" stroke="#000000" points="327.2165,-115.957 334.393,-108.1628 323.9224,-109.7805 327.2165,-115.957"/>
</g>
<!-- invoke_initReduxStore_2&#45;&gt;initReduxStore -->
<g id="edge10" class="edge">
<title>invoke_initReduxStore_2&#45;&gt;initReduxStore</title>
<path fill="none" stroke="#000000" stroke-dasharray="1,5" d="M371.2241,-71.8314C372.4005,-64.131 373.7994,-54.9743 375.1069,-46.4166"/>
<polygon fill="#000000" stroke="#000000" points="378.5847,-46.8272 376.6352,-36.4133 371.665,-45.7699 378.5847,-46.8272"/>
</g>
</g>
</svg>
