<?xml version="1.0" encoding="UTF-8" standalone="no"?>
<!DOCTYPE svg PUBLIC "-//W3C//DTD SVG 1.1//EN"
 "http://www.w3.org/Graphics/SVG/1.1/DTD/svg11.dtd">
<!-- Generated by graphviz version 2.40.1 (20161225.0304)
 -->
<!-- Title: %3 Pages: 1 -->
<svg width="151pt" height="260pt"
 viewBox="0.00 0.00 150.79 260.00" xmlns="http://www.w3.org/2000/svg" xmlns:xlink="http://www.w3.org/1999/xlink">
<g id="graph0" class="graph" transform="scale(1 1) rotate(0) translate(4 256)">
<title>%3</title>
<polygon fill="#ffffff" stroke="transparent" points="-4,4 -4,-256 146.7939,-256 146.7939,4 -4,4"/>
<!-- preboot -->
<g id="node1" class="node">
<title>preboot</title>
<ellipse fill="#7fff7f" stroke="#000000" cx="71.397" cy="-234" rx="37.2421" ry="18"/>
<text text-anchor="middle" x="71.397" y="-229.8" font-family="Times,serif" font-size="14.00" fill="#000000">preboot</text>
</g>
<!-- config_preboot_hook -->
<g id="node3" class="node">
<title>config_preboot_hook</title>
<g id="a_node3"><a xlink:href="https://github.com/godaddy/gasket/tree/master/packages/config-plugin" xlink:title="config&#45;plugin">
<polygon fill="#ffa500" stroke="#000000" points="142.691,-167.5623 71.397,-180 .1029,-167.5623 .1694,-147.4377 142.6245,-147.4377 142.691,-167.5623"/>
<text text-anchor="middle" x="71.397" y="-157.8" font-family="Times,serif" font-size="14.00" fill="#000000">config&#45;plugin</text>
</a>
</g>
</g>
<!-- preboot&#45;&gt;config_preboot_hook -->
<g id="edge1" class="edge">
<title>preboot&#45;&gt;config_preboot_hook:n</title>
<path fill="none" stroke="#000000" d="M71.397,-216C71.397,-208.3711 71.397,-199.1585 71.397,-190.0882"/>
<polygon fill="#000000" stroke="#000000" points="74.8971,-190 71.397,-180 67.8971,-190 74.8971,-190"/>
</g>
<!-- appEnvConfig -->
<g id="node2" class="node">
<title>appEnvConfig</title>
<g id="a_node2"><a xlink:href="https://github.com/godaddy/gasket/tree/master/packages/gasket-config-plugin#appenvconfig" xlink:title="appEnvConfig">
<ellipse fill="#7fff7f" stroke="#000000" cx="71.397" cy="-18" rx="61.4064" ry="18"/>
<text text-anchor="middle" x="71.397" y="-13.8" font-family="Times,serif" font-size="14.00" fill="#000000">appEnvConfig</text>
</a>
</g>
</g>
<!-- invoke_appEnvConfig_0 -->
<g id="node4" class="node">
<title>invoke_appEnvConfig_0</title>
<polygon fill="#cfcfff" stroke="#000000" points="119.7867,-108 23.0073,-108 23.0073,-72 119.7867,-72 119.7867,-108"/>
<text text-anchor="middle" x="71.397" y="-85.8" font-family="Times,serif" font-size="14.00" fill="#000000">appEnvConfig</text>
</g>
<!-- config_preboot_hook&#45;&gt;invoke_appEnvConfig_0 -->
<g id="edge2" class="edge">
<title>config_preboot_hook&#45;&gt;invoke_appEnvConfig_0</title>
<path fill="none" stroke="#000000" d="M71.397,-147.4297C71.397,-139.1011 71.397,-128.3665 71.397,-118.436"/>
<polygon fill="#000000" stroke="#000000" points="74.8971,-118.1279 71.397,-108.128 67.8971,-118.128 74.8971,-118.1279"/>
</g>
<!-- invoke_appEnvConfig_0&#45;&gt;appEnvConfig -->
<g id="edge3" class="edge">
<title>invoke_appEnvConfig_0&#45;&gt;appEnvConfig</title>
<path fill="none" stroke="#000000" stroke-dasharray="1,5" d="M71.397,-71.8314C71.397,-64.131 71.397,-54.9743 71.397,-46.4166"/>
<polygon fill="#000000" stroke="#000000" points="74.8971,-46.4132 71.397,-36.4133 67.8971,-46.4133 74.8971,-46.4132"/>
</g>
</g>
</svg>
