<?xml version="1.0" encoding="UTF-8" standalone="no"?>
<!DOCTYPE svg PUBLIC "-//W3C//DTD SVG 1.1//EN"
 "http://www.w3.org/Graphics/SVG/1.1/DTD/svg11.dtd">
<!-- Generated by graphviz version 2.40.1 (20161225.0304)
 -->
<!-- Title: %3 Pages: 1 -->
<svg width="1341pt" height="764pt"
 viewBox="0.00 0.00 1341.33 764.00" xmlns="http://www.w3.org/2000/svg" xmlns:xlink="http://www.w3.org/1999/xlink">
<g id="graph0" class="graph" transform="scale(1 1) rotate(0) translate(4 760)">
<title>%3</title>
<polygon fill="#ffffff" stroke="transparent" points="-4,4 -4,-760 1337.3282,-760 1337.3282,4 -4,4"/>
<!-- start -->
<g id="node1" class="node">
<title>start</title>
<g id="a_node1"><a xlink:href="https://github.com/godaddy/gasket/tree/master/packages/gasket-cli#gasket-start" xlink:title="start">
<ellipse fill="#7fff7f" stroke="#000000" cx="722.397" cy="-738" rx="27" ry="18"/>
<text text-anchor="middle" x="722.397" y="-733.8" font-family="Times,serif" font-size="14.00" fill="#000000">start</text>
</a>
</g>
</g>
<!-- express_start_hook -->
<g id="node10" class="node">
<title>express_start_hook</title>
<g id="a_node10"><a xlink:href="https://github.com/godaddy/gasket/tree/master/packages/express-plugin" xlink:title="express&#45;plugin">
<polygon fill="#ffa500" stroke="#000000" points="634.101,-671.5623 557.397,-684 480.693,-671.5623 480.7646,-651.4377 634.0294,-651.4377 634.101,-671.5623"/>
<text text-anchor="middle" x="557.397" y="-661.8" font-family="Times,serif" font-size="14.00" fill="#000000">express&#45;plugin</text>
</a>
</g>
</g>
<!-- start&#45;&gt;express_start_hook -->
<g id="edge1" class="edge">
<title>start&#45;&gt;express_start_hook:n</title>
<path fill="none" stroke="#000000" d="M695.5196,-734.842C654.244,-729.3256 578.1987,-716.2997 560.9424,-693.5698"/>
<polygon fill="#000000" stroke="#000000" points="564.1531,-692.1612 557.397,-684 557.589,-694.5931 564.1531,-692.1612"/>
</g>
<!-- nextjs_start_hook -->
<g id="node11" class="node">
<title>nextjs_start_hook</title>
<g id="a_node11"><a xlink:href="https://github.com/godaddy/gasket/tree/master/packages/nextjs-plugin" xlink:title="nextjs&#45;plugin">
<polygon fill="#ffa500" stroke="#000000" points="792.7575,-671.5623 722.397,-684 652.0365,-671.5623 652.1021,-651.4377 792.6918,-651.4377 792.7575,-671.5623"/>
<text text-anchor="middle" x="722.397" y="-661.8" font-family="Times,serif" font-size="14.00" fill="#000000">nextjs&#45;plugin</text>
</a>
</g>
</g>
<!-- start&#45;&gt;nextjs_start_hook -->
<g id="edge2" class="edge">
<title>start&#45;&gt;nextjs_start_hook:n</title>
<path fill="none" stroke="#000000" d="M722.397,-720C722.397,-712.3711 722.397,-703.1585 722.397,-694.0882"/>
<polygon fill="#000000" stroke="#000000" points="725.8971,-694 722.397,-684 718.8971,-694 725.8971,-694"/>
</g>
<!-- https_start_hook -->
<g id="node12" class="node">
<title>https_start_hook</title>
<g id="a_node12"><a xlink:href="https://github.com/godaddy/gasket/tree/master/packages/https-plugin" xlink:title="https&#45;plugin">
<polygon fill="#ffa500" stroke="#000000" points="941.5539,-671.5623 876.397,-684 811.24,-671.5623 811.3008,-651.4377 941.4931,-651.4377 941.5539,-671.5623"/>
<text text-anchor="middle" x="876.397" y="-661.8" font-family="Times,serif" font-size="14.00" fill="#000000">https&#45;plugin</text>
</a>
</g>
</g>
<!-- start&#45;&gt;https_start_hook -->
<g id="edge3" class="edge">
<title>start&#45;&gt;https_start_hook:n</title>
<path fill="none" stroke="#000000" d="M748.8705,-734.2865C787.3975,-728.2252 856.1397,-714.7151 872.7233,-693.5433"/>
<polygon fill="#000000" stroke="#000000" points="876.0707,-694.5898 876.397,-684 869.538,-692.075 876.0707,-694.5898"/>
</g>
<!-- middleware -->
<g id="node2" class="node">
<title>middleware</title>
<g id="a_node2"><a xlink:href="https://github.com/godaddy/gasket/tree/master/packages/gasket-express-plugin#middleware" xlink:title="middleware">
<ellipse fill="#7fff7f" stroke="#000000" cx="566.397" cy="-522" rx="51.7002" ry="18"/>
<text text-anchor="middle" x="566.397" y="-517.8" font-family="Times,serif" font-size="14.00" fill="#000000">middleware</text>
</a>
</g>
</g>
<!-- config_middleware_hook -->
<g id="node13" class="node">
<title>config_middleware_hook</title>
<g id="a_node13"><a xlink:href="https://github.com/godaddy/gasket/tree/master/packages/config-plugin" xlink:title="config&#45;plugin">
<polygon fill="#ffa500" stroke="#000000" points="440.691,-455.5623 369.397,-468 298.1029,-455.5623 298.1694,-435.4377 440.6245,-435.4377 440.691,-455.5623"/>
<text text-anchor="middle" x="369.397" y="-445.8" font-family="Times,serif" font-size="14.00" fill="#000000">config&#45;plugin</text>
</a>
</g>
</g>
<!-- middleware&#45;&gt;config_middleware_hook -->
<g id="edge4" class="edge">
<title>middleware&#45;&gt;config_middleware_hook:n</title>
<path fill="none" stroke="#000000" d="M515.6646,-518.1218C463.9071,-512.8964 388.9324,-501.369 372.6101,-477.6847"/>
<polygon fill="#000000" stroke="#000000" points="375.868,-476.3891 369.397,-468 369.2241,-478.5934 375.868,-476.3891"/>
</g>
<!-- redux_middleware_hook -->
<g id="node14" class="node">
<title>redux_middleware_hook</title>
<g id="a_node14"><a xlink:href="https://github.com/godaddy/gasket/tree/master/packages/redux-plugin" xlink:title="redux&#45;plugin">
<polygon fill="#ffa500" stroke="#000000" points="280.3125,-455.5623 211.397,-468 142.4815,-455.5623 142.5458,-435.4377 280.2482,-435.4377 280.3125,-455.5623"/>
<text text-anchor="middle" x="211.397" y="-445.8" font-family="Times,serif" font-size="14.00" fill="#000000">redux&#45;plugin</text>
</a>
</g>
</g>
<!-- middleware&#45;&gt;redux_middleware_hook -->
<g id="edge5" class="edge">
<title>middleware&#45;&gt;redux_middleware_hook:n</title>
<path fill="none" stroke="#000000" d="M514.7769,-519.3963C425.9336,-514.2885 250.4054,-501.2324 216.9698,-476.4596"/>
<polygon fill="#000000" stroke="#000000" points="219.821,-474.4254 211.397,-468 213.9754,-478.2763 219.821,-474.4254"/>
</g>
<!-- serviceWorker_middleware_hook -->
<g id="node15" class="node">
<title>serviceWorker_middleware_hook</title>
<g id="a_node15"><a xlink:href="https://github.com/godaddy/gasket/tree/master/packages/serviceWorker-plugin" xlink:title="serviceWorker&#45;plugin">
<polygon fill="#ffa500" stroke="#000000" points="673.5335,-455.5623 566.397,-468 459.2605,-455.5623 459.3605,-435.4377 673.4335,-435.4377 673.5335,-455.5623"/>
<text text-anchor="middle" x="566.397" y="-445.8" font-family="Times,serif" font-size="14.00" fill="#000000">serviceWorker&#45;plugin</text>
</a>
</g>
</g>
<!-- middleware&#45;&gt;serviceWorker_middleware_hook -->
<g id="edge6" class="edge">
<title>middleware&#45;&gt;serviceWorker_middleware_hook:n</title>
<path fill="none" stroke="#000000" d="M566.397,-504C566.397,-496.3711 566.397,-487.1585 566.397,-478.0882"/>
<polygon fill="#000000" stroke="#000000" points="569.8971,-478 566.397,-468 562.8971,-478 569.8971,-478"/>
</g>
<!-- express -->
<g id="node3" class="node">
<title>express</title>
<g id="a_node3"><a xlink:href="https://github.com/godaddy/gasket/tree/master/packages/gasket-express-plugin" xlink:title="express">
<ellipse fill="#7fff7f" stroke="#000000" cx="944.397" cy="-450" rx="36.7576" ry="18"/>
<text text-anchor="middle" x="944.397" y="-445.8" font-family="Times,serif" font-size="14.00" fill="#000000">express</text>
</a>
</g>
</g>
<!-- intl_express_hook -->
<g id="node16" class="node">
<title>intl_express_hook</title>
<g id="a_node16"><a xlink:href="https://github.com/godaddy/gasket/tree/master/packages/intl-plugin" xlink:title="intl&#45;plugin">
<polygon fill="#ffa500" stroke="#000000" points="917.1889,-383.5623 858.397,-396 799.6051,-383.5623 799.6599,-363.4377 917.134,-363.4377 917.1889,-383.5623"/>
<text text-anchor="middle" x="858.397" y="-373.8" font-family="Times,serif" font-size="14.00" fill="#000000">intl&#45;plugin</text>
</a>
</g>
</g>
<!-- express&#45;&gt;intl_express_hook -->
<g id="edge7" class="edge">
<title>express&#45;&gt;intl_express_hook:n</title>
<path fill="none" stroke="#000000" d="M916.2373,-438.4415C896.4467,-429.5973 871.8756,-416.957 862.3903,-405.1755"/>
<polygon fill="#000000" stroke="#000000" points="865.5968,-403.7725 858.397,-396 859.1784,-406.566 865.5968,-403.7725"/>
</g>
<!-- serviceWorker_express_hook -->
<g id="node17" class="node">
<title>serviceWorker_express_hook</title>
<g id="a_node17"><a xlink:href="https://github.com/godaddy/gasket/tree/master/packages/serviceWorker-plugin" xlink:title="serviceWorker&#45;plugin">
<polygon fill="#ffa500" stroke="#000000" points="1149.5335,-383.5623 1042.397,-396 935.2605,-383.5623 935.3605,-363.4377 1149.4335,-363.4377 1149.5335,-383.5623"/>
<text text-anchor="middle" x="1042.397" y="-373.8" font-family="Times,serif" font-size="14.00" fill="#000000">serviceWorker&#45;plugin</text>
</a>
</g>
</g>
<!-- express&#45;&gt;serviceWorker_express_hook -->
<g id="edge8" class="edge">
<title>express&#45;&gt;serviceWorker_express_hook:n</title>
<path fill="none" stroke="#000000" d="M979.7772,-445.1242C1004.4489,-439.7662 1034.1247,-428.6884 1040.95,-406.037"/>
<polygon fill="#000000" stroke="#000000" points="1044.4342,-406.3971 1042.397,-396 1037.5058,-405.3982 1044.4342,-406.3971"/>
</g>
<!-- workbox_express_hook -->
<g id="node18" class="node">
<title>workbox_express_hook</title>
<g id="a_node18"><a xlink:href="https://github.com/godaddy/gasket/tree/master/packages/workbox-plugin" xlink:title="workbox&#45;plugin">
<polygon fill="#ffa500" stroke="#000000" points="1333.2595,-383.5623 1250.397,-396 1167.5345,-383.5623 1167.6118,-363.4377 1333.1821,-363.4377 1333.2595,-383.5623"/>
<text text-anchor="middle" x="1250.397" y="-373.8" font-family="Times,serif" font-size="14.00" fill="#000000">workbox&#45;plugin</text>
</a>
</g>
</g>
<!-- express&#45;&gt;workbox_express_hook -->
<g id="edge9" class="edge">
<title>express&#45;&gt;workbox_express_hook:n</title>
<path fill="none" stroke="#000000" d="M980.7008,-447.3471C1053.2081,-441.6133 1211.8025,-426.7417 1244.4494,-404.2649"/>
<polygon fill="#000000" stroke="#000000" points="1247.3968,-406.1612 1250.397,-396 1241.715,-402.0725 1247.3968,-406.1612"/>
</g>
<!-- next -->
<g id="node4" class="node">
<title>next</title>
<g id="a_node4"><a xlink:href="https://github.com/godaddy/gasket/tree/master/packages/gasket-nextjs-plugin#next" xlink:title="next">
<ellipse fill="#7fff7f" stroke="#000000" cx="754.397" cy="-378" rx="27" ry="18"/>
<text text-anchor="middle" x="754.397" y="-373.8" font-family="Times,serif" font-size="14.00" fill="#000000">next</text>
</a>
</g>
</g>
<!-- appRequestConfig -->
<g id="node5" class="node">
<title>appRequestConfig</title>
<g id="a_node5"><a xlink:href="https://github.com/godaddy/gasket/tree/master/packages/gasket-config-plugin#apprequestconfig" xlink:title="appRequestConfig">
<ellipse fill="#7fff7f" stroke="#000000" cx="369.397" cy="-306" rx="75.3966" ry="18"/>
<text text-anchor="middle" x="369.397" y="-301.8" font-family="Times,serif" font-size="14.00" fill="#000000">appRequestConfig</text>
</a>
</g>
</g>
<!-- initReduxState -->
<g id="node6" class="node">
<title>initReduxState</title>
<g id="a_node6"><a xlink:href="https://github.com/godaddy/gasket/tree/master/packages/gasket-redux-plugin#initreduxstate" xlink:title="initReduxState">
<ellipse fill="#7fff7f" stroke="#000000" cx="82.397" cy="-306" rx="62.8425" ry="18"/>
<text text-anchor="middle" x="82.397" y="-301.8" font-family="Times,serif" font-size="14.00" fill="#000000">initReduxState</text>
</a>
</g>
</g>
<!-- config_initReduxState_hook -->
<g id="node19" class="node">
<title>config_initReduxState_hook</title>
<g id="a_node19"><a xlink:href="https://github.com/godaddy/gasket/tree/master/packages/config-plugin" xlink:title="config&#45;plugin">
<polygon fill="#ffa500" stroke="#000000" points="142.691,-239.5623 71.397,-252 .1029,-239.5623 .1694,-219.4377 142.6245,-219.4377 142.691,-239.5623"/>
<text text-anchor="middle" x="71.397" y="-229.8" font-family="Times,serif" font-size="14.00" fill="#000000">config&#45;plugin</text>
</a>
</g>
</g>
<!-- initReduxState&#45;&gt;config_initReduxState_hook -->
<g id="edge10" class="edge">
<title>initReduxState&#45;&gt;config_initReduxState_hook:n</title>
<path fill="none" stroke="#000000" d="M76.7681,-287.6933C74.8017,-280.16 72.8574,-271.0951 71.941,-262.0773"/>
<polygon fill="#000000" stroke="#000000" points="75.4311,-261.7967 71.397,-252 68.4413,-262.1742 75.4311,-261.7967"/>
</g>
<!-- initReduxStore -->
<g id="node7" class="node">
<title>initReduxStore</title>
<g id="a_node7"><a xlink:href="https://github.com/godaddy/gasket/tree/master/packages/gasket-redux-plugin#initreduxstore" xlink:title="initReduxStore">
<ellipse fill="#7fff7f" stroke="#000000" cx="224.397" cy="-234" rx="63.8115" ry="18"/>
<text text-anchor="middle" x="224.397" y="-229.8" font-family="Times,serif" font-size="14.00" fill="#000000">initReduxStore</text>
</a>
</g>
</g>
<!-- composeServiceWorker -->
<g id="node8" class="node">
<title>composeServiceWorker</title>
<g id="a_node8"><a xlink:href="https://github.com/godaddy/gasket/tree/master/packages/gasket-service-worker-plugin#composeserviceworker" xlink:title="composeServiceWorker">
<ellipse fill="#7fff7f" stroke="#000000" cx="1042.397" cy="-234" rx="94.2233" ry="18"/>
<text text-anchor="middle" x="1042.397" y="-229.8" font-family="Times,serif" font-size="14.00" fill="#000000">composeServiceWorker</text>
</a>
</g>
</g>
<!-- workbox_composeServiceWorker_hook -->
<g id="node20" class="node">
<title>workbox_composeServiceWorker_hook</title>
<g id="a_node20"><a xlink:href="https://github.com/godaddy/gasket/tree/master/packages/workbox-plugin" xlink:title="workbox&#45;plugin">
<polygon fill="#ffa500" stroke="#000000" points="1125.2595,-167.5623 1042.397,-180 959.5345,-167.5623 959.6118,-147.4377 1125.1821,-147.4377 1125.2595,-167.5623"/>
<text text-anchor="middle" x="1042.397" y="-157.8" font-family="Times,serif" font-size="14.00" fill="#000000">workbox&#45;plugin</text>
</a>
</g>
</g>
<!-- composeServiceWorker&#45;&gt;workbox_composeServiceWorker_hook -->
<g id="edge11" class="edge">
<title>composeServiceWorker&#45;&gt;workbox_composeServiceWorker_hook:n</title>
<path fill="none" stroke="#000000" d="M1042.397,-216C1042.397,-208.3711 1042.397,-199.1585 1042.397,-190.0882"/>
<polygon fill="#000000" stroke="#000000" points="1045.8971,-190 1042.397,-180 1038.8971,-190 1045.8971,-190"/>
</g>
<!-- workbox -->
<g id="node9" class="node">
<title>workbox</title>
<g id="a_node9"><a xlink:href="https://github.com/godaddy/gasket/tree/master/packages/gasket-workbox-plugin#workbox" xlink:title="workbox">
<ellipse fill="#7fff7f" stroke="#000000" cx="1042.397" cy="-18" rx="41.5938" ry="18"/>
<text text-anchor="middle" x="1042.397" y="-13.8" font-family="Times,serif" font-size="14.00" fill="#000000">workbox</text>
</a>
</g>
</g>
<!-- invoke_middleware_0 -->
<g id="node21" class="node">
<title>invoke_middleware_0</title>
<polygon fill="#cfcfff" stroke="#000000" points="607.48,-612 525.3139,-612 525.3139,-576 607.48,-576 607.48,-612"/>
<text text-anchor="middle" x="566.397" y="-589.8" font-family="Times,serif" font-size="14.00" fill="#000000">middleware</text>
</g>
<!-- express_start_hook&#45;&gt;invoke_middleware_0 -->
<g id="edge12" class="edge">
<title>express_start_hook&#45;&gt;invoke_middleware_0</title>
<path fill="none" stroke="#000000" d="M559.2182,-651.4297C560.2704,-643.0125 561.6297,-632.1378 562.882,-622.1194"/>
<polygon fill="#000000" stroke="#000000" points="566.3635,-622.4849 564.131,-612.128 559.4176,-621.6166 566.3635,-622.4849"/>
</g>
<!-- invoke_middleware_3 -->
<g id="node24" class="node">
<title>invoke_middleware_3</title>
<polygon fill="#cfcfff" stroke="#000000" points="763.48,-612 681.3139,-612 681.3139,-576 763.48,-576 763.48,-612"/>
<text text-anchor="middle" x="722.397" y="-589.8" font-family="Times,serif" font-size="14.00" fill="#000000">middleware</text>
</g>
<!-- nextjs_start_hook&#45;&gt;invoke_middleware_3 -->
<g id="edge15" class="edge">
<title>nextjs_start_hook&#45;&gt;invoke_middleware_3</title>
<path fill="none" stroke="#000000" d="M722.397,-651.4297C722.397,-643.1011 722.397,-632.3665 722.397,-622.436"/>
<polygon fill="#000000" stroke="#000000" points="725.8971,-622.1279 722.397,-612.128 718.8971,-622.128 725.8971,-622.1279"/>
</g>
<!-- invoke_middleware_6 -->
<g id="node27" class="node">
<title>invoke_middleware_6</title>
<polygon fill="#cfcfff" stroke="#000000" points="914.48,-612 832.3139,-612 832.3139,-576 914.48,-576 914.48,-612"/>
<text text-anchor="middle" x="873.397" y="-589.8" font-family="Times,serif" font-size="14.00" fill="#000000">middleware</text>
</g>
<!-- https_start_hook&#45;&gt;invoke_middleware_6 -->
<g id="edge18" class="edge">
<title>https_start_hook&#45;&gt;invoke_middleware_6</title>
<path fill="none" stroke="#000000" d="M875.7899,-651.4297C875.4392,-643.0125 874.986,-632.1378 874.5686,-622.1194"/>
<polygon fill="#000000" stroke="#000000" points="878.0657,-621.9736 874.1523,-612.128 871.0717,-622.265 878.0657,-621.9736"/>
</g>
<!-- invoke_appRequestConfig_9 -->
<g id="node30" class="node">
<title>invoke_appRequestConfig_9</title>
<polygon fill="#cfcfff" stroke="#000000" points="429.3392,-396 309.4547,-396 309.4547,-360 429.3392,-360 429.3392,-396"/>
<text text-anchor="middle" x="369.397" y="-373.8" font-family="Times,serif" font-size="14.00" fill="#000000">appRequestConfig</text>
</g>
<!-- config_middleware_hook&#45;&gt;invoke_appRequestConfig_9 -->
<g id="edge21" class="edge">
<title>config_middleware_hook&#45;&gt;invoke_appRequestConfig_9</title>
<path fill="none" stroke="#000000" d="M369.397,-435.4297C369.397,-427.1011 369.397,-416.3665 369.397,-406.436"/>
<polygon fill="#000000" stroke="#000000" points="372.8971,-406.1279 369.397,-396.128 365.8971,-406.128 372.8971,-406.1279"/>
</g>
<!-- invoke_initReduxState_10 -->
<g id="node31" class="node">
<title>invoke_initReduxState_10</title>
<polygon fill="#cfcfff" stroke="#000000" points="261.1111,-396 161.6829,-396 161.6829,-360 261.1111,-360 261.1111,-396"/>
<text text-anchor="middle" x="211.397" y="-373.8" font-family="Times,serif" font-size="14.00" fill="#000000">initReduxState</text>
</g>
<!-- redux_middleware_hook&#45;&gt;invoke_initReduxState_10 -->
<g id="edge22" class="edge">
<title>redux_middleware_hook&#45;&gt;invoke_initReduxState_10</title>
<path fill="none" stroke="#000000" d="M211.397,-435.4297C211.397,-427.1011 211.397,-416.3665 211.397,-406.436"/>
<polygon fill="#000000" stroke="#000000" points="214.8971,-406.1279 211.397,-396.128 207.8971,-406.128 214.8971,-406.1279"/>
</g>
<!-- invoke_composeServiceWorker_12 -->
<g id="node33" class="node">
<title>invoke_composeServiceWorker_12</title>
<polygon fill="#cfcfff" stroke="#000000" points="1117.2803,-324 967.5137,-324 967.5137,-288 1117.2803,-288 1117.2803,-324"/>
<text text-anchor="middle" x="1042.397" y="-301.8" font-family="Times,serif" font-size="14.00" fill="#000000">composeServiceWorker</text>
</g>
<!-- serviceWorker_express_hook&#45;&gt;invoke_composeServiceWorker_12 -->
<g id="edge24" class="edge">
<title>serviceWorker_express_hook&#45;&gt;invoke_composeServiceWorker_12</title>
<path fill="none" stroke="#000000" d="M1042.397,-363.4297C1042.397,-355.1011 1042.397,-344.3665 1042.397,-334.436"/>
<polygon fill="#000000" stroke="#000000" points="1045.8971,-334.1279 1042.397,-324.128 1038.8971,-334.128 1045.8971,-334.1279"/>
</g>
<!-- invoke_workbox_13 -->
<g id="node34" class="node">
<title>invoke_workbox_13</title>
<polygon fill="#cfcfff" stroke="#000000" points="1075.1698,-108 1009.6241,-108 1009.6241,-72 1075.1698,-72 1075.1698,-108"/>
<text text-anchor="middle" x="1042.397" y="-85.8" font-family="Times,serif" font-size="14.00" fill="#000000">workbox</text>
</g>
<!-- workbox_composeServiceWorker_hook&#45;&gt;invoke_workbox_13 -->
<g id="edge25" class="edge">
<title>workbox_composeServiceWorker_hook&#45;&gt;invoke_workbox_13</title>
<path fill="none" stroke="#000000" d="M1042.397,-147.4297C1042.397,-139.1011 1042.397,-128.3665 1042.397,-118.436"/>
<polygon fill="#000000" stroke="#000000" points="1045.8971,-118.1279 1042.397,-108.128 1038.8971,-118.128 1045.8971,-118.1279"/>
</g>
<!-- invoke_middleware_0&#45;&gt;middleware -->
<g id="edge26" class="edge">
<title>invoke_middleware_0&#45;&gt;middleware</title>
<path fill="none" stroke="#000000" stroke-dasharray="1,5" d="M566.397,-575.8314C566.397,-568.131 566.397,-558.9743 566.397,-550.4166"/>
<polygon fill="#000000" stroke="#000000" points="569.8971,-550.4132 566.397,-540.4133 562.8971,-550.4133 569.8971,-550.4132"/>
</g>
<!-- invoke_express_1 -->
<g id="node22" class="node">
<title>invoke_express_1</title>
<polygon fill="#cfcfff" stroke="#000000" points="745.3833,-540 687.4106,-540 687.4106,-504 745.3833,-504 745.3833,-540"/>
<text text-anchor="middle" x="716.397" y="-517.8" font-family="Times,serif" font-size="14.00" fill="#000000">express</text>
</g>
<!-- invoke_middleware_0&#45;&gt;invoke_express_1 -->
<g id="edge13" class="edge">
<title>invoke_middleware_0&#45;&gt;invoke_express_1</title>
<path fill="none" stroke="#000000" d="M604.2483,-575.8314C626.7268,-565.0417 655.1615,-551.393 677.7743,-540.5389"/>
<polygon fill="#000000" stroke="#000000" points="679.5741,-543.5574 687.0748,-536.0747 676.5449,-537.2467 679.5741,-543.5574"/>
</g>
<!-- invoke_express_1&#45;&gt;express -->
<g id="edge27" class="edge">
<title>invoke_express_1&#45;&gt;express</title>
<path fill="none" stroke="#000000" stroke-dasharray="1,5" d="M745.6125,-507.4602C748.548,-506.2117 751.5103,-505.0331 754.397,-504 816.5089,-481.7715 835.5514,-488.0607 898.397,-468 901.1542,-467.1199 903.984,-466.1589 906.8192,-465.1538"/>
<polygon fill="#000000" stroke="#000000" points="908.2158,-468.3691 916.3824,-461.6195 905.7891,-461.8032 908.2158,-468.3691"/>
</g>
<!-- invoke_next_2 -->
<g id="node23" class="node">
<title>invoke_next_2</title>
<polygon fill="#cfcfff" stroke="#000000" points="745.397,-468 691.397,-468 691.397,-432 745.397,-432 745.397,-468"/>
<text text-anchor="middle" x="718.397" y="-445.8" font-family="Times,serif" font-size="14.00" fill="#000000">next</text>
</g>
<!-- invoke_express_1&#45;&gt;invoke_next_2 -->
<g id="edge14" class="edge">
<title>invoke_express_1&#45;&gt;invoke_next_2</title>
<path fill="none" stroke="#000000" d="M716.9016,-503.8314C717.1155,-496.131 717.3699,-486.9743 717.6076,-478.4166"/>
<polygon fill="#000000" stroke="#000000" points="721.1064,-478.5066 717.8855,-468.4133 714.1091,-478.3122 721.1064,-478.5066"/>
</g>
<!-- invoke_next_2&#45;&gt;next -->
<g id="edge28" class="edge">
<title>invoke_next_2&#45;&gt;next</title>
<path fill="none" stroke="#000000" stroke-dasharray="1,5" d="M727.4813,-431.8314C731.6244,-423.5451 736.6106,-413.5727 741.1596,-404.4748"/>
<polygon fill="#000000" stroke="#000000" points="744.3464,-405.9273 745.6881,-395.4177 738.0854,-402.7967 744.3464,-405.9273"/>
</g>
<!-- invoke_middleware_3&#45;&gt;middleware -->
<g id="edge29" class="edge">
<title>invoke_middleware_3&#45;&gt;middleware</title>
<path fill="none" stroke="#000000" stroke-dasharray="1,5" d="M683.0316,-575.8314C659.7876,-565.1034 630.4197,-551.549 606.9684,-540.7253"/>
<polygon fill="#000000" stroke="#000000" points="608.1899,-537.4343 597.6436,-536.4215 605.2565,-543.79 608.1899,-537.4343"/>
</g>
<!-- invoke_express_4 -->
<g id="node25" class="node">
<title>invoke_express_4</title>
<polygon fill="#cfcfff" stroke="#000000" points="821.3833,-540 763.4106,-540 763.4106,-504 821.3833,-504 821.3833,-540"/>
<text text-anchor="middle" x="792.397" y="-517.8" font-family="Times,serif" font-size="14.00" fill="#000000">express</text>
</g>
<!-- invoke_middleware_3&#45;&gt;invoke_express_4 -->
<g id="edge16" class="edge">
<title>invoke_middleware_3&#45;&gt;invoke_express_4</title>
<path fill="none" stroke="#000000" d="M740.0609,-575.8314C748.3701,-567.2848 758.4233,-556.9443 767.4888,-547.6198"/>
<polygon fill="#000000" stroke="#000000" points="770.0339,-550.023 774.4952,-540.4133 765.0149,-545.1435 770.0339,-550.023"/>
</g>
<!-- invoke_express_4&#45;&gt;express -->
<g id="edge30" class="edge">
<title>invoke_express_4&#45;&gt;express</title>
<path fill="none" stroke="#000000" stroke-dasharray="1,5" d="M821.7041,-508.1177C846.4443,-496.3986 881.9624,-479.5742 908.4229,-467.0404"/>
<polygon fill="#000000" stroke="#000000" points="910.1858,-470.0782 917.7249,-462.6341 907.1892,-463.752 910.1858,-470.0782"/>
</g>
<!-- invoke_next_5 -->
<g id="node26" class="node">
<title>invoke_next_5</title>
<polygon fill="#cfcfff" stroke="#000000" points="817.397,-468 763.397,-468 763.397,-432 817.397,-432 817.397,-468"/>
<text text-anchor="middle" x="790.397" y="-445.8" font-family="Times,serif" font-size="14.00" fill="#000000">next</text>
</g>
<!-- invoke_express_4&#45;&gt;invoke_next_5 -->
<g id="edge17" class="edge">
<title>invoke_express_4&#45;&gt;invoke_next_5</title>
<path fill="none" stroke="#000000" d="M791.8923,-503.8314C791.6784,-496.131 791.424,-486.9743 791.1863,-478.4166"/>
<polygon fill="#000000" stroke="#000000" points="794.6849,-478.3122 790.9084,-468.4133 787.6876,-478.5066 794.6849,-478.3122"/>
</g>
<!-- invoke_next_5&#45;&gt;next -->
<g id="edge31" class="edge">
<title>invoke_next_5&#45;&gt;next</title>
<path fill="none" stroke="#000000" stroke-dasharray="1,5" d="M781.3126,-431.8314C777.1695,-423.5451 772.1833,-413.5727 767.6344,-404.4748"/>
<polygon fill="#000000" stroke="#000000" points="770.7085,-402.7967 763.1058,-395.4177 764.4475,-405.9273 770.7085,-402.7967"/>
</g>
<!-- invoke_middleware_6&#45;&gt;middleware -->
<g id="edge32" class="edge">
<title>invoke_middleware_6&#45;&gt;middleware</title>
<path fill="none" stroke="#000000" stroke-dasharray="1,5" d="M832.3121,-584.3645C777.4042,-571.487 680.0154,-548.6467 619.5668,-534.4698"/>
<polygon fill="#000000" stroke="#000000" points="619.997,-530.9758 609.462,-532.0999 618.3986,-537.7909 619.997,-530.9758"/>
</g>
<!-- invoke_express_7 -->
<g id="node28" class="node">
<title>invoke_express_7</title>
<polygon fill="#cfcfff" stroke="#000000" points="902.3833,-540 844.4106,-540 844.4106,-504 902.3833,-504 902.3833,-540"/>
<text text-anchor="middle" x="873.397" y="-517.8" font-family="Times,serif" font-size="14.00" fill="#000000">express</text>
</g>
<!-- invoke_middleware_6&#45;&gt;invoke_express_7 -->
<g id="edge19" class="edge">
<title>invoke_middleware_6&#45;&gt;invoke_express_7</title>
<path fill="none" stroke="#000000" d="M873.397,-575.8314C873.397,-568.131 873.397,-558.9743 873.397,-550.4166"/>
<polygon fill="#000000" stroke="#000000" points="876.8971,-550.4132 873.397,-540.4133 869.8971,-550.4133 876.8971,-550.4132"/>
</g>
<!-- invoke_express_7&#45;&gt;express -->
<g id="edge33" class="edge">
<title>invoke_express_7&#45;&gt;express</title>
<path fill="none" stroke="#000000" stroke-dasharray="1,5" d="M891.3133,-503.8314C900.3484,-494.669 911.4165,-483.445 921.1038,-473.6213"/>
<polygon fill="#000000" stroke="#000000" points="923.6567,-476.0172 928.186,-466.4393 918.6724,-471.1021 923.6567,-476.0172"/>
</g>
<!-- invoke_next_8 -->
<g id="node29" class="node">
<title>invoke_next_8</title>
<polygon fill="#cfcfff" stroke="#000000" points="889.397,-468 835.397,-468 835.397,-432 889.397,-432 889.397,-468"/>
<text text-anchor="middle" x="862.397" y="-445.8" font-family="Times,serif" font-size="14.00" fill="#000000">next</text>
</g>
<!-- invoke_express_7&#45;&gt;invoke_next_8 -->
<g id="edge20" class="edge">
<title>invoke_express_7&#45;&gt;invoke_next_8</title>
<path fill="none" stroke="#000000" d="M870.6212,-503.8314C869.4447,-496.131 868.0458,-486.9743 866.7384,-478.4166"/>
<polygon fill="#000000" stroke="#000000" points="870.1803,-477.7699 865.2101,-468.4133 863.2606,-478.8272 870.1803,-477.7699"/>
</g>
<!-- invoke_next_8&#45;&gt;next -->
<g id="edge34" class="edge">
<title>invoke_next_8&#45;&gt;next</title>
<path fill="none" stroke="#000000" stroke-dasharray="1,5" d="M835.144,-431.8314C819.0103,-421.0755 798.6149,-407.4786 782.3586,-396.6411"/>
<polygon fill="#000000" stroke="#000000" points="784.0685,-393.5746 773.8065,-390.9397 780.1856,-399.3989 784.0685,-393.5746"/>
</g>
<!-- invoke_appRequestConfig_9&#45;&gt;appRequestConfig -->
<g id="edge35" class="edge">
<title>invoke_appRequestConfig_9&#45;&gt;appRequestConfig</title>
<path fill="none" stroke="#000000" stroke-dasharray="1,5" d="M369.397,-359.8314C369.397,-352.131 369.397,-342.9743 369.397,-334.4166"/>
<polygon fill="#000000" stroke="#000000" points="372.8971,-334.4132 369.397,-324.4133 365.8971,-334.4133 372.8971,-334.4132"/>
</g>
<!-- invoke_initReduxState_10&#45;&gt;initReduxState -->
<g id="edge36" class="edge">
<title>invoke_initReduxState_10&#45;&gt;initReduxState</title>
<path fill="none" stroke="#000000" stroke-dasharray="1,5" d="M178.8448,-359.8314C161.0131,-349.8788 138.823,-337.4936 120.2243,-327.1129"/>
<polygon fill="#000000" stroke="#000000" points="121.8552,-324.015 111.4174,-322.1975 118.4436,-330.1274 121.8552,-324.015"/>
</g>
<!-- invoke_initReduxStore_11 -->
<g id="node32" class="node">
<title>invoke_initReduxStore_11</title>
<polygon fill="#cfcfff" stroke="#000000" points="268.6697,-324 168.1242,-324 168.1242,-288 268.6697,-288 268.6697,-324"/>
<text text-anchor="middle" x="218.397" y="-301.8" font-family="Times,serif" font-size="14.00" fill="#000000">initReduxStore</text>
</g>
<!-- invoke_initReduxState_10&#45;&gt;invoke_initReduxStore_11 -->
<g id="edge23" class="edge">
<title>invoke_initReduxState_10&#45;&gt;invoke_initReduxStore_11</title>
<path fill="none" stroke="#000000" d="M213.1634,-359.8314C213.912,-352.131 214.8022,-342.9743 215.6342,-334.4166"/>
<polygon fill="#000000" stroke="#000000" points="219.1226,-334.7051 216.6068,-324.4133 212.1555,-334.0276 219.1226,-334.7051"/>
</g>
<!-- invoke_initReduxStore_11&#45;&gt;initReduxStore -->
<g id="edge37" class="edge">
<title>invoke_initReduxStore_11&#45;&gt;initReduxStore</title>
<path fill="none" stroke="#000000" stroke-dasharray="1,5" d="M219.911,-287.8314C220.5527,-280.131 221.3158,-270.9743 222.0289,-262.4166"/>
<polygon fill="#000000" stroke="#000000" points="225.5199,-262.6694 222.8625,-252.4133 218.5441,-262.088 225.5199,-262.6694"/>
</g>
<!-- invoke_composeServiceWorker_12&#45;&gt;composeServiceWorker -->
<g id="edge38" class="edge">
<title>invoke_composeServiceWorker_12&#45;&gt;composeServiceWorker</title>
<path fill="none" stroke="#000000" stroke-dasharray="1,5" d="M1042.397,-287.8314C1042.397,-280.131 1042.397,-270.9743 1042.397,-262.4166"/>
<polygon fill="#000000" stroke="#000000" points="1045.8971,-262.4132 1042.397,-252.4133 1038.8971,-262.4133 1045.8971,-262.4132"/>
</g>
<!-- invoke_workbox_13&#45;&gt;workbox -->
<g id="edge39" class="edge">
<title>invoke_workbox_13&#45;&gt;workbox</title>
<path fill="none" stroke="#000000" stroke-dasharray="1,5" d="M1042.397,-71.8314C1042.397,-64.131 1042.397,-54.9743 1042.397,-46.4166"/>
<polygon fill="#000000" stroke="#000000" points="1045.8971,-46.4132 1042.397,-36.4133 1038.8971,-46.4133 1045.8971,-46.4132"/>
</g>
</g>
</svg>
