<?xml version="1.0" encoding="UTF-8" standalone="no"?>
<!DOCTYPE svg PUBLIC "-//W3C//DTD SVG 1.1//EN"
 "http://www.w3.org/Graphics/SVG/1.1/DTD/svg11.dtd">
<!-- Generated by graphviz version 2.40.1 (20161225.0304)
 -->
<!-- Title: %3 Pages: 1 -->
<svg width="610pt" height="116pt"
 viewBox="0.00 0.00 610.40 116.00" xmlns="http://www.w3.org/2000/svg" xmlns:xlink="http://www.w3.org/1999/xlink">
<g id="graph0" class="graph" transform="scale(1 1) rotate(0) translate(4 112)">
<title>%3</title>
<polygon fill="#ffffff" stroke="transparent" points="-4,4 -4,-112 606.4021,-112 606.4021,4 -4,4"/>
<!-- webpack -->
<g id="node1" class="node">
<title>webpack</title>
<g id="a_node1"><a xlink:href="https://github.com/godaddy/gasket/tree/master/packages/gasket-webpack-plugin#webpack" xlink:title="webpack">
<ellipse fill="#7fff7f" stroke="#000000" cx="315.4443" cy="-90" rx="41.5679" ry="18"/>
<text text-anchor="middle" x="315.4443" y="-85.8" font-family="Times,serif" font-size="14.00" fill="#000000">webpack</text>
</a>
</g>
</g>
<!-- analyze_webpack_hook -->
<g id="node2" class="node">
<title>analyze_webpack_hook</title>
<g id="a_node2"><a xlink:href="https://github.com/godaddy/gasket/tree/master/packages/gasket-analyze-plugin" xlink:title="analyze&#45;plugin">
<polygon fill="#ffa500" stroke="#000000" points="154.833,-23.5623 77.4443,-36 .0557,-23.5623 .1279,-3.4377 154.7607,-3.4377 154.833,-23.5623"/>
<text text-anchor="middle" x="77.4443" y="-13.8" font-family="Times,serif" font-size="14.00" fill="#000000">analyze&#45;plugin</text>
</a>
</g>
</g>
<!-- webpack&#45;&gt;analyze_webpack_hook -->
<g id="edge1" class="edge">
<title>webpack&#45;&gt;analyze_webpack_hook:n</title>
<path fill="none" stroke="#000000" d="M275.34,-84.9893C216.5202,-77.1634 110.8956,-61.1449 83.8766,-43.9552"/>
<polygon fill="#000000" stroke="#000000" points="86.4535,-41.5754 77.4443,-36 81.0102,-45.9767 86.4535,-41.5754"/>
</g>
<!-- assets_webpack_hook -->
<g id="node3" class="node">
<title>assets_webpack_hook</title>
<g id="a_node3"><a xlink:href="https://github.com/godaddy/gasket/tree/master/packages/gasket-assets-plugin" xlink:title="assets&#45;plugin">
<polygon fill="#ffa500" stroke="#000000" points="312.0875,-23.5623 242.4443,-36 172.8011,-23.5623 172.8661,-3.4377 312.0225,-3.4377 312.0875,-23.5623"/>
<text text-anchor="middle" x="242.4443" y="-13.8" font-family="Times,serif" font-size="14.00" fill="#000000">assets&#45;plugin</text>
</a>
</g>
</g>
<!-- webpack&#45;&gt;assets_webpack_hook -->
<g id="edge2" class="edge">
<title>webpack&#45;&gt;assets_webpack_hook:n</title>
<path fill="none" stroke="#000000" d="M281.5088,-79.2896C265.7219,-72.3661 249.292,-61.7087 244.1105,-46.253"/>
<polygon fill="#000000" stroke="#000000" points="247.5032,-45.3091 242.4443,-36 240.5938,-46.432 247.5032,-45.3091"/>
</g>
<!-- log_webpack_hook -->
<g id="node4" class="node">
<title>log_webpack_hook</title>
<g id="a_node4"><a xlink:href="https://github.com/godaddy/gasket/tree/master/packages/gasket-log-plugin" xlink:title="log&#45;plugin">
<polygon fill="#ffa500" stroke="#000000" points="446.5189,-23.5623 388.4443,-36 330.3697,-23.5623 330.4239,-3.4377 446.4647,-3.4377 446.5189,-23.5623"/>
<text text-anchor="middle" x="388.4443" y="-13.8" font-family="Times,serif" font-size="14.00" fill="#000000">log&#45;plugin</text>
</a>
</g>
</g>
<!-- webpack&#45;&gt;log_webpack_hook -->
<g id="edge3" class="edge">
<title>webpack&#45;&gt;log_webpack_hook:n</title>
<path fill="none" stroke="#000000" d="M349.3798,-79.2896C365.1667,-72.3661 381.5966,-61.7087 386.7781,-46.253"/>
<polygon fill="#000000" stroke="#000000" points="390.2948,-46.432 388.4443,-36 383.3855,-45.3091 390.2948,-46.432"/>
</g>
<!-- redux_webpack_hook -->
<g id="node5" class="node">
<title>redux_webpack_hook</title>
<g id="a_node5"><a xlink:href="https://github.com/godaddy/gasket/tree/master/packages/gasket-redux-plugin" xlink:title="redux&#45;plugin">
<polygon fill="#ffa500" stroke="#000000" points="602.3598,-23.5623 533.4443,-36 464.5288,-23.5623 464.5931,-3.4377 602.2955,-3.4377 602.3598,-23.5623"/>
<text text-anchor="middle" x="533.4443" y="-13.8" font-family="Times,serif" font-size="14.00" fill="#000000">redux&#45;plugin</text>
</a>
</g>
</g>
<!-- webpack&#45;&gt;redux_webpack_hook -->
<g id="edge4" class="edge">
<title>webpack&#45;&gt;redux_webpack_hook:n</title>
<path fill="none" stroke="#000000" d="M356.9616,-88.1334C414.0355,-84.5304 511.8053,-74.2685 530.3567,-45.8715"/>
<polygon fill="#000000" stroke="#000000" points="533.7995,-46.5889 533.4443,-36 527.1187,-44.4992 533.7995,-46.5889"/>
</g>
</g>
</svg>
